{"glyphs":{"0":{"ha":798,"x_min":88,"x_max":709,"o":"m 487 694 q 506 675 505 692 l 506 186 q 487 167 503 168 l 311 167 q 292 186 293 170 l 292 675 q 311 694 294 693 l 487 694 m 88 203 q 332 -14 91 -12 l 465 -14 q 709 203 708 -11 l 709 658 q 465 875 707 873 l 332 875 q 88 658 90 872 l 88 203 z "},"1":{"ha":623,"x_min":16,"x_max":595,"o":"m 595 161 l 465 161 l 465 861 l 278 861 l 16 699 l 98 560 l 264 654 l 264 161 l 79 161 l 79 0 l 595 0 l 595 161 z "},"2":{"ha":666,"x_min":58,"x_max":628,"o":"m 58 251 l 58 0 l 618 0 l 618 174 l 259 174 l 259 247 q 282 289 260 278 l 490 400 q 613 503 587 452 q 628 578 628 536 l 628 658 q 492 861 628 831 q 411 868 456 869 l 79 861 l 79 688 l 408 688 q 427 669 426 685 l 427 585 q 408 560 426 570 l 186 439 q 87 366 109 399 q 58 251 58 326 z "},"3":{"ha":659,"x_min":34,"x_max":591,"o":"m 591 217 l 591 271 q 492 438 590 393 q 585 594 583 488 l 585 644 q 453 850 585 803 q 334 868 400 869 l 38 861 l 38 686 l 362 686 q 381 667 380 684 l 381 544 q 362 525 378 526 l 119 525 l 119 353 l 369 353 q 388 334 387 350 l 388 194 q 369 175 385 176 l 34 175 l 34 0 l 340 -7 q 574 118 521 -11 q 591 217 591 163 z "},"4":{"ha":774,"x_min":15,"x_max":747,"o":"m 618 0 l 618 178 l 747 178 l 747 350 l 618 350 l 618 861 l 423 868 q 289 819 332 871 q 232 726 269 793 l 15 321 l 15 178 l 418 178 l 418 0 l 618 0 m 384 673 q 407 689 395 689 l 418 689 l 418 350 l 209 350 l 384 673 z "},"5":{"ha":677,"x_min":61,"x_max":616,"o":"m 264 553 l 264 686 l 575 686 l 575 861 l 65 861 l 65 380 l 393 380 q 412 361 411 377 l 412 194 q 393 175 410 176 l 61 175 l 61 0 l 365 -7 q 598 118 545 -11 q 616 217 616 163 l 616 326 q 479 536 616 487 q 365 553 429 553 l 264 553 z "},"6":{"ha":720,"x_min":81,"x_max":675,"o":"m 425 -7 q 663 136 618 -7 q 675 217 675 174 l 675 332 q 563 536 675 495 q 444 553 515 553 l 285 553 l 285 667 q 304 686 288 685 l 621 686 l 621 861 l 332 868 q 99 743 152 872 q 81 644 81 699 l 81 218 q 233 5 81 49 q 332 -7 278 -7 l 425 -7 m 304 175 q 285 194 286 178 l 285 384 l 453 384 q 472 365 471 381 l 472 194 q 453 175 469 176 l 304 175 z "},"7":{"ha":601,"x_min":19,"x_max":585,"o":"m 296 -4 l 585 701 q 472 861 585 844 q 441 864 456 864 l 19 863 l 19 700 l 342 701 q 355 680 362 701 q 354 675 355 677 l 77 -4 l 296 -4 z "},"8":{"ha":768,"x_min":68,"x_max":700,"o":"m 449 -7 q 688 136 643 -7 q 700 217 700 174 l 700 271 q 601 438 699 393 q 693 594 692 488 l 693 644 q 544 854 693 812 q 442 868 498 868 l 326 868 q 87 726 132 868 q 75 644 75 688 l 75 594 q 167 438 76 487 q 68 271 69 392 l 68 217 q 217 7 68 49 q 319 -7 263 -7 l 449 -7 m 271 194 l 271 336 q 290 355 274 354 l 477 355 q 496 336 495 353 l 496 194 q 477 175 494 176 l 290 175 q 271 194 273 178 m 278 541 l 278 667 q 297 686 281 685 l 471 686 q 490 667 488 684 l 490 541 q 471 522 487 524 l 297 522 q 278 541 279 525 z "},"9":{"ha":720,"x_min":45,"x_max":639,"o":"m 639 217 l 639 643 q 487 856 639 812 q 388 868 442 868 l 296 868 q 57 726 102 868 q 45 644 45 688 l 45 521 q 157 317 45 358 q 277 300 205 300 l 435 300 l 435 194 q 416 175 433 176 l 85 175 l 85 0 l 388 -7 q 621 118 568 -11 q 639 217 639 163 m 267 469 q 248 488 250 472 l 248 667 q 267 686 251 685 l 416 686 q 435 667 434 684 l 435 469 l 267 469 z "},"A":{"ha":762,"x_min":9,"x_max":755,"o":"m 755 0 l 574 861 l 378 868 q 233 822 274 872 q 186 705 206 787 l 9 0 l 197 0 l 240 191 l 518 191 l 556 0 l 755 0 m 350 670 q 369 689 357 688 l 420 689 l 484 363 l 279 363 l 350 670 z "},"Æ":{"ha":1109,"x_min":3,"x_max":1069,"o":"m 197 0 l 282 213 l 541 213 l 541 0 l 1069 0 l 1069 175 l 742 175 l 742 347 l 1035 347 l 1035 519 l 742 519 l 742 686 l 1062 686 l 1062 861 l 488 864 q 355 822 393 864 q 296 705 332 793 l 3 0 l 197 0 m 467 669 q 479 686 473 685 q 486 688 483 688 l 541 688 l 541 385 l 351 385 l 467 669 z "},"Á":{"ha":762,"x_min":9,"x_max":755,"o":"m 755 0 l 574 861 l 378 868 q 233 822 274 872 q 186 705 206 787 l 9 0 l 197 0 l 240 191 l 518 191 l 556 0 l 755 0 m 350 670 q 369 689 357 688 l 420 689 l 484 363 l 279 363 l 350 670 m 324 930 l 412 1157 l 601 1156 l 463 930 l 324 930 z "},"Ă":{"ha":762,"x_min":9,"x_max":755,"o":"m 755 0 l 574 861 l 378 868 q 233 822 274 872 q 186 705 206 787 l 9 0 l 197 0 l 240 191 l 518 191 l 556 0 l 755 0 m 350 670 q 369 689 357 688 l 420 689 l 484 363 l 279 363 l 350 670 m 217 1131 q 275 964 217 1005 q 418 932 323 932 q 591 1010 555 932 q 610 1131 610 1054 l 494 1131 q 453 1051 494 1065 q 418 1046 438 1046 q 336 1103 346 1046 q 335 1131 335 1115 l 217 1131 z "},"Â":{"ha":762,"x_min":9,"x_max":755,"o":"m 755 0 l 574 861 l 378 868 q 233 822 274 872 q 186 705 206 787 l 9 0 l 197 0 l 240 191 l 518 191 l 556 0 l 755 0 m 350 670 q 369 689 357 688 l 420 689 l 484 363 l 279 363 l 350 670 m 496 1150 l 305 1150 l 167 930 l 317 930 l 399 1061 l 471 930 l 627 930 l 496 1150 z "},"Ä":{"ha":762,"x_min":9,"x_max":755,"o":"m 755 0 l 574 861 l 378 868 q 233 822 274 872 q 186 705 206 787 l 9 0 l 197 0 l 240 191 l 518 191 l 556 0 l 755 0 m 350 670 q 369 689 357 688 l 420 689 l 484 363 l 279 363 l 350 670 m 350 951 l 350 1112 l 194 1112 l 194 951 l 350 951 m 608 951 l 608 1112 l 452 1112 l 452 951 l 608 951 z "},"À":{"ha":762,"x_min":9,"x_max":755,"o":"m 755 0 l 574 861 l 378 868 q 233 822 274 872 q 186 705 206 787 l 9 0 l 197 0 l 240 191 l 518 191 l 556 0 l 755 0 m 350 670 q 369 689 357 688 l 420 689 l 484 363 l 279 363 l 350 670 m 201 1156 l 387 1157 l 473 930 l 345 930 l 201 1156 z "},"Ā":{"ha":762,"x_min":9,"x_max":755,"o":"m 755 0 l 574 861 l 378 868 q 233 822 274 872 q 186 705 206 787 l 9 0 l 197 0 l 240 191 l 518 191 l 556 0 l 755 0 m 350 670 q 369 689 357 688 l 420 689 l 484 363 l 279 363 l 350 670 m 586 1089 l 203 1089 l 203 954 l 586 954 l 586 1089 z "},"Ą":{"ha":762,"x_min":9,"x_max":776,"o":"m 755 0 l 574 861 l 378 868 q 233 822 274 872 q 186 705 206 787 l 9 0 l 197 0 l 240 191 l 518 191 l 556 0 l 633 0 l 553 -73 q 518 -163 518 -106 l 518 -197 q 612 -296 518 -283 q 655 -298 632 -298 l 776 -298 l 776 -176 l 670 -176 q 661 -167 662 -174 l 661 -132 q 671 -109 662 -119 l 755 0 m 350 670 q 369 689 357 688 l 420 689 l 484 363 l 279 363 l 350 670 z "},"Å":{"ha":762,"x_min":9,"x_max":755,"o":"m 755 0 l 574 861 l 378 868 q 233 822 274 872 q 186 705 206 787 l 9 0 l 197 0 l 240 191 l 518 191 l 556 0 l 755 0 m 350 670 q 369 689 357 688 l 420 689 l 484 363 l 279 363 l 350 670 m 556 1050 q 498 1183 556 1154 q 401 1199 463 1199 q 266 1141 293 1199 q 251 1050 251 1107 q 309 917 251 945 q 401 901 343 901 q 544 968 517 901 q 556 1050 556 1000 m 342 1050 q 366 1112 342 1103 q 401 1116 380 1116 q 461 1088 452 1116 q 465 1050 465 1073 q 433 987 465 997 q 401 983 419 983 q 345 1017 353 983 q 342 1050 342 1031 z "},"Ã":{"ha":762,"x_min":9,"x_max":755,"o":"m 755 0 l 574 861 l 378 868 q 233 822 274 872 q 186 705 206 787 l 9 0 l 197 0 l 240 191 l 518 191 l 556 0 l 755 0 m 350 670 q 369 689 357 688 l 420 689 l 484 363 l 279 363 l 350 670 m 283 947 q 315 1002 285 1001 q 400 972 330 1002 q 491 949 454 949 q 608 1131 606 952 l 494 1131 q 457 1077 488 1080 q 370 1107 438 1077 q 279 1130 315 1130 q 180 1047 201 1130 q 171 948 171 1006 l 283 947 z "},"B":{"ha":787,"x_min":88,"x_max":724,"o":"m 724 217 l 724 269 q 623 437 723 392 q 704 591 703 486 l 704 644 q 568 852 704 804 q 453 868 517 869 l 88 861 l 88 0 l 473 -7 q 708 122 658 -9 q 724 217 724 165 m 502 355 q 521 336 519 353 l 521 183 q 502 164 518 165 l 289 164 l 289 355 l 502 355 m 481 697 q 500 678 499 694 l 500 537 q 481 518 498 519 l 289 518 l 289 697 l 481 697 z "},"C":{"ha":606,"x_min":72,"x_max":590,"o":"m 590 180 l 294 180 q 275 199 277 183 l 275 662 q 294 681 278 680 l 590 681 l 590 861 l 316 861 q 72 644 73 859 l 72 217 q 316 0 75 1 l 590 0 l 590 180 z "},"Ć":{"ha":606,"x_min":72,"x_max":590,"o":"m 590 180 l 294 180 q 275 199 277 183 l 275 662 q 294 681 278 680 l 590 681 l 590 861 l 316 861 q 72 644 73 859 l 72 217 q 316 0 75 1 l 590 0 l 590 180 m 277 930 l 365 1157 l 553 1156 l 415 930 l 277 930 z "},"Č":{"ha":606,"x_min":72,"x_max":600,"o":"m 590 180 l 294 180 q 275 199 277 183 l 275 662 q 294 681 278 680 l 590 681 l 590 861 l 316 861 q 72 644 73 859 l 72 217 q 316 0 75 1 l 590 0 l 590 180 m 270 937 l 461 937 l 600 1157 l 449 1157 l 368 1027 l 296 1157 l 140 1157 l 270 937 z "},"Ç":{"ha":606,"x_min":72,"x_max":590,"o":"m 590 180 l 294 180 q 275 199 277 183 l 275 662 q 294 681 278 680 l 590 681 l 590 861 l 316 861 q 72 644 73 859 l 72 217 q 301 0 75 9 l 271 -140 l 381 -140 q 391 -149 389 -142 l 391 -190 q 381 -199 388 -198 l 258 -199 l 258 -298 l 377 -298 q 498 -190 496 -296 l 498 -138 q 414 -53 498 -61 q 389 -52 401 -52 l 380 -52 l 389 0 l 590 0 l 590 180 z "},"D":{"ha":799,"x_min":88,"x_max":724,"o":"m 502 694 q 521 675 519 692 l 521 186 q 502 167 518 168 l 289 167 l 289 694 l 502 694 m 88 0 l 473 -7 q 720 163 694 -11 q 724 217 724 189 l 724 644 q 543 864 724 841 q 473 868 510 868 l 88 861 l 88 0 z "},"Ď":{"ha":799,"x_min":88,"x_max":724,"o":"m 502 694 q 521 675 519 692 l 521 186 q 502 167 518 168 l 289 167 l 289 694 l 502 694 m 88 0 l 473 -7 q 720 163 694 -11 q 724 217 724 189 l 724 644 q 543 864 724 841 q 473 868 510 868 l 88 861 l 88 0 m 296 937 l 487 937 l 625 1157 l 475 1157 l 393 1027 l 321 1157 l 165 1157 l 296 937 z "},"Đ":{"ha":799,"x_min":27,"x_max":724,"o":"m 502 694 q 521 675 519 692 l 521 186 q 502 167 518 168 l 289 167 l 289 357 l 403 357 l 403 513 l 289 513 l 289 694 l 502 694 m 88 0 l 473 -7 q 720 163 694 -11 q 724 217 724 189 l 724 644 q 543 864 724 841 q 473 868 510 868 l 88 861 l 88 513 l 27 513 l 27 357 l 88 357 l 88 0 z "},"E":{"ha":656,"x_min":88,"x_max":616,"o":"m 616 0 l 616 175 l 289 175 l 289 350 l 582 350 l 582 522 l 289 522 l 289 686 l 609 686 l 609 861 l 88 861 l 88 0 l 616 0 z "},"É":{"ha":656,"x_min":88,"x_max":616,"o":"m 616 0 l 616 175 l 289 175 l 289 350 l 582 350 l 582 522 l 289 522 l 289 686 l 609 686 l 609 861 l 88 861 l 88 0 l 616 0 m 274 930 l 362 1157 l 551 1156 l 412 930 l 274 930 z "},"Ě":{"ha":656,"x_min":88,"x_max":616,"o":"m 616 0 l 616 175 l 289 175 l 289 350 l 582 350 l 582 522 l 289 522 l 289 686 l 609 686 l 609 861 l 88 861 l 88 0 l 616 0 m 254 937 l 445 937 l 583 1157 l 433 1157 l 351 1027 l 279 1157 l 123 1157 l 254 937 z "},"Ê":{"ha":656,"x_min":88,"x_max":616,"o":"m 616 0 l 616 175 l 289 175 l 289 350 l 582 350 l 582 522 l 289 522 l 289 686 l 609 686 l 609 861 l 88 861 l 88 0 l 616 0 m 446 1150 l 255 1150 l 117 930 l 267 930 l 349 1061 l 420 930 l 576 930 l 446 1150 z "},"Ë":{"ha":656,"x_min":88,"x_max":616,"o":"m 616 0 l 616 175 l 289 175 l 289 350 l 582 350 l 582 522 l 289 522 l 289 686 l 609 686 l 609 861 l 88 861 l 88 0 l 616 0 m 300 951 l 300 1112 l 144 1112 l 144 951 l 300 951 m 557 951 l 557 1112 l 401 1112 l 401 951 l 557 951 z "},"Ė":{"ha":656,"x_min":88,"x_max":616,"o":"m 616 0 l 616 175 l 289 175 l 289 350 l 582 350 l 582 522 l 289 522 l 289 686 l 609 686 l 609 861 l 88 861 l 88 0 l 616 0 m 426 945 l 426 1120 l 263 1120 l 263 945 l 426 945 z "},"È":{"ha":656,"x_min":88,"x_max":616,"o":"m 616 0 l 616 175 l 289 175 l 289 350 l 582 350 l 582 522 l 289 522 l 289 686 l 609 686 l 609 861 l 88 861 l 88 0 l 616 0 m 151 1156 l 336 1157 l 423 930 l 294 930 l 151 1156 z "},"Ē":{"ha":656,"x_min":88,"x_max":616,"o":"m 616 0 l 616 175 l 289 175 l 289 350 l 582 350 l 582 522 l 289 522 l 289 686 l 609 686 l 609 861 l 88 861 l 88 0 l 616 0 m 536 1089 l 153 1089 l 153 954 l 536 954 l 536 1089 z "},"Ę":{"ha":656,"x_min":88,"x_max":636,"o":"m 616 0 l 616 175 l 289 175 l 289 350 l 582 350 l 582 522 l 289 522 l 289 686 l 609 686 l 609 861 l 88 861 l 88 0 l 494 0 l 414 -73 q 378 -163 378 -106 l 378 -197 q 472 -296 378 -283 q 515 -298 492 -298 l 636 -298 l 636 -176 l 530 -176 q 521 -167 522 -174 l 521 -132 q 532 -109 522 -119 l 616 0 z "},"Ð":{"ha":799,"x_min":27,"x_max":724,"o":"m 502 694 q 521 675 519 692 l 521 186 q 502 167 518 168 l 289 167 l 289 357 l 403 357 l 403 513 l 289 513 l 289 694 l 502 694 m 88 0 l 473 -7 q 720 163 694 -11 q 724 217 724 189 l 724 644 q 543 864 724 841 q 473 868 510 868 l 88 861 l 88 513 l 27 513 l 27 357 l 88 357 l 88 0 z "},"€":{"ha":647,"x_min":41,"x_max":613,"o":"m 613 633 l 613 814 l 353 814 q 109 597 110 811 l 109 547 l 41 547 l 41 438 l 109 438 l 109 384 l 41 384 l 41 275 l 109 275 l 109 217 q 353 0 111 1 l 613 0 l 613 180 l 331 180 q 312 199 313 183 l 312 275 l 479 275 l 479 384 l 312 384 l 312 438 l 479 438 l 479 547 l 312 547 l 312 614 q 331 633 315 632 l 613 633 z "},"F":{"ha":609,"x_min":88,"x_max":595,"o":"m 568 510 l 289 510 l 289 686 l 595 686 l 595 861 l 88 861 l 88 0 l 289 0 l 289 338 l 568 338 l 568 510 z "},"G":{"ha":753,"x_min":75,"x_max":692,"o":"m 448 -14 q 692 203 690 -11 l 692 486 l 407 486 l 407 319 l 502 319 l 502 186 q 483 167 499 168 l 297 167 q 278 186 279 170 l 278 675 q 297 694 281 693 l 674 694 l 674 875 l 319 875 q 75 658 76 872 l 75 203 q 319 -14 77 -12 l 448 -14 z "},"Ğ":{"ha":753,"x_min":75,"x_max":692,"o":"m 448 -14 q 692 203 690 -11 l 692 486 l 407 486 l 407 319 l 502 319 l 502 186 q 483 167 499 168 l 297 167 q 278 186 279 170 l 278 675 q 297 694 281 693 l 674 694 l 674 875 l 319 875 q 75 658 76 872 l 75 203 q 319 -14 77 -12 l 448 -14 m 214 1131 q 273 964 214 1005 q 415 932 320 932 q 589 1010 552 932 q 608 1131 608 1054 l 491 1131 q 450 1051 491 1065 q 415 1046 435 1046 q 334 1103 343 1046 q 332 1131 332 1115 l 214 1131 z "},"H":{"ha":834,"x_min":88,"x_max":746,"o":"m 545 0 l 746 0 l 746 861 l 545 861 l 545 525 l 289 525 l 289 861 l 88 861 l 88 0 l 289 0 l 289 350 l 545 350 l 545 0 z "},"I":{"ha":404,"x_min":102,"x_max":302,"o":"m 302 0 l 302 861 l 102 861 l 102 0 l 302 0 z "},"Í":{"ha":404,"x_min":102,"x_max":392,"o":"m 302 0 l 302 861 l 102 861 l 102 0 l 302 0 m 115 930 l 203 1157 l 392 1156 l 254 930 l 115 930 z "},"Î":{"ha":404,"x_min":-26,"x_max":434,"o":"m 302 0 l 302 861 l 102 861 l 102 0 l 302 0 m 304 1150 l 113 1150 l -26 930 l 125 930 l 206 1061 l 278 930 l 434 930 l 304 1150 z "},"Ï":{"ha":404,"x_min":1,"x_max":415,"o":"m 302 0 l 302 861 l 102 861 l 102 0 l 302 0 m 157 951 l 157 1112 l 1 1112 l 1 951 l 157 951 m 415 951 l 415 1112 l 259 1112 l 259 951 l 415 951 z "},"İ":{"ha":404,"x_min":102,"x_max":302,"o":"m 302 0 l 302 861 l 102 861 l 102 0 l 302 0 m 283 945 l 283 1120 l 121 1120 l 121 945 l 283 945 z "},"Ì":{"ha":404,"x_min":8,"x_max":302,"o":"m 302 0 l 302 861 l 102 861 l 102 0 l 302 0 m 8 1156 l 194 1157 l 281 930 l 152 930 l 8 1156 z "},"Ī":{"ha":404,"x_min":11,"x_max":393,"o":"m 302 0 l 302 861 l 102 861 l 102 0 l 302 0 m 393 1089 l 11 1089 l 11 954 l 393 954 l 393 1089 z "},"Į":{"ha":404,"x_min":65,"x_max":323,"o":"m 302 0 l 302 861 l 102 861 l 102 0 l 180 0 l 100 -73 q 65 -163 65 -106 l 65 -197 q 159 -296 65 -283 q 202 -298 179 -298 l 323 -298 l 323 -176 l 217 -176 q 208 -167 209 -174 l 208 -132 q 218 -109 209 -119 l 302 0 z "},"J":{"ha":431,"x_min":0,"x_max":350,"o":"m 350 861 l 149 861 l 149 186 q 130 167 146 168 l 0 167 l 0 -14 l 109 -14 q 350 203 349 -11 l 350 861 z "},"K":{"ha":799,"x_min":95,"x_max":799,"o":"m 422 346 q 441 332 434 346 q 442 327 441 330 l 587 0 l 799 0 l 661 304 q 586 419 618 395 q 559 434 572 429 q 631 526 598 453 q 646 562 637 541 l 769 861 l 570 861 l 441 540 q 420 521 429 522 l 296 521 l 296 861 l 95 861 l 95 0 l 296 0 l 296 346 l 422 346 z "},"L":{"ha":589,"x_min":88,"x_max":582,"o":"m 582 175 l 289 175 l 289 861 l 88 861 l 88 0 l 582 0 l 582 175 z "},"Ĺ":{"ha":589,"x_min":88,"x_max":582,"o":"m 582 175 l 289 175 l 289 861 l 88 861 l 88 0 l 582 0 l 582 175 m 96 930 l 184 1157 l 373 1156 l 235 930 l 96 930 z "},"Ľ":{"ha":589,"x_min":88,"x_max":582,"o":"m 582 175 l 289 175 l 289 861 l 88 861 l 88 0 l 582 0 l 582 175 m 473 521 q 572 716 571 616 l 572 861 l 416 861 l 416 689 l 468 689 q 419 566 465 631 l 473 521 z "},"Ł":{"ha":589,"x_min":88,"x_max":582,"o":"m 582 175 l 289 175 l 289 861 l 88 861 l 88 0 l 582 0 l 582 175 z "},"M":{"ha":941,"x_min":75,"x_max":867,"o":"m 745 861 l 685 861 l 472 449 l 281 806 q 233 854 259 846 q 182 861 213 861 l 75 861 l 75 0 l 251 0 l 251 538 l 397 245 l 517 245 l 674 553 l 674 0 l 867 0 l 867 746 q 798 856 867 838 q 745 861 774 861 z "},"N":{"ha":814,"x_min":75,"x_max":739,"o":"m 597 0 l 739 0 l 739 861 l 567 861 l 567 345 l 216 861 l 75 861 l 75 0 l 247 0 l 247 517 l 597 0 z "},"Ń":{"ha":814,"x_min":75,"x_max":739,"o":"m 597 0 l 739 0 l 739 861 l 567 861 l 567 345 l 216 861 l 75 861 l 75 0 l 247 0 l 247 517 l 597 0 m 323 930 l 411 1157 l 600 1156 l 461 930 l 323 930 z "},"Ň":{"ha":814,"x_min":75,"x_max":739,"o":"m 597 0 l 739 0 l 739 861 l 567 861 l 567 345 l 216 861 l 75 861 l 75 0 l 247 0 l 247 517 l 597 0 m 302 937 l 494 937 l 632 1157 l 481 1157 l 400 1027 l 328 1157 l 172 1157 l 302 937 z "},"Ñ":{"ha":814,"x_min":75,"x_max":739,"o":"m 597 0 l 739 0 l 739 861 l 567 861 l 567 345 l 216 861 l 75 861 l 75 0 l 247 0 l 247 517 l 597 0 m 282 947 q 313 1002 283 1001 q 399 972 328 1002 q 490 949 453 949 q 606 1131 605 952 l 492 1131 q 456 1077 487 1080 q 369 1107 437 1077 q 278 1130 313 1130 q 179 1047 199 1130 q 170 948 170 1006 l 282 947 z "},"O":{"ha":814,"x_min":75,"x_max":739,"o":"m 517 694 q 536 675 534 692 l 536 186 q 517 167 533 168 l 297 167 q 278 186 279 170 l 278 675 q 297 694 281 693 l 517 694 m 75 203 q 319 -14 77 -12 l 495 -14 q 739 203 738 -11 l 739 658 q 495 875 736 873 l 319 875 q 75 658 76 872 l 75 203 z "},"Œ":{"ha":1108,"x_min":79,"x_max":1067,"o":"m 1067 0 l 1067 175 l 741 175 l 741 350 l 1034 350 l 1034 522 l 741 522 l 741 686 l 1061 686 l 1061 861 l 323 868 q 79 651 80 868 l 79 210 q 297 -7 79 4 q 323 -7 311 -7 l 1067 0 m 301 174 q 282 193 283 176 l 282 669 q 301 688 285 686 l 540 688 l 540 174 l 301 174 z "},"Ó":{"ha":814,"x_min":75,"x_max":739,"o":"m 517 694 q 536 675 534 692 l 536 186 q 517 167 533 168 l 297 167 q 278 186 279 170 l 278 675 q 297 694 281 693 l 517 694 m 75 203 q 319 -14 77 -12 l 495 -14 q 739 203 738 -11 l 739 658 q 495 875 736 873 l 319 875 q 75 658 76 872 l 75 203 m 339 930 l 427 1157 l 616 1156 l 477 930 l 339 930 z "},"Ô":{"ha":814,"x_min":75,"x_max":739,"o":"m 517 694 q 536 675 534 692 l 536 186 q 517 167 533 168 l 297 167 q 278 186 279 170 l 278 675 q 297 694 281 693 l 517 694 m 75 203 q 319 -14 77 -12 l 495 -14 q 739 203 738 -11 l 739 658 q 495 875 736 873 l 319 875 q 75 658 76 872 l 75 203 m 511 1150 l 320 1150 l 182 930 l 332 930 l 414 1061 l 486 930 l 642 930 l 511 1150 z "},"Ö":{"ha":814,"x_min":75,"x_max":739,"o":"m 517 694 q 536 675 534 692 l 536 186 q 517 167 533 168 l 297 167 q 278 186 279 170 l 278 675 q 297 694 281 693 l 517 694 m 75 203 q 319 -14 77 -12 l 495 -14 q 739 203 738 -11 l 739 658 q 495 875 736 873 l 319 875 q 75 658 76 872 l 75 203 m 365 951 l 365 1112 l 209 1112 l 209 951 l 365 951 m 623 951 l 623 1112 l 467 1112 l 467 951 l 623 951 z "},"Ò":{"ha":814,"x_min":75,"x_max":739,"o":"m 517 694 q 536 675 534 692 l 536 186 q 517 167 533 168 l 297 167 q 278 186 279 170 l 278 675 q 297 694 281 693 l 517 694 m 75 203 q 319 -14 77 -12 l 495 -14 q 739 203 738 -11 l 739 658 q 495 875 736 873 l 319 875 q 75 658 76 872 l 75 203 m 216 1156 l 401 1157 l 488 930 l 359 930 l 216 1156 z "},"Ő":{"ha":814,"x_min":75,"x_max":739,"o":"m 517 694 q 536 675 534 692 l 536 186 q 517 167 533 168 l 297 167 q 278 186 279 170 l 278 675 q 297 694 281 693 l 517 694 m 75 203 q 319 -14 77 -12 l 495 -14 q 739 203 738 -11 l 739 658 q 495 875 736 873 l 319 875 q 75 658 76 872 l 75 203 m 227 930 l 309 1157 l 488 1156 l 359 930 l 227 930 m 461 930 l 551 1157 l 734 1156 l 594 930 l 461 930 z "},"Ō":{"ha":814,"x_min":75,"x_max":739,"o":"m 517 694 q 536 675 534 692 l 536 186 q 517 167 533 168 l 297 167 q 278 186 279 170 l 278 675 q 297 694 281 693 l 517 694 m 75 203 q 319 -14 77 -12 l 495 -14 q 739 203 738 -11 l 739 658 q 495 875 736 873 l 319 875 q 75 658 76 872 l 75 203 m 601 1089 l 218 1089 l 218 954 l 601 954 l 601 1089 z "},"Ø":{"ha":814,"x_min":75,"x_max":739,"o":"m 590 936 l 559 871 q 495 875 528 875 l 319 875 q 75 658 76 872 l 75 203 q 153 28 76 81 l 102 -79 l 217 -79 l 251 -8 q 319 -14 279 -14 l 495 -14 q 739 203 738 -11 l 739 658 q 656 836 738 783 l 705 936 l 590 936 m 278 675 q 297 694 281 693 l 473 694 l 278 288 l 278 675 m 536 186 q 517 167 533 168 l 335 167 l 536 583 l 536 186 z "},"Õ":{"ha":814,"x_min":75,"x_max":739,"o":"m 517 694 q 536 675 534 692 l 536 186 q 517 167 533 168 l 297 167 q 278 186 279 170 l 278 675 q 297 694 281 693 l 517 694 m 75 203 q 319 -14 77 -12 l 495 -14 q 739 203 738 -11 l 739 658 q 495 875 736 873 l 319 875 q 75 658 76 872 l 75 203 m 298 947 q 330 1002 300 1001 q 415 972 345 1002 q 506 949 469 949 q 623 1131 621 952 l 509 1131 q 472 1077 503 1080 q 385 1107 453 1077 q 294 1130 330 1130 q 195 1047 216 1130 q 186 948 186 1006 l 298 947 z "},"P":{"ha":728,"x_min":95,"x_max":708,"o":"m 296 0 l 296 283 l 457 283 q 677 393 613 283 q 708 514 708 448 l 708 644 q 572 852 708 804 q 457 868 521 869 l 95 861 l 95 0 l 296 0 m 486 693 q 505 674 503 690 l 505 477 q 486 458 502 460 l 296 458 l 296 693 l 486 693 z "},"Q":{"ha":814,"x_min":75,"x_max":739,"o":"m 517 694 q 536 675 534 692 l 536 186 q 517 167 533 168 l 297 167 q 278 186 279 170 l 278 675 q 297 694 281 693 l 517 694 m 75 203 q 319 -14 77 -12 l 380 -14 l 410 -170 l 600 -170 l 557 -9 q 739 203 738 19 l 739 658 q 495 875 736 873 l 319 875 q 75 658 76 872 l 75 203 z "},"R":{"ha":774,"x_min":95,"x_max":747,"o":"m 296 0 l 296 308 l 430 308 q 450 293 445 308 q 453 286 452 290 l 547 0 l 747 0 l 663 239 q 591 336 636 309 q 711 517 701 391 q 712 540 712 529 l 712 644 q 576 852 712 804 q 461 868 525 869 l 95 861 l 95 0 l 296 0 m 490 693 q 509 674 507 690 l 509 500 q 490 481 506 483 l 296 481 l 296 693 l 490 693 z "},"Ŕ":{"ha":774,"x_min":95,"x_max":747,"o":"m 296 0 l 296 308 l 430 308 q 450 293 445 308 q 453 286 452 290 l 547 0 l 747 0 l 663 239 q 591 336 636 309 q 711 517 701 391 q 712 540 712 529 l 712 644 q 576 852 712 804 q 461 868 525 869 l 95 861 l 95 0 l 296 0 m 490 693 q 509 674 507 690 l 509 500 q 490 481 506 483 l 296 481 l 296 693 l 490 693 m 290 930 l 378 1157 l 567 1156 l 429 930 l 290 930 z "},"Ř":{"ha":774,"x_min":95,"x_max":747,"o":"m 296 0 l 296 308 l 430 308 q 450 293 445 308 q 453 286 452 290 l 547 0 l 747 0 l 663 239 q 591 336 636 309 q 711 517 701 391 q 712 540 712 529 l 712 644 q 576 852 712 804 q 461 868 525 869 l 95 861 l 95 0 l 296 0 m 490 693 q 509 674 507 690 l 509 500 q 490 481 506 483 l 296 481 l 296 693 l 490 693 m 270 937 l 461 937 l 600 1157 l 449 1157 l 368 1027 l 296 1157 l 140 1157 l 270 937 z "},"S":{"ha":665,"x_min":37,"x_max":631,"o":"m 259 524 q 240 543 241 526 l 240 667 q 259 686 243 685 l 598 686 l 598 861 l 288 868 q 54 743 107 872 q 37 644 37 699 l 37 570 q 174 359 37 408 q 288 342 224 342 l 408 342 q 427 323 426 339 l 427 194 q 408 175 425 176 l 58 175 l 58 0 l 380 -7 q 613 118 560 -11 q 631 217 631 163 l 631 296 q 494 506 631 457 q 380 524 444 524 l 259 524 z "},"Ś":{"ha":665,"x_min":37,"x_max":631,"o":"m 259 524 q 240 543 241 526 l 240 667 q 259 686 243 685 l 598 686 l 598 861 l 288 868 q 54 743 107 872 q 37 644 37 699 l 37 570 q 174 359 37 408 q 288 342 224 342 l 408 342 q 427 323 426 339 l 427 194 q 408 175 425 176 l 58 175 l 58 0 l 380 -7 q 613 118 560 -11 q 631 217 631 163 l 631 296 q 494 506 631 457 q 380 524 444 524 l 259 524 m 258 930 l 346 1157 l 534 1156 l 396 930 l 258 930 z "},"Š":{"ha":665,"x_min":37,"x_max":631,"o":"m 259 524 q 240 543 241 526 l 240 667 q 259 686 243 685 l 598 686 l 598 861 l 288 868 q 54 743 107 872 q 37 644 37 699 l 37 570 q 174 359 37 408 q 288 342 224 342 l 408 342 q 427 323 426 339 l 427 194 q 408 175 425 176 l 58 175 l 58 0 l 380 -7 q 613 118 560 -11 q 631 217 631 163 l 631 296 q 494 506 631 457 q 380 524 444 524 l 259 524 m 237 937 l 429 937 l 567 1157 l 416 1157 l 335 1027 l 263 1157 l 107 1157 l 237 937 z "},"T":{"ha":605,"x_min":7,"x_max":598,"o":"m 403 0 l 403 686 l 598 686 l 598 861 l 7 861 l 7 686 l 202 686 l 202 0 l 403 0 z "},"Ť":{"ha":605,"x_min":7,"x_max":598,"o":"m 403 0 l 403 686 l 598 686 l 598 861 l 7 861 l 7 686 l 202 686 l 202 0 l 403 0 m 212 924 l 403 924 l 541 1143 l 391 1143 l 309 1013 l 237 1143 l 81 1143 l 212 924 z "},"Þ":{"ha":774,"x_min":95,"x_max":713,"o":"m 296 0 l 296 156 l 463 156 q 682 266 618 156 q 713 387 713 320 l 713 510 q 564 720 713 678 q 463 734 518 734 l 296 734 l 296 861 l 95 861 l 95 0 l 296 0 m 491 559 q 510 540 509 556 l 510 350 q 491 331 507 332 l 296 331 l 296 559 l 491 559 z "},"U":{"ha":808,"x_min":75,"x_max":734,"o":"m 490 -14 q 734 203 732 -11 l 734 861 l 530 861 l 530 186 q 511 167 528 168 l 297 167 q 278 186 279 170 l 278 861 l 75 861 l 75 203 q 319 -14 77 -12 l 490 -14 z "},"Ú":{"ha":808,"x_min":75,"x_max":734,"o":"m 490 -14 q 734 203 732 -11 l 734 861 l 530 861 l 530 186 q 511 167 528 168 l 297 167 q 278 186 279 170 l 278 861 l 75 861 l 75 203 q 319 -14 77 -12 l 490 -14 m 334 930 l 422 1157 l 610 1156 l 472 930 l 334 930 z "},"Û":{"ha":808,"x_min":75,"x_max":734,"o":"m 490 -14 q 734 203 732 -11 l 734 861 l 530 861 l 530 186 q 511 167 528 168 l 297 167 q 278 186 279 170 l 278 861 l 75 861 l 75 203 q 319 -14 77 -12 l 490 -14 m 506 1150 l 315 1150 l 176 930 l 327 930 l 408 1061 l 480 930 l 636 930 l 506 1150 z "},"Ü":{"ha":808,"x_min":75,"x_max":734,"o":"m 490 -14 q 734 203 732 -11 l 734 861 l 530 861 l 530 186 q 511 167 528 168 l 297 167 q 278 186 279 170 l 278 861 l 75 861 l 75 203 q 319 -14 77 -12 l 490 -14 m 359 951 l 359 1112 l 203 1112 l 203 951 l 359 951 m 617 951 l 617 1112 l 461 1112 l 461 951 l 617 951 z "},"Ù":{"ha":808,"x_min":75,"x_max":734,"o":"m 490 -14 q 734 203 732 -11 l 734 861 l 530 861 l 530 186 q 511 167 528 168 l 297 167 q 278 186 279 170 l 278 861 l 75 861 l 75 203 q 319 -14 77 -12 l 490 -14 m 210 1156 l 396 1157 l 483 930 l 354 930 l 210 1156 z "},"Ű":{"ha":808,"x_min":75,"x_max":734,"o":"m 490 -14 q 734 203 732 -11 l 734 861 l 530 861 l 530 186 q 511 167 528 168 l 297 167 q 278 186 279 170 l 278 861 l 75 861 l 75 203 q 319 -14 77 -12 l 490 -14 m 221 930 l 304 1157 l 483 1156 l 354 930 l 221 930 m 456 930 l 545 1157 l 728 1156 l 589 930 l 456 930 z "},"Ū":{"ha":808,"x_min":75,"x_max":734,"o":"m 490 -14 q 734 203 732 -11 l 734 861 l 530 861 l 530 186 q 511 167 528 168 l 297 167 q 278 186 279 170 l 278 861 l 75 861 l 75 203 q 319 -14 77 -12 l 490 -14 m 595 1089 l 213 1089 l 213 954 l 595 954 l 595 1089 z "},"Ų":{"ha":808,"x_min":75,"x_max":734,"o":"m 525 -302 l 525 -180 l 419 -180 q 410 -171 411 -178 l 410 -136 q 420 -113 411 -123 l 498 -14 q 732 172 715 -14 q 734 203 734 189 l 734 861 l 530 861 l 530 186 q 511 167 528 168 l 297 167 q 278 186 279 170 l 278 861 l 75 861 l 75 203 q 319 -14 77 -12 l 372 -14 l 302 -77 q 267 -167 267 -110 l 267 -201 q 361 -300 267 -288 q 404 -302 381 -302 l 525 -302 z "},"Ů":{"ha":808,"x_min":75,"x_max":734,"o":"m 490 -14 q 734 203 732 -11 l 734 861 l 530 861 l 530 186 q 511 167 528 168 l 297 167 q 278 186 279 170 l 278 861 l 75 861 l 75 203 q 319 -14 77 -12 l 490 -14 m 566 1050 q 507 1183 566 1154 q 411 1199 472 1199 q 275 1141 302 1199 q 260 1050 260 1107 q 319 917 260 945 q 411 901 353 901 q 553 968 526 901 q 566 1050 566 1000 m 351 1050 q 376 1112 351 1103 q 411 1116 389 1116 q 471 1088 461 1116 q 475 1050 475 1073 q 442 987 475 997 q 411 983 429 983 q 354 1017 362 983 q 351 1050 351 1031 z "},"V":{"ha":736,"x_min":7,"x_max":731,"o":"m 570 156 l 731 861 l 543 861 l 400 194 q 381 175 393 176 l 334 175 l 205 861 l 7 861 l 178 0 l 393 -5 q 528 41 492 -8 q 570 156 551 75 z "},"W":{"ha":1123,"x_min":90,"x_max":1034,"o":"m 389 -14 q 549 69 519 -14 q 560 111 557 88 q 669 -8 574 11 q 731 -14 696 -14 l 859 -14 q 1023 76 993 -14 q 1034 156 1034 110 l 1031 861 l 831 861 l 834 186 q 815 167 831 168 l 674 167 q 655 186 656 170 l 655 861 l 465 861 l 465 186 q 446 167 463 168 l 308 167 q 289 186 290 170 l 289 861 l 90 861 l 90 156 q 184 -4 90 24 q 264 -14 218 -14 l 389 -14 z "},"X":{"ha":783,"x_min":-3,"x_max":785,"o":"m 434 537 q 412 519 425 519 l 377 519 q 355 537 362 522 l 227 861 l 16 861 l 140 562 q 217 441 176 468 q 231 433 224 437 q 159 339 194 412 q 142 304 152 324 l -3 0 l 198 0 l 346 327 q 368 345 357 345 l 403 345 q 425 327 418 342 l 574 0 l 785 0 l 639 302 q 566 418 594 393 q 548 430 556 425 q 620 524 586 450 q 637 560 628 538 l 774 861 l 575 861 l 434 537 z "},"Y":{"ha":755,"x_min":7,"x_max":746,"o":"m 473 0 l 473 300 q 559 365 529 312 q 591 441 572 391 l 746 861 l 547 861 l 416 486 q 395 468 410 468 l 366 468 q 345 486 350 471 l 217 861 l 7 861 l 156 442 q 235 320 190 349 q 273 304 252 309 l 273 0 l 473 0 z "},"Ý":{"ha":755,"x_min":7,"x_max":746,"o":"m 473 0 l 473 300 q 559 365 529 312 q 591 441 572 391 l 746 861 l 547 861 l 416 486 q 395 468 410 468 l 366 468 q 345 486 350 471 l 217 861 l 7 861 l 156 442 q 235 320 190 349 q 273 304 252 309 l 273 0 l 473 0 m 308 930 l 396 1157 l 585 1156 l 446 930 l 308 930 z "},"Ÿ":{"ha":755,"x_min":7,"x_max":746,"o":"m 473 0 l 473 300 q 559 365 529 312 q 591 441 572 391 l 746 861 l 547 861 l 416 486 q 395 468 410 468 l 366 468 q 345 486 350 471 l 217 861 l 7 861 l 156 442 q 235 320 190 349 q 273 304 252 309 l 273 0 l 473 0 m 334 951 l 334 1112 l 178 1112 l 178 951 l 334 951 m 591 951 l 591 1112 l 435 1112 l 435 951 l 591 951 z "},"Z":{"ha":659,"x_min":14,"x_max":655,"o":"m 631 161 l 278 161 q 264 178 262 161 q 269 189 266 184 l 655 701 q 543 861 655 844 q 511 864 526 864 l 57 863 l 57 700 l 395 701 q 411 685 412 701 q 407 675 410 680 l 14 148 q 104 3 14 26 q 142 -1 123 -1 l 629 -1 l 631 161 z "},"Ź":{"ha":659,"x_min":14,"x_max":655,"o":"m 631 161 l 278 161 q 264 178 262 161 q 269 189 266 184 l 655 701 q 543 861 655 844 q 511 864 526 864 l 57 863 l 57 700 l 395 701 q 411 685 412 701 q 407 675 410 680 l 14 148 q 104 3 14 26 q 142 -1 123 -1 l 629 -1 l 631 161 m 263 930 l 351 1157 l 540 1156 l 401 930 l 263 930 z "},"Ž":{"ha":659,"x_min":14,"x_max":655,"o":"m 631 161 l 278 161 q 264 178 262 161 q 269 189 266 184 l 655 701 q 543 861 655 844 q 511 864 526 864 l 57 863 l 57 700 l 395 701 q 411 685 412 701 q 407 675 410 680 l 14 148 q 104 3 14 26 q 142 -1 123 -1 l 629 -1 l 631 161 m 243 937 l 434 937 l 572 1157 l 422 1157 l 340 1027 l 269 1157 l 113 1157 l 243 937 z "},"Ż":{"ha":659,"x_min":14,"x_max":655,"o":"m 631 161 l 278 161 q 264 178 262 161 q 269 189 266 184 l 655 701 q 543 861 655 844 q 511 864 526 864 l 57 863 l 57 700 l 395 701 q 411 685 412 701 q 407 675 410 680 l 14 148 q 104 3 14 26 q 142 -1 123 -1 l 629 -1 l 631 161 m 415 945 l 415 1120 l 252 1120 l 252 945 l 415 945 z "},"a":{"ha":609,"x_min":34,"x_max":555,"o":"m 361 142 l 243 142 q 224 161 225 145 l 224 250 q 243 269 227 267 l 361 269 l 361 142 m 231 -14 q 365 106 349 -11 l 378 0 l 555 0 l 555 471 q 460 651 555 613 q 345 667 415 667 l 83 666 l 83 503 l 342 505 q 361 486 359 502 l 361 404 l 237 404 q 57 335 96 404 q 34 221 34 294 l 34 156 q 127 -3 34 26 q 210 -14 163 -14 l 231 -14 z "},"á":{"ha":609,"x_min":34,"x_max":555,"o":"m 361 142 l 243 142 q 224 161 225 145 l 224 250 q 243 269 227 267 l 361 269 l 361 142 m 231 -14 q 365 106 349 -11 l 378 0 l 555 0 l 555 471 q 460 651 555 613 q 345 667 415 667 l 83 666 l 83 503 l 342 505 q 361 486 359 502 l 361 404 l 237 404 q 57 335 96 404 q 34 221 34 294 l 34 156 q 127 -3 34 26 q 210 -14 163 -14 l 231 -14 m 240 747 l 328 974 l 517 972 l 378 747 l 240 747 z "},"ă":{"ha":609,"x_min":34,"x_max":555,"o":"m 361 142 l 243 142 q 224 161 225 145 l 224 250 q 243 269 227 267 l 361 269 l 361 142 m 231 -14 q 365 106 349 -11 l 378 0 l 555 0 l 555 471 q 460 651 555 613 q 345 667 415 667 l 83 666 l 83 503 l 342 505 q 361 486 359 502 l 361 404 l 237 404 q 57 335 96 404 q 34 221 34 294 l 34 156 q 127 -3 34 26 q 210 -14 163 -14 l 231 -14 m 133 948 q 191 781 133 822 q 334 749 239 749 q 507 827 471 749 q 526 948 526 871 l 410 948 q 369 868 410 882 q 334 863 354 863 q 252 920 262 863 q 251 948 251 932 l 133 948 z "},"â":{"ha":609,"x_min":34,"x_max":555,"o":"m 361 142 l 243 142 q 224 161 225 145 l 224 250 q 243 269 227 267 l 361 269 l 361 142 m 231 -14 q 365 106 349 -11 l 378 0 l 555 0 l 555 471 q 460 651 555 613 q 345 667 415 667 l 83 666 l 83 503 l 342 505 q 361 486 359 502 l 361 404 l 237 404 q 57 335 96 404 q 34 221 34 294 l 34 156 q 127 -3 34 26 q 210 -14 163 -14 l 231 -14 m 412 967 l 221 967 l 83 747 l 233 747 l 315 878 l 387 747 l 543 747 l 412 967 z "},"´":{"ha":446,"x_min":85,"x_max":362,"o":"m 85 747 l 174 974 l 362 972 l 224 747 l 85 747 z "},"ä":{"ha":609,"x_min":34,"x_max":555,"o":"m 361 142 l 243 142 q 224 161 225 145 l 224 250 q 243 269 227 267 l 361 269 l 361 142 m 231 -14 q 365 106 349 -11 l 378 0 l 555 0 l 555 471 q 460 651 555 613 q 345 667 415 667 l 83 666 l 83 503 l 342 505 q 361 486 359 502 l 361 404 l 237 404 q 57 335 96 404 q 34 221 34 294 l 34 156 q 127 -3 34 26 q 210 -14 163 -14 l 231 -14 m 266 768 l 266 929 l 110 929 l 110 768 l 266 768 m 524 768 l 524 929 l 368 929 l 368 768 l 524 768 z "},"æ":{"ha":925,"x_min":34,"x_max":878,"o":"m 553 503 q 572 522 556 521 l 669 522 q 688 503 686 519 l 688 382 l 553 382 l 553 503 m 857 -8 l 857 155 l 572 155 q 553 174 555 157 l 553 247 l 878 247 l 878 488 q 806 655 878 617 q 674 678 760 678 l 605 678 q 464 633 494 678 q 458 624 461 628 q 317 665 418 666 l 83 663 l 83 500 l 345 502 q 363 483 362 499 l 363 404 l 237 404 q 57 335 96 404 q 34 221 34 294 l 34 156 q 127 -3 34 26 q 210 -14 163 -14 l 241 -14 q 377 111 361 -11 q 605 -8 420 -7 l 857 -8 m 243 142 q 224 161 225 145 l 224 250 q 243 269 227 267 l 363 269 l 363 198 q 369 142 363 164 l 243 142 z "},"à":{"ha":609,"x_min":34,"x_max":555,"o":"m 361 142 l 243 142 q 224 161 225 145 l 224 250 q 243 269 227 267 l 361 269 l 361 142 m 231 -14 q 365 106 349 -11 l 378 0 l 555 0 l 555 471 q 460 651 555 613 q 345 667 415 667 l 83 666 l 83 503 l 342 505 q 361 486 359 502 l 361 404 l 237 404 q 57 335 96 404 q 34 221 34 294 l 34 156 q 127 -3 34 26 q 210 -14 163 -14 l 231 -14 m 117 972 l 302 974 l 389 747 l 260 747 l 117 972 z "},"ā":{"ha":609,"x_min":34,"x_max":555,"o":"m 361 142 l 243 142 q 224 161 225 145 l 224 250 q 243 269 227 267 l 361 269 l 361 142 m 231 -14 q 365 106 349 -11 l 378 0 l 555 0 l 555 471 q 460 651 555 613 q 345 667 415 667 l 83 666 l 83 503 l 342 505 q 361 486 359 502 l 361 404 l 237 404 q 57 335 96 404 q 34 221 34 294 l 34 156 q 127 -3 34 26 q 210 -14 163 -14 l 231 -14 m 502 906 l 119 906 l 119 770 l 502 770 l 502 906 z "},"&":{"ha":791,"x_min":68,"x_max":764,"o":"m 429 -7 q 663 130 617 -7 q 677 217 677 170 l 677 315 q 696 334 680 332 l 761 334 l 764 515 l 713 515 q 480 355 505 515 q 476 305 476 332 l 476 194 q 457 175 473 176 l 290 175 q 271 194 273 178 l 271 370 q 290 389 274 388 l 416 389 l 416 529 l 297 529 q 278 548 279 532 l 278 667 q 297 686 281 685 l 450 686 q 469 667 468 684 l 469 587 l 670 587 l 670 644 q 513 857 670 818 q 422 868 471 868 l 326 868 q 87 726 132 868 q 75 644 75 688 l 75 614 q 167 458 76 507 q 68 292 69 412 l 68 217 q 217 7 68 49 q 319 -7 263 -7 l 429 -7 z "},"ං":{"ha":566,"x_min":30,"x_max":524,"o":"m 103 24 q 30 94 31 27 l 30 528 q 100 605 30 597 q 114 605 107 605 l 449 605 q 524 526 522 602 l 524 99 q 465 26 524 33 q 448 24 456 24 l 103 24 m 198 439 l 198 195 q 229 170 203 171 l 327 170 q 355 197 354 172 l 355 439 q 326 467 346 464 l 227 467 q 198 439 199 464 z "},"ą":{"ha":609,"x_min":34,"x_max":575,"o":"m 361 142 l 243 142 q 224 161 225 145 l 224 250 q 243 269 227 267 l 361 269 l 361 142 m 231 -14 q 365 106 349 -11 l 378 0 l 433 0 l 353 -73 q 317 -163 317 -106 l 317 -197 q 411 -296 317 -283 q 454 -298 431 -298 l 575 -298 l 575 -176 l 469 -176 q 460 -167 461 -174 l 460 -132 q 471 -109 461 -119 l 555 0 l 555 471 q 460 651 555 613 q 345 667 415 667 l 83 666 l 83 503 l 342 505 q 361 486 359 502 l 361 404 l 237 404 q 57 335 96 404 q 34 221 34 294 l 34 156 q 127 -3 34 26 q 210 -14 163 -14 l 231 -14 z "},"≈":{"ha":616,"x_min":45,"x_max":571,"o":"m 168 397 q 212 452 175 450 q 321 414 233 452 q 434 382 396 382 q 566 515 544 382 q 571 604 571 555 l 449 604 q 399 532 446 533 q 286 570 377 532 q 171 602 209 602 q 54 495 77 602 q 45 397 46 454 l 168 397 m 167 125 q 212 198 168 197 q 321 160 233 198 q 434 129 396 129 q 564 259 543 129 q 571 334 570 292 l 449 334 q 399 278 442 279 q 286 316 377 278 q 171 349 209 349 q 54 243 79 349 q 45 126 45 197 l 167 125 z "},"å":{"ha":609,"x_min":34,"x_max":555,"o":"m 361 142 l 243 142 q 224 161 225 145 l 224 250 q 243 269 227 267 l 361 269 l 361 142 m 231 -14 q 365 106 349 -11 l 378 0 l 555 0 l 555 471 q 460 651 555 613 q 345 667 415 667 l 83 666 l 83 503 l 342 505 q 361 486 359 502 l 361 404 l 237 404 q 57 335 96 404 q 34 221 34 294 l 34 156 q 127 -3 34 26 q 210 -14 163 -14 l 231 -14 m 472 867 q 414 1000 472 971 q 317 1016 378 1016 q 182 958 209 1016 q 167 867 167 924 q 225 734 167 762 q 317 718 259 718 q 460 785 433 718 q 472 867 472 817 m 258 867 q 282 929 258 920 q 317 933 296 933 q 377 905 368 933 q 381 867 381 890 q 349 804 381 814 q 317 800 335 800 q 260 834 269 800 q 258 867 258 848 z "},"^":{"ha":685,"x_min":54,"x_max":631,"o":"m 279 916 l 54 444 l 199 444 l 342 769 l 484 444 l 631 444 l 404 916 l 279 916 z "},"~":{"ha":616,"x_min":45,"x_max":571,"o":"m 167 267 q 212 340 168 339 q 321 302 233 340 q 434 271 396 271 q 566 404 544 271 q 571 492 571 444 l 449 492 q 399 420 446 422 q 286 458 377 420 q 171 491 209 491 q 54 385 79 491 q 45 269 45 339 l 167 267 z "},"*":{"ha":507,"x_min":27,"x_max":480,"o":"m 220 559 l 254 659 l 210 689 l 126 627 l 77 557 l 172 490 l 220 559 m 430 559 l 380 625 l 296 689 l 254 659 l 288 559 l 338 492 l 430 559 m 400 689 l 480 716 l 444 826 l 365 800 l 279 739 l 296 689 l 400 689 m 279 739 l 312 838 l 311 922 l 194 922 l 194 837 l 228 739 l 279 739 m 210 689 l 228 739 l 142 799 l 64 825 l 27 713 l 106 688 l 210 689 z "},"@":{"ha":954,"x_min":81,"x_max":886,"o":"m 666 -68 l 666 54 l 243 54 q 224 73 225 57 l 224 680 q 243 699 227 697 l 724 699 q 743 680 742 696 l 743 262 q 724 243 741 244 l 685 243 q 666 262 667 245 l 666 613 l 467 617 q 293 499 311 621 q 290 461 290 480 l 290 277 q 422 134 293 136 l 445 134 q 524 216 511 134 q 525 221 525 218 q 604 140 534 153 q 677 134 632 134 l 723 134 q 867 194 837 134 q 886 297 886 231 l 886 604 q 642 821 883 819 l 326 821 q 81 604 83 818 l 81 149 q 326 -68 84 -66 l 666 -68 m 433 275 l 433 484 q 452 503 435 502 l 524 503 l 524 275 q 505 256 518 258 l 452 256 q 433 275 434 259 z "},"ã":{"ha":609,"x_min":34,"x_max":555,"o":"m 361 142 l 243 142 q 224 161 225 145 l 224 250 q 243 269 227 267 l 361 269 l 361 142 m 231 -14 q 365 106 349 -11 l 378 0 l 555 0 l 555 471 q 460 651 555 613 q 345 667 415 667 l 83 666 l 83 503 l 342 505 q 361 486 359 502 l 361 404 l 237 404 q 57 335 96 404 q 34 221 34 294 l 34 156 q 127 -3 34 26 q 210 -14 163 -14 l 231 -14 m 199 764 q 231 819 201 818 q 316 789 245 819 q 407 766 370 766 q 524 948 522 769 l 410 948 q 373 894 404 897 q 286 924 354 894 q 195 947 231 947 q 96 864 117 947 q 87 765 87 823 l 199 764 z "},"b":{"ha":661,"x_min":71,"x_max":606,"o":"m 403 -8 q 587 66 548 -12 q 606 175 606 107 l 606 509 q 513 667 606 639 q 430 678 477 678 l 396 678 q 264 576 286 677 l 264 916 l 71 916 l 71 0 l 403 -8 m 264 503 q 283 522 267 521 l 397 522 q 416 503 415 519 l 416 174 q 397 155 414 156 l 264 155 l 264 503 z "},"\\":{"ha":623,"x_min":7,"x_max":616,"o":"m 422 -130 l 616 -130 l 198 916 l 7 916 l 422 -130 z "},"|":{"ha":373,"x_min":109,"x_max":264,"o":"m 264 -81 l 264 916 l 109 916 l 109 -81 l 264 -81 z "},"{":{"ha":453,"x_min":54,"x_max":433,"o":"m 317 765 q 336 784 320 783 l 433 784 l 433 922 l 380 922 q 126 747 157 922 q 122 692 122 720 l 122 439 q 103 420 119 422 l 54 420 l 54 269 l 103 269 q 122 250 121 266 l 122 0 q 311 -225 122 -195 q 380 -231 343 -231 l 433 -231 l 433 -92 l 336 -92 q 317 -73 319 -90 l 317 183 q 191 342 317 316 q 168 345 179 343 q 316 477 301 358 q 317 506 317 492 l 317 765 z "},"}":{"ha":453,"x_min":20,"x_max":399,"o":"m 136 765 q 117 784 133 783 l 20 784 l 20 922 l 73 922 q 327 747 296 922 q 331 692 331 720 l 331 439 q 350 420 334 422 l 399 420 l 399 269 l 350 269 q 331 250 332 266 l 331 0 q 142 -225 331 -195 q 73 -231 110 -231 l 20 -231 l 20 -92 l 117 -92 q 136 -73 134 -90 l 136 183 q 262 342 136 316 q 285 345 274 343 q 137 477 152 358 q 136 506 136 492 l 136 765 z "},"[":{"ha":392,"x_min":68,"x_max":372,"o":"m 372 -231 l 372 -95 l 260 -95 l 260 787 l 372 787 l 372 922 l 68 922 l 68 -231 l 372 -231 z "},"]":{"ha":392,"x_min":20,"x_max":324,"o":"m 20 -231 l 20 -95 l 132 -95 l 132 787 l 20 787 l 20 922 l 324 922 l 324 -231 l 20 -231 z "},"˘":{"ha":472,"x_min":61,"x_max":454,"o":"m 61 948 q 119 781 61 822 q 262 749 167 749 q 435 827 399 749 q 454 948 454 871 l 338 948 q 297 868 338 882 q 262 863 282 863 q 180 920 190 863 q 179 948 179 932 l 61 948 z "},"¦":{"ha":373,"x_min":109,"x_max":264,"o":"m 264 -81 l 264 312 l 109 312 l 109 -81 l 264 -81 m 264 522 l 264 916 l 109 916 l 109 522 l 264 522 z "},"•":{"ha":401,"x_min":75,"x_max":327,"o":"m 75 315 q 163 217 75 225 q 187 216 175 216 l 214 216 q 326 296 317 216 q 327 315 327 305 l 327 433 q 248 529 327 518 q 214 532 233 532 l 187 532 q 76 458 88 532 q 75 433 75 446 l 75 315 z "},"c":{"ha":503,"x_min":54,"x_max":483,"o":"m 483 -14 l 483 149 l 267 149 q 248 168 250 152 l 248 496 q 267 515 251 514 l 483 515 l 483 678 l 285 678 q 69 572 110 678 q 54 475 54 532 l 54 190 q 167 3 54 39 q 285 -14 216 -14 l 483 -14 z "},"ć":{"ha":503,"x_min":54,"x_max":483,"o":"m 483 -14 l 483 149 l 267 149 q 248 168 250 152 l 248 496 q 267 515 251 514 l 483 515 l 483 678 l 285 678 q 69 572 110 678 q 54 475 54 532 l 54 190 q 167 3 54 39 q 285 -14 216 -14 l 483 -14 m 186 747 l 274 974 l 463 972 l 324 747 l 186 747 z "},"ˇ":{"ha":609,"x_min":72,"x_max":532,"o":"m 202 754 l 393 754 l 532 974 l 381 974 l 300 844 l 228 974 l 72 974 l 202 754 z "},"č":{"ha":503,"x_min":54,"x_max":529,"o":"m 483 -14 l 483 149 l 267 149 q 248 168 250 152 l 248 496 q 267 515 251 514 l 483 515 l 483 678 l 285 678 q 69 572 110 678 q 54 475 54 532 l 54 190 q 167 3 54 39 q 285 -14 216 -14 l 483 -14 m 199 754 l 391 754 l 529 974 l 378 974 l 297 844 l 225 974 l 69 974 l 199 754 z "},"ç":{"ha":503,"x_min":54,"x_max":483,"o":"m 483 -14 l 483 149 l 267 149 q 248 168 250 152 l 248 496 q 267 515 251 514 l 483 515 l 483 678 l 285 678 q 69 572 110 678 q 54 475 54 532 l 54 190 q 168 1 54 39 q 217 -9 191 -5 l 190 -140 l 300 -140 q 309 -149 308 -142 l 309 -190 q 300 -199 307 -198 l 176 -199 l 176 -298 l 296 -298 q 416 -190 415 -296 l 416 -138 q 332 -53 416 -61 q 308 -52 320 -52 l 298 -52 l 305 -14 l 483 -14 z "},"¸":{"ha":391,"x_min":73,"x_max":313,"o":"m 206 -190 q 197 -199 203 -198 l 73 -199 l 73 -298 l 193 -298 q 313 -190 312 -296 l 313 -138 q 229 -53 313 -61 q 205 -52 217 -52 l 195 -52 l 206 7 l 121 22 l 87 -140 l 197 -140 q 206 -149 205 -142 l 206 -190 z "},"¢":{"ha":510,"x_min":41,"x_max":476,"o":"m 476 95 l 476 258 l 254 258 q 235 277 236 260 l 235 591 q 254 610 237 609 l 476 610 l 476 773 l 357 773 l 357 907 l 210 907 l 210 769 q 47 640 73 754 q 41 570 41 608 l 41 298 q 152 111 41 149 q 210 99 178 103 l 210 -34 l 357 -34 l 357 95 l 476 95 z "},"ˆ":{"ha":609,"x_min":77,"x_max":537,"o":"m 407 967 l 216 967 l 77 747 l 228 747 l 309 878 l 381 747 l 537 747 l 407 967 z "},":":{"ha":298,"x_min":68,"x_max":231,"o":"m 231 27 l 231 210 l 68 210 l 68 27 l 231 27 m 231 380 l 231 563 l 68 563 l 68 380 l 231 380 z "},",":{"ha":264,"x_min":47,"x_max":210,"o":"m 47 3 l 102 3 q 50 -127 96 -58 l 107 -174 q 210 31 209 -75 l 210 183 l 47 183 l 47 3 z "},"©":{"ha":704,"x_min":75,"x_max":629,"o":"m 528 802 q 544 785 543 799 l 544 281 q 528 264 541 266 l 176 264 q 160 281 161 267 l 160 785 q 176 802 163 800 l 528 802 m 75 336 q 170 198 75 220 q 233 191 198 191 l 471 191 q 623 278 598 191 q 629 336 629 304 l 629 730 q 534 868 629 846 q 471 875 506 875 l 233 875 q 81 788 106 875 q 75 730 75 762 l 75 336 m 492 316 l 492 445 l 373 445 q 354 464 355 448 l 354 602 q 373 621 357 620 l 492 621 l 492 750 l 380 750 q 224 688 256 750 q 205 587 205 650 l 205 479 q 273 334 205 365 q 380 316 312 316 l 492 316 z "},"¤":{"ha":838,"x_min":34,"x_max":804,"o":"m 486 563 q 505 544 503 560 l 505 327 q 486 308 502 309 l 353 308 q 334 327 335 311 l 334 544 q 353 563 336 562 l 486 563 m 145 355 q 157 273 145 309 l 34 149 l 133 50 l 252 170 q 382 145 305 145 l 456 145 q 586 170 533 145 l 705 50 l 804 149 l 681 273 q 693 355 693 311 l 693 515 q 681 598 693 562 l 804 722 l 705 821 l 586 701 q 456 726 533 726 l 382 726 q 252 701 305 726 l 133 821 l 34 722 l 157 598 q 145 515 145 560 l 145 355 z "},"d":{"ha":658,"x_min":54,"x_max":590,"o":"m 396 916 l 396 669 l 258 669 q 77 600 117 669 q 54 486 54 559 l 54 156 q 148 -3 54 26 q 231 -14 183 -14 l 264 -14 q 399 106 382 -14 q 400 113 400 110 l 415 0 l 590 0 l 590 916 l 396 916 m 396 161 q 377 142 393 144 l 263 142 q 244 161 245 145 l 244 494 q 263 513 247 511 l 396 513 l 396 161 z "},"†":{"ha":564,"x_min":20,"x_max":544,"o":"m 321 0 l 342 326 l 342 481 l 309 608 l 258 608 l 224 483 l 224 324 l 245 0 l 321 0 m 145 587 l 244 620 l 244 671 l 146 705 l 20 705 l 20 589 l 145 587 m 544 589 l 544 705 l 419 705 l 321 671 l 321 620 l 420 587 l 544 589 m 309 685 l 342 784 l 340 922 l 224 922 l 224 783 l 258 685 l 309 685 z "},"‡":{"ha":564,"x_min":20,"x_max":544,"o":"m 309 294 l 342 420 l 342 488 l 309 614 l 258 614 l 224 490 l 224 419 l 258 294 l 309 294 m 340 -14 l 342 118 l 309 217 l 258 217 l 224 119 l 224 -14 l 340 -14 m 146 197 l 244 231 l 244 282 l 145 315 l 20 313 l 20 197 l 146 197 m 544 197 l 544 313 l 420 315 l 321 282 l 321 231 l 419 197 l 544 197 m 244 627 l 244 678 l 146 712 l 20 712 l 20 595 l 145 594 l 244 627 m 544 595 l 544 712 l 419 712 l 321 678 l 321 627 l 420 594 l 544 595 m 309 692 l 342 791 l 340 922 l 224 922 l 224 789 l 258 692 l 309 692 z "},"ď":{"ha":802,"x_min":54,"x_max":800,"o":"m 396 916 l 396 669 l 258 669 q 77 600 117 669 q 54 486 54 559 l 54 156 q 148 -3 54 26 q 231 -14 183 -14 l 264 -14 q 399 106 382 -14 q 400 113 400 110 l 415 0 l 590 0 l 590 916 l 396 916 m 396 161 q 377 142 393 144 l 263 142 q 244 161 245 145 l 244 494 q 263 513 247 511 l 396 513 l 396 161 m 652 753 l 701 753 q 654 635 696 697 l 705 593 q 799 779 799 684 l 799 916 l 652 916 l 652 753 z "},"đ":{"ha":658,"x_min":54,"x_max":644,"o":"m 396 916 l 396 849 l 281 849 l 281 727 l 396 727 l 396 669 l 258 669 q 77 600 117 669 q 54 486 54 559 l 54 156 q 148 -3 54 26 q 231 -14 183 -14 l 264 -14 q 399 106 382 -14 q 400 113 400 110 l 415 0 l 590 0 l 590 727 l 644 727 l 644 849 l 590 849 l 590 916 l 396 916 m 396 161 q 377 142 393 144 l 263 142 q 244 161 245 145 l 244 494 q 263 513 247 511 l 396 513 l 396 161 z "},"°":{"ha":441,"x_min":27,"x_max":414,"o":"m 27 562 q 126 437 27 453 q 170 434 146 434 l 271 434 q 411 526 395 434 q 414 562 414 544 l 414 746 q 317 871 414 854 q 271 875 296 875 l 170 875 q 30 784 46 875 q 27 746 27 766 l 27 562 m 255 750 q 274 731 273 747 l 274 578 q 255 559 271 560 l 186 559 q 167 578 168 562 l 167 731 q 186 750 170 749 l 255 750 z "},"¨":{"ha":536,"x_min":68,"x_max":481,"o":"m 224 768 l 224 929 l 68 929 l 68 768 l 224 768 m 481 768 l 481 929 l 326 929 l 326 768 l 481 768 z "},"÷":{"ha":716,"x_min":61,"x_max":655,"o":"m 655 324 l 655 460 l 61 460 l 61 324 l 655 324 m 435 41 l 435 216 l 281 216 l 281 41 l 435 41 m 435 568 l 435 743 l 281 743 l 281 568 l 435 568 z "},"$":{"ha":665,"x_min":43,"x_max":605,"o":"m 266 507 q 247 526 248 510 l 247 613 q 266 632 250 631 l 576 632 l 576 807 l 414 811 l 414 945 l 254 945 l 254 812 q 54 669 92 802 q 43 590 43 632 l 43 553 q 180 343 43 392 q 294 326 231 326 l 382 326 q 401 307 400 323 l 401 214 q 382 195 399 197 l 65 195 l 65 20 l 254 16 l 254 -115 l 414 -115 l 414 16 q 597 168 564 35 q 605 237 605 201 l 605 286 q 407 505 605 484 q 361 507 384 507 l 266 507 z "},"˙":{"ha":271,"x_min":54,"x_max":217,"o":"m 217 762 l 217 937 l 54 937 l 54 762 l 217 762 z "},"ı":{"ha":350,"x_min":79,"x_max":271,"o":"m 271 0 l 271 665 l 79 665 l 79 0 l 271 0 z "},"◌":{"ha":757,"x_min":53,"x_max":692,"o":"m 130 132 q 175 174 138 170 q 218 138 213 174 q 218 129 218 133 q 175 87 212 90 q 132 119 137 87 q 130 132 130 126 m 73 222 q 117 266 83 262 q 159 231 155 266 q 159 221 159 225 q 115 178 149 182 q 73 210 80 178 q 73 222 73 217 m 220 73 q 252 114 220 107 q 263 115 258 115 q 305 80 301 115 q 305 71 305 76 q 273 30 305 37 q 262 28 267 28 q 220 61 224 28 q 220 73 220 68 m 323 52 q 366 94 332 90 q 408 61 401 94 q 408 49 408 54 q 365 7 399 11 q 323 42 327 7 q 323 52 323 47 m 54 326 q 88 368 54 362 q 98 369 94 369 q 141 334 136 369 q 141 324 141 330 q 98 282 132 286 q 56 315 61 282 q 54 326 54 320 m 71 433 q 115 476 79 473 q 156 444 152 476 q 156 431 156 437 q 115 388 149 391 q 71 423 76 388 q 71 433 71 429 m 430 73 q 463 114 430 107 q 473 115 468 115 q 515 80 511 115 q 515 71 515 75 q 483 30 515 37 q 472 28 477 28 q 430 61 434 28 q 430 73 430 68 m 138 521 q 183 563 145 562 q 225 530 220 563 q 225 519 225 525 q 180 477 217 481 q 140 510 145 477 q 138 521 138 515 m 521 132 q 564 174 530 170 q 606 138 602 174 q 606 129 606 134 q 572 88 605 94 q 563 87 567 87 q 521 119 525 87 q 521 132 521 126 m 228 581 q 273 624 235 621 q 315 589 311 624 q 315 579 315 583 q 281 537 315 543 q 271 536 275 536 q 228 571 233 536 q 228 581 228 575 m 581 222 q 616 264 582 259 q 625 266 621 266 q 669 231 663 266 q 669 221 669 225 q 623 178 662 179 q 581 210 585 178 q 581 222 581 217 m 334 601 q 377 644 343 640 q 419 609 415 644 q 419 600 419 604 q 376 556 415 557 q 334 589 340 556 q 334 601 334 595 m 604 326 q 637 368 604 362 q 647 369 643 369 q 690 334 685 369 q 690 324 690 328 q 647 282 681 286 q 605 315 610 282 q 604 326 604 320 m 438 581 q 483 624 445 621 q 525 589 521 624 q 525 579 525 583 q 491 537 525 543 q 481 536 486 536 q 438 571 444 536 q 438 581 438 575 m 585 430 q 629 473 591 471 q 673 438 667 473 q 673 429 673 433 q 637 387 671 392 q 628 385 632 385 q 585 420 590 385 q 585 430 585 426 m 526 521 q 571 563 534 559 q 614 529 609 563 q 614 519 614 524 q 570 477 606 481 q 526 514 529 477 q 526 521 526 517 z "},"e":{"ha":621,"x_min":54,"x_max":574,"o":"m 553 -8 l 553 155 l 266 155 q 247 174 248 157 l 247 247 l 574 247 l 574 488 q 502 655 574 617 q 370 678 456 678 l 258 678 q 79 610 119 678 q 54 488 54 567 l 54 195 q 167 8 54 45 q 285 -8 216 -8 l 553 -8 m 247 503 q 266 522 250 521 l 365 522 q 384 503 382 519 l 384 382 l 247 382 l 247 503 z "},"é":{"ha":621,"x_min":54,"x_max":574,"o":"m 553 -8 l 553 155 l 266 155 q 247 174 248 157 l 247 247 l 574 247 l 574 488 q 502 655 574 617 q 370 678 456 678 l 258 678 q 79 610 119 678 q 54 488 54 567 l 54 195 q 167 8 54 45 q 285 -8 216 -8 l 553 -8 m 247 503 q 266 522 250 521 l 365 522 q 384 503 382 519 l 384 382 l 247 382 l 247 503 m 241 747 l 330 974 l 518 972 l 380 747 l 241 747 z "},"ě":{"ha":621,"x_min":54,"x_max":574,"o":"m 553 -8 l 553 155 l 266 155 q 247 174 248 157 l 247 247 l 574 247 l 574 488 q 502 655 574 617 q 370 678 456 678 l 258 678 q 79 610 119 678 q 54 488 54 567 l 54 195 q 167 8 54 45 q 285 -8 216 -8 l 553 -8 m 247 503 q 266 522 250 521 l 365 522 q 384 503 382 519 l 384 382 l 247 382 l 247 503 m 221 754 l 412 754 l 551 974 l 400 974 l 319 844 l 247 974 l 91 974 l 221 754 z "},"ê":{"ha":621,"x_min":54,"x_max":574,"o":"m 553 -8 l 553 155 l 266 155 q 247 174 248 157 l 247 247 l 574 247 l 574 488 q 502 655 574 617 q 370 678 456 678 l 258 678 q 79 610 119 678 q 54 488 54 567 l 54 195 q 167 8 54 45 q 285 -8 216 -8 l 553 -8 m 247 503 q 266 522 250 521 l 365 522 q 384 503 382 519 l 384 382 l 247 382 l 247 503 m 414 967 l 222 967 l 84 747 l 235 747 l 316 878 l 388 747 l 544 747 l 414 967 z "},"ë":{"ha":621,"x_min":54,"x_max":574,"o":"m 553 -8 l 553 155 l 266 155 q 247 174 248 157 l 247 247 l 574 247 l 574 488 q 502 655 574 617 q 370 678 456 678 l 258 678 q 79 610 119 678 q 54 488 54 567 l 54 195 q 167 8 54 45 q 285 -8 216 -8 l 553 -8 m 247 503 q 266 522 250 521 l 365 522 q 384 503 382 519 l 384 382 l 247 382 l 247 503 m 267 768 l 267 929 l 111 929 l 111 768 l 267 768 m 525 768 l 525 929 l 369 929 l 369 768 l 525 768 z "},"ė":{"ha":621,"x_min":54,"x_max":574,"o":"m 553 -8 l 553 155 l 266 155 q 247 174 248 157 l 247 247 l 574 247 l 574 488 q 502 655 574 617 q 370 678 456 678 l 258 678 q 79 610 119 678 q 54 488 54 567 l 54 195 q 167 8 54 45 q 285 -8 216 -8 l 553 -8 m 247 503 q 266 522 250 521 l 365 522 q 384 503 382 519 l 384 382 l 247 382 l 247 503 m 393 762 l 393 937 l 231 937 l 231 762 l 393 762 z "},"è":{"ha":621,"x_min":54,"x_max":574,"o":"m 553 -8 l 553 155 l 266 155 q 247 174 248 157 l 247 247 l 574 247 l 574 488 q 502 655 574 617 q 370 678 456 678 l 258 678 q 79 610 119 678 q 54 488 54 567 l 54 195 q 167 8 54 45 q 285 -8 216 -8 l 553 -8 m 247 503 q 266 522 250 521 l 365 522 q 384 503 382 519 l 384 382 l 247 382 l 247 503 m 118 972 l 304 974 l 391 747 l 262 747 l 118 972 z "},"…":{"ha":799,"x_min":54,"x_max":746,"o":"m 473 0 l 473 167 l 326 167 l 326 0 l 473 0 m 745 0 l 745 167 l 597 167 l 597 0 l 745 0 m 202 0 l 202 167 l 54 167 l 54 0 l 202 0 z "},"ē":{"ha":621,"x_min":54,"x_max":574,"o":"m 553 -8 l 553 155 l 266 155 q 247 174 248 157 l 247 247 l 574 247 l 574 488 q 502 655 574 617 q 370 678 456 678 l 258 678 q 79 610 119 678 q 54 488 54 567 l 54 195 q 167 8 54 45 q 285 -8 216 -8 l 553 -8 m 247 503 q 266 522 250 521 l 365 522 q 384 503 382 519 l 384 382 l 247 382 l 247 503 m 503 906 l 121 906 l 121 770 l 503 770 l 503 906 z "},"—":{"ha":949,"x_min":-1,"x_max":951,"o":"m 951 473 l -1 473 l -1 317 l 951 317 l 951 473 z "},"–":{"ha":600,"x_min":27,"x_max":572,"o":"m 572 473 l 27 473 l 27 317 l 572 317 l 572 473 z "},"ę":{"ha":621,"x_min":54,"x_max":574,"o":"m 553 -8 l 553 155 l 266 155 q 247 174 248 157 l 247 247 l 574 247 l 574 488 q 502 655 574 617 q 370 678 456 678 l 258 678 q 79 610 119 678 q 54 488 54 567 l 54 195 q 167 8 54 45 q 285 -8 216 -8 l 431 -8 l 351 -81 q 316 -171 316 -114 l 316 -205 q 410 -304 316 -292 q 453 -307 430 -307 l 574 -307 l 574 -184 l 468 -184 q 458 -175 460 -182 l 458 -140 q 469 -117 460 -127 l 553 -8 m 247 503 q 266 522 250 521 l 365 522 q 384 503 382 519 l 384 382 l 247 382 l 247 503 z "},"=":{"ha":732,"x_min":61,"x_max":671,"o":"m 671 555 l 61 555 l 61 419 l 671 419 l 671 555 m 671 286 l 61 286 l 61 151 l 671 151 l 671 286 z "},"℮":{"ha":666,"x_min":47,"x_max":618,"o":"m 197 73 l 197 347 l 618 347 q 496 627 618 537 q 342 677 426 677 q 102 537 183 677 q 47 330 47 445 q 140 69 47 168 q 334 -14 218 -14 q 537 64 446 -14 q 576 103 560 83 l 549 130 q 368 30 481 43 q 334 27 350 27 q 197 73 255 28 m 467 600 l 467 388 l 197 388 l 197 586 q 343 637 262 637 q 467 600 415 636 z "},"ð":{"ha":648,"x_min":54,"x_max":662,"o":"m 363 -14 q 572 85 532 -14 q 590 190 590 127 l 590 734 q 586 788 590 764 l 662 823 l 628 905 l 555 871 q 380 930 506 932 l 163 929 l 163 789 l 376 791 l 254 735 l 290 652 l 399 703 l 399 624 l 278 624 q 73 530 114 624 q 54 420 54 487 l 54 190 q 167 3 54 39 q 285 -14 216 -14 l 363 -14 m 245 168 l 245 463 q 264 481 248 480 l 400 481 l 400 168 q 381 149 397 151 l 264 149 q 245 168 247 152 z "},"!":{"ha":355,"x_min":92,"x_max":290,"o":"m 247 293 l 290 678 l 290 875 l 92 875 l 92 678 l 136 293 l 247 293 m 283 0 l 283 205 l 99 205 l 99 0 l 283 0 z "},"¡":{"ha":349,"x_min":85,"x_max":283,"o":"m 129 372 l 85 -14 l 85 -210 l 283 -210 l 283 -14 l 240 372 l 129 372 m 92 665 l 92 460 l 277 460 l 277 665 l 92 665 z "},"f":{"ha":435,"x_min":26,"x_max":463,"o":"m 463 765 l 463 928 l 304 929 q 113 841 152 930 q 94 732 94 798 l 94 665 l 26 665 l 26 515 l 94 515 l 94 0 l 286 0 l 286 515 l 435 515 l 435 665 l 286 665 l 286 747 q 305 766 289 765 l 463 765 z "},"ﬁ":{"ha":769,"x_min":16,"x_max":690,"o":"m 690 0 l 690 665 l 498 665 l 498 0 l 690 0 m 418 515 l 418 665 l 290 665 l 290 747 q 309 766 293 765 l 439 765 l 439 928 l 308 929 q 117 841 156 930 q 98 732 98 798 l 98 665 l 16 665 l 16 515 l 98 515 l 98 0 l 290 0 l 290 515 l 418 515 m 690 765 l 690 928 l 498 928 l 498 765 l 690 765 z "},"ﬂ":{"ha":769,"x_min":16,"x_max":694,"o":"m 434 515 l 434 665 l 283 665 l 283 747 q 302 766 286 765 l 439 765 l 439 928 l 301 929 q 110 841 149 930 q 91 732 91 798 l 91 665 l 16 665 l 16 515 l 91 515 l 91 0 l 283 0 l 283 515 l 434 515 m 694 0 l 694 916 l 502 916 l 502 0 l 694 0 z "},"ƒ":{"ha":568,"x_min":8,"x_max":547,"o":"m 113 -258 q 290 -186 247 -259 q 323 -61 316 -142 l 363 420 l 495 420 l 495 570 l 377 570 l 391 747 q 410 766 395 765 l 547 765 l 547 928 l 408 929 q 229 856 273 930 q 198 732 205 811 l 184 570 l 106 570 l 106 420 l 171 420 l 130 -76 q 111 -95 126 -94 l 8 -94 l 8 -256 l 113 -258 z "},"⁴":{"ha":552,"x_min":16,"x_max":525,"o":"m 437 338 l 437 441 l 525 441 l 525 570 l 437 570 l 437 865 l 274 869 q 180 830 212 871 q 151 783 168 814 l 16 543 l 16 441 l 279 441 l 279 338 l 437 338 m 263 727 q 278 736 270 736 l 279 736 l 279 570 l 171 570 l 263 727 z "},"⁄":{"ha":654,"x_min":3,"x_max":651,"o":"m 499 875 l 3 -14 l 156 -14 l 651 875 l 499 875 z "},"g":{"ha":650,"x_min":54,"x_max":590,"o":"m 396 161 q 377 142 393 144 l 263 142 q 244 161 245 145 l 244 487 q 263 506 247 505 l 396 506 l 396 161 m 377 -111 l 85 -111 l 85 -271 l 359 -271 q 575 -165 534 -271 q 590 -68 590 -125 l 590 665 l 258 669 q 76 598 115 670 q 54 486 54 557 l 54 156 q 148 -3 54 26 q 231 -14 183 -14 l 264 -14 q 396 88 374 -12 l 396 -92 q 377 -111 393 -110 z "},"ğ":{"ha":650,"x_min":54,"x_max":590,"o":"m 396 161 q 377 142 393 144 l 263 142 q 244 161 245 145 l 244 487 q 263 506 247 505 l 396 506 l 396 161 m 377 -111 l 85 -111 l 85 -271 l 359 -271 q 575 -165 534 -271 q 590 -68 590 -125 l 590 665 l 258 669 q 76 598 115 670 q 54 486 54 557 l 54 156 q 148 -3 54 26 q 231 -14 183 -14 l 264 -14 q 396 88 374 -12 l 396 -92 q 377 -111 393 -110 m 148 948 q 206 781 148 822 q 349 749 254 749 q 522 827 486 749 q 541 948 541 871 l 425 948 q 384 868 425 882 q 349 863 369 863 q 267 920 277 863 q 266 948 266 932 l 148 948 z "},"ß":{"ha":726,"x_min":34,"x_max":685,"o":"m 434 -7 q 673 136 628 -7 q 685 217 685 174 l 685 279 q 579 450 684 406 q 665 602 663 499 l 665 644 q 515 854 665 812 q 414 868 469 868 l 351 868 q 117 742 170 868 q 100 665 103 705 l 34 665 l 34 515 l 100 515 l 100 0 l 293 0 l 293 686 q 312 705 296 704 l 452 705 q 471 686 469 703 l 471 538 q 442 519 469 521 l 361 519 l 361 363 l 472 363 q 491 345 490 361 l 491 175 q 472 156 488 157 l 361 156 l 361 -7 l 434 -7 z "},"`":{"ha":460,"x_min":28,"x_max":301,"o":"m 28 972 l 214 974 l 301 747 l 172 747 l 28 972 z "},">":{"ha":635,"x_min":54,"x_max":594,"o":"m 594 472 l 54 731 l 54 571 l 425 408 l 54 245 l 54 87 l 594 347 l 594 472 z "},"≥":{"ha":648,"x_min":54,"x_max":594,"o":"m 594 499 l 54 718 l 54 560 l 411 435 l 54 311 l 54 155 l 594 374 l 594 499 m 581 134 l 54 134 l 54 -1 l 581 -1 l 581 134 z "},"«":{"ha":637,"x_min":37,"x_max":605,"o":"m 49 326 l 180 104 l 332 104 l 218 335 q 218 357 214 347 l 336 586 l 191 586 l 49 362 q 47 328 37 345 q 49 326 49 327 m 317 326 l 445 104 l 601 104 l 487 335 q 487 357 483 347 l 605 586 l 456 586 l 317 362 q 316 328 305 345 q 317 326 317 327 z "},"»":{"ha":639,"x_min":31,"x_max":600,"o":"m 587 365 l 456 586 l 304 586 l 418 355 q 418 334 422 343 l 300 104 l 445 104 l 587 328 q 589 362 600 346 q 587 365 587 363 m 319 365 l 191 586 l 35 586 l 149 355 q 149 334 153 343 l 31 104 l 180 104 l 319 328 q 320 362 331 346 q 319 365 319 363 z "},"‹":{"ha":391,"x_min":34,"x_max":358,"o":"m 46 326 l 178 104 l 354 104 l 240 335 q 240 357 236 347 l 358 586 l 189 586 l 46 362 q 45 328 34 345 q 46 326 46 327 z "},"›":{"ha":391,"x_min":33,"x_max":357,"o":"m 345 365 l 213 586 l 37 586 l 151 355 q 151 334 155 343 l 33 104 l 202 104 l 345 328 q 346 362 357 346 q 345 365 345 363 z "},"h":{"ha":648,"x_min":58,"x_max":594,"o":"m 382 678 q 251 582 275 677 l 251 916 l 58 916 l 61 0 l 254 0 l 251 503 q 270 522 254 521 l 382 522 q 401 503 400 519 l 401 0 l 594 0 l 594 509 q 500 667 594 639 q 418 678 465 678 l 382 678 z "},"˝":{"ha":623,"x_min":94,"x_max":601,"o":"m 94 747 l 176 974 l 355 972 l 227 747 l 94 747 m 328 747 l 418 974 l 601 972 l 461 747 l 328 747 z "},"-":{"ha":444,"x_min":34,"x_max":410,"o":"m 410 473 l 34 473 l 34 317 l 410 317 l 410 473 z "},"i":{"ha":345,"x_min":76,"x_max":269,"o":"m 269 0 l 269 665 l 76 665 l 76 0 l 269 0 m 269 749 l 269 911 l 76 911 l 76 749 l 269 749 z "},"í":{"ha":350,"x_min":79,"x_max":381,"o":"m 271 0 l 271 665 l 79 665 l 79 0 l 271 0 m 104 747 l 193 974 l 381 972 l 243 747 l 104 747 z "},"î":{"ha":350,"x_min":-53,"x_max":407,"o":"m 271 0 l 271 665 l 79 665 l 79 0 l 271 0 m 277 967 l 85 967 l -53 747 l 98 747 l 179 878 l 251 747 l 407 747 l 277 967 z "},"ï":{"ha":350,"x_min":-26,"x_max":388,"o":"m 271 0 l 271 665 l 79 665 l 79 0 l 271 0 m 130 768 l 130 929 l -26 929 l -26 768 l 130 768 m 388 768 l 388 929 l 232 929 l 232 768 l 388 768 z "},"ì":{"ha":350,"x_min":-19,"x_max":271,"o":"m 271 0 l 271 665 l 79 665 l 79 0 l 271 0 m -19 972 l 167 974 l 254 747 l 125 747 l -19 972 z "},"ī":{"ha":350,"x_min":12,"x_max":338,"o":"m 271 0 l 271 665 l 79 665 l 79 0 l 271 0 m 338 906 l 12 906 l 12 770 l 338 770 l 338 906 z "},"∞":{"ha":1082,"x_min":41,"x_max":1042,"o":"m 233 279 q 216 296 217 282 l 216 434 q 233 450 218 449 l 361 450 q 380 438 370 450 q 382 434 381 435 l 445 355 l 396 296 q 374 279 381 281 l 233 279 m 849 119 q 1032 236 1001 119 q 1042 316 1042 271 l 1042 414 q 913 605 1042 579 q 849 610 883 610 l 760 610 q 614 557 667 610 q 560 494 602 544 l 551 483 l 549 484 q 458 581 488 562 q 335 610 412 610 l 233 610 q 69 551 107 610 q 41 414 41 506 l 41 316 q 102 146 41 184 q 233 119 145 119 l 334 119 q 469 176 415 119 q 529 245 480 187 l 530 247 l 540 236 q 633 142 600 161 q 751 119 675 119 l 849 119 m 735 279 q 697 300 712 281 l 637 374 l 684 430 q 722 450 704 450 l 849 450 q 867 434 865 448 l 867 296 q 849 279 864 281 l 735 279 z "},"∫":{"ha":540,"x_min":14,"x_max":513,"o":"m 163 712 l 163 -72 q 144 -91 160 -90 l 14 -91 l 14 -271 l 122 -271 q 363 -54 362 -269 l 363 730 q 382 749 366 747 l 513 749 l 513 929 l 404 929 q 163 712 164 926 z "},"į":{"ha":350,"x_min":34,"x_max":292,"o":"m 271 0 l 271 665 l 79 665 l 79 0 l 149 0 l 69 -73 q 34 -163 34 -106 l 34 -197 q 127 -296 34 -283 q 171 -298 148 -298 l 292 -298 l 292 -176 l 186 -176 q 176 -167 178 -174 l 176 -132 q 187 -109 178 -119 l 271 0 m 256 762 l 256 937 l 94 937 l 94 762 l 256 762 z "},"j":{"ha":321,"x_min":-45,"x_max":260,"o":"m 260 749 l 260 911 l 68 911 l 68 749 l 260 749 m 49 -109 l -45 -109 l -45 -271 l 30 -271 q 245 -165 205 -271 q 260 -68 260 -125 l 260 665 l 68 665 l 68 -90 q 49 -109 65 -107 z "},"k":{"ha":659,"x_min":68,"x_max":656,"o":"m 368 267 q 388 248 382 264 l 458 0 l 656 0 l 591 220 q 525 343 562 317 q 499 357 513 351 q 556 477 532 384 l 606 665 l 414 665 l 359 449 q 339 430 353 431 l 258 430 l 258 916 l 68 916 l 68 0 l 258 0 l 258 267 l 368 267 z "},"l":{"ha":342,"x_min":75,"x_max":267,"o":"m 267 0 l 267 916 l 75 916 l 75 0 l 267 0 z "},"ĺ":{"ha":342,"x_min":75,"x_max":363,"o":"m 267 0 l 267 916 l 75 916 l 75 0 l 267 0 m 87 967 l 175 1194 l 363 1192 l 225 967 l 87 967 z "},"ľ":{"ha":479,"x_min":75,"x_max":477,"o":"m 267 0 l 267 916 l 75 916 l 75 0 l 267 0 m 330 753 l 378 753 q 331 635 373 697 l 382 593 q 476 779 476 684 l 476 916 l 330 916 l 330 753 z "},"<":{"ha":621,"x_min":27,"x_max":567,"o":"m 27 319 l 567 60 l 567 220 l 197 382 l 567 545 l 567 704 l 27 444 l 27 319 z "},"≤":{"ha":648,"x_min":54,"x_max":594,"o":"m 54 373 l 594 155 l 594 312 l 237 437 l 594 562 l 594 718 l 54 498 l 54 373 m 594 134 l 54 134 l 54 -1 l 594 -1 l 594 134 z "},"¬":{"ha":753,"x_min":54,"x_max":692,"o":"m 692 473 l 54 473 l 54 338 l 536 338 l 536 159 l 692 159 l 692 473 z "},"◊":{"ha":716,"x_min":14,"x_max":703,"o":"m 415 -5 l 703 429 l 427 867 l 304 867 l 14 422 l 297 -5 l 415 -5 m 358 199 l 212 429 l 358 661 l 509 427 l 358 199 z "},"ł":{"ha":355,"x_min":-14,"x_max":369,"o":"m 271 0 l 271 420 l 369 456 l 331 570 l 271 548 l 271 916 l 79 916 l 79 479 l -14 445 l 24 330 l 79 350 l 79 0 l 271 0 z "},"m":{"ha":954,"x_min":61,"x_max":910,"o":"m 385 678 q 250 559 266 675 l 236 665 l 61 665 l 64 0 l 256 0 l 254 503 q 273 522 256 521 l 372 522 q 391 503 389 519 l 391 0 l 583 0 l 583 503 q 602 522 586 521 l 699 522 q 718 503 716 519 l 718 0 l 910 0 l 910 509 q 817 667 910 639 q 734 678 781 678 l 715 678 q 579 562 598 675 q 454 675 562 661 q 407 678 431 678 l 385 678 z "},"¯":{"ha":491,"x_min":54,"x_max":437,"o":"m 437 906 l 54 906 l 54 770 l 437 770 l 437 906 z "},"−":{"ha":746,"x_min":61,"x_max":685,"o":"m 685 473 l 61 473 l 61 338 l 685 338 l 685 473 z "},"×":{"ha":662,"x_min":61,"x_max":601,"o":"m 503 670 l 332 499 l 160 671 l 61 572 l 233 400 l 62 229 l 159 133 l 330 304 l 502 132 l 601 231 l 429 403 l 600 574 l 503 670 z "},"n":{"ha":658,"x_min":68,"x_max":604,"o":"m 392 678 q 256 559 273 675 l 243 665 l 68 665 l 71 0 l 263 0 l 260 503 q 279 522 263 521 l 392 522 q 411 503 410 519 l 411 0 l 604 0 l 604 509 q 510 667 604 639 q 427 678 475 678 l 392 678 z "},"ń":{"ha":658,"x_min":68,"x_max":604,"o":"m 392 678 q 256 559 273 675 l 243 665 l 68 665 l 71 0 l 263 0 l 260 503 q 279 522 263 521 l 392 522 q 411 503 410 519 l 411 0 l 604 0 l 604 509 q 510 667 604 639 q 427 678 475 678 l 392 678 m 273 747 l 361 974 l 549 972 l 411 747 l 273 747 z "},"ň":{"ha":658,"x_min":68,"x_max":604,"o":"m 392 678 q 256 559 273 675 l 243 665 l 68 665 l 71 0 l 263 0 l 260 503 q 279 522 263 521 l 392 522 q 411 503 410 519 l 411 0 l 604 0 l 604 509 q 510 667 604 639 q 427 678 475 678 l 392 678 m 245 754 l 437 754 l 575 974 l 425 974 l 343 844 l 271 974 l 115 974 l 245 754 z "},"≠":{"ha":732,"x_min":61,"x_max":671,"o":"m 427 703 l 368 555 l 61 555 l 61 419 l 313 419 l 260 286 l 61 286 l 61 151 l 206 151 l 146 0 l 294 0 l 354 151 l 671 151 l 671 286 l 408 286 l 460 419 l 671 419 l 671 555 l 514 555 l 572 703 l 427 703 z "},"ñ":{"ha":658,"x_min":68,"x_max":604,"o":"m 392 678 q 256 559 273 675 l 243 665 l 68 665 l 71 0 l 263 0 l 260 503 q 279 522 263 521 l 392 522 q 411 503 410 519 l 411 0 l 604 0 l 604 509 q 510 667 604 639 q 427 678 475 678 l 392 678 m 232 764 q 263 819 233 818 q 349 789 278 819 q 439 766 403 766 q 556 948 555 769 l 442 948 q 406 894 437 897 q 319 924 387 894 q 228 947 263 947 q 129 864 149 947 q 119 765 119 823 l 232 764 z "},"#":{"ha":715,"x_min":20,"x_max":694,"o":"m 72 0 l 214 0 l 254 209 l 373 209 l 332 0 l 475 0 l 514 209 l 631 209 l 631 342 l 540 342 l 575 528 l 694 528 l 694 661 l 601 661 l 640 868 l 499 868 l 460 661 l 340 661 l 380 868 l 239 868 l 199 661 l 84 661 l 84 528 l 174 528 l 137 342 l 20 342 l 20 209 l 113 209 l 72 0 m 434 528 l 397 342 l 279 342 l 315 528 l 434 528 z "},"o":{"ha":648,"x_min":54,"x_max":594,"o":"m 381 515 q 400 496 399 513 l 400 168 q 381 149 397 151 l 267 149 q 248 168 250 152 l 248 496 q 267 515 251 514 l 381 515 m 54 190 q 167 3 54 39 q 285 -14 216 -14 l 363 -14 q 579 92 538 -14 q 594 190 594 133 l 594 475 q 481 662 594 625 q 363 678 434 678 l 285 678 q 69 572 110 678 q 54 475 54 532 l 54 190 z "},"ó":{"ha":648,"x_min":54,"x_max":594,"o":"m 381 515 q 400 496 399 513 l 400 168 q 381 149 397 151 l 267 149 q 248 168 250 152 l 248 496 q 267 515 251 514 l 381 515 m 54 190 q 167 3 54 39 q 285 -14 216 -14 l 363 -14 q 579 92 538 -14 q 594 190 594 133 l 594 475 q 481 662 594 625 q 363 678 434 678 l 285 678 q 69 572 110 678 q 54 475 54 532 l 54 190 m 258 747 l 346 974 l 534 972 l 396 747 l 258 747 z "},"ô":{"ha":648,"x_min":54,"x_max":594,"o":"m 381 515 q 400 496 399 513 l 400 168 q 381 149 397 151 l 267 149 q 248 168 250 152 l 248 496 q 267 515 251 514 l 381 515 m 54 190 q 167 3 54 39 q 285 -14 216 -14 l 363 -14 q 579 92 538 -14 q 594 190 594 133 l 594 475 q 481 662 594 625 q 363 678 434 678 l 285 678 q 69 572 110 678 q 54 475 54 532 l 54 190 m 430 967 l 239 967 l 100 747 l 251 747 l 332 878 l 404 747 l 560 747 l 430 967 z "},"ö":{"ha":648,"x_min":54,"x_max":594,"o":"m 381 515 q 400 496 399 513 l 400 168 q 381 149 397 151 l 267 149 q 248 168 250 152 l 248 496 q 267 515 251 514 l 381 515 m 54 190 q 167 3 54 39 q 285 -14 216 -14 l 363 -14 q 579 92 538 -14 q 594 190 594 133 l 594 475 q 481 662 594 625 q 363 678 434 678 l 285 678 q 69 572 110 678 q 54 475 54 532 l 54 190 m 283 768 l 283 929 l 127 929 l 127 768 l 283 768 m 541 768 l 541 929 l 385 929 l 385 768 l 541 768 z "},"œ":{"ha":968,"x_min":54,"x_max":921,"o":"m 384 515 q 403 496 401 513 l 403 168 q 384 149 400 151 l 267 149 q 248 168 250 152 l 248 496 q 267 515 251 514 l 384 515 m 591 503 q 610 522 594 521 l 712 522 q 731 503 730 519 l 731 382 l 591 382 l 591 503 m 666 -8 l 901 -8 l 901 155 l 610 155 q 591 174 593 157 l 591 247 l 921 247 l 921 488 q 849 655 921 617 q 718 678 803 678 l 639 678 q 491 635 526 677 q 330 678 442 678 l 285 678 q 69 572 110 678 q 54 475 54 532 l 54 190 q 167 3 54 39 q 285 -14 216 -14 l 330 -14 q 500 47 453 -12 q 666 -8 552 -8 z "},"˛":{"ha":532,"x_min":156,"x_max":414,"o":"m 414 -298 l 414 -176 l 308 -176 q 298 -167 300 -174 l 298 -132 q 309 -109 300 -119 l 393 0 l 279 8 l 191 -73 q 156 -163 156 -106 l 156 -197 q 250 -296 156 -283 q 293 -298 270 -298 l 414 -298 z "},"ò":{"ha":648,"x_min":54,"x_max":594,"o":"m 381 515 q 400 496 399 513 l 400 168 q 381 149 397 151 l 267 149 q 248 168 250 152 l 248 496 q 267 515 251 514 l 381 515 m 54 190 q 167 3 54 39 q 285 -14 216 -14 l 363 -14 q 579 92 538 -14 q 594 190 594 133 l 594 475 q 481 662 594 625 q 363 678 434 678 l 285 678 q 69 572 110 678 q 54 475 54 532 l 54 190 m 134 972 l 320 974 l 407 747 l 278 747 l 134 972 z "},"ő":{"ha":648,"x_min":54,"x_max":652,"o":"m 381 515 q 400 496 399 513 l 400 168 q 381 149 397 151 l 267 149 q 248 168 250 152 l 248 496 q 267 515 251 514 l 381 515 m 54 190 q 167 3 54 39 q 285 -14 216 -14 l 363 -14 q 579 92 538 -14 q 594 190 594 133 l 594 475 q 481 662 594 625 q 363 678 434 678 l 285 678 q 69 572 110 678 q 54 475 54 532 l 54 190 m 145 747 l 228 974 l 407 972 l 278 747 l 145 747 m 380 747 l 469 974 l 652 972 l 513 747 l 380 747 z "},"ō":{"ha":648,"x_min":54,"x_max":594,"o":"m 381 515 q 400 496 399 513 l 400 168 q 381 149 397 151 l 267 149 q 248 168 250 152 l 248 496 q 267 515 251 514 l 381 515 m 54 190 q 167 3 54 39 q 285 -14 216 -14 l 363 -14 q 579 92 538 -14 q 594 190 594 133 l 594 475 q 481 662 594 625 q 363 678 434 678 l 285 678 q 69 572 110 678 q 54 475 54 532 l 54 190 m 519 906 l 137 906 l 137 770 l 519 770 l 519 906 z "},"½":{"ha":1164,"x_min":16,"x_max":1126,"o":"m 425 467 l 346 467 l 346 861 l 201 861 l 16 747 l 80 633 l 189 694 l 189 467 l 57 467 l 57 338 l 425 338 l 425 467 m 755 875 l 259 -14 l 412 -14 l 907 875 l 755 875 m 726 164 l 726 0 l 1120 0 l 1120 129 l 888 129 l 888 141 q 903 167 890 160 l 1040 232 q 1122 311 1111 266 q 1126 340 1126 324 l 1126 400 q 1017 528 1126 519 q 994 529 1006 529 l 739 525 l 739 396 l 951 396 q 963 384 962 393 l 963 369 q 951 353 962 359 l 803 281 q 735 221 749 254 q 726 164 726 198 z "},"¼":{"ha":1195,"x_min":16,"x_max":1168,"o":"m 1080 0 l 1080 103 l 1168 103 l 1168 232 l 1080 232 l 1080 528 l 917 532 q 823 492 854 533 q 793 445 811 476 l 659 205 l 659 103 l 922 103 l 922 0 l 1080 0 m 906 389 q 921 399 913 399 l 922 399 l 922 232 l 814 232 l 906 389 m 425 467 l 346 467 l 346 861 l 201 861 l 16 747 l 80 633 l 189 694 l 189 467 l 57 467 l 57 338 l 425 338 l 425 467 m 758 875 l 262 -14 l 415 -14 l 910 875 l 758 875 z "},"¹":{"ha":452,"x_min":16,"x_max":425,"o":"m 425 467 l 346 467 l 346 861 l 201 861 l 16 747 l 80 633 l 189 694 l 189 467 l 57 467 l 57 338 l 425 338 l 425 467 z "},"ª":{"ha":522,"x_min":41,"x_max":468,"o":"m 300 502 l 216 502 q 197 521 198 505 l 197 575 q 216 594 199 593 l 300 594 l 300 502 m 210 359 q 301 431 285 359 q 305 463 304 446 l 317 373 l 468 373 l 468 739 q 422 880 468 848 q 283 909 380 909 l 73 909 l 73 779 l 281 780 q 300 761 298 777 l 300 709 l 217 709 q 65 654 99 709 q 41 540 41 614 l 41 522 q 144 363 41 382 q 187 359 164 359 l 210 359 z "},"º":{"ha":562,"x_min":54,"x_max":513,"o":"m 335 779 q 354 760 353 776 l 354 515 q 335 496 351 498 l 232 496 q 213 515 214 499 l 213 760 q 232 779 216 777 l 335 779 m 54 549 q 152 376 54 411 q 262 361 197 361 l 305 361 q 498 454 461 361 q 513 549 513 494 l 513 719 q 419 897 513 860 q 305 914 374 914 l 262 914 q 72 825 111 914 q 54 719 54 783 l 54 549 z "},"ø":{"ha":648,"x_min":54,"x_max":594,"o":"m 471 753 l 434 673 q 363 678 404 678 l 285 678 q 69 572 110 678 q 54 475 54 532 l 54 190 q 133 18 56 64 l 85 -87 l 179 -87 l 214 -9 q 285 -14 248 -14 l 363 -14 q 579 92 538 -14 q 594 190 594 133 l 594 475 q 515 647 593 601 l 564 753 l 471 753 m 248 496 q 267 515 251 514 l 362 515 l 248 269 l 248 496 m 400 168 q 381 149 397 151 l 288 149 l 400 395 l 400 168 z "},"õ":{"ha":648,"x_min":54,"x_max":594,"o":"m 381 515 q 400 496 399 513 l 400 168 q 381 149 397 151 l 267 149 q 248 168 250 152 l 248 496 q 267 515 251 514 l 381 515 m 54 190 q 167 3 54 39 q 285 -14 216 -14 l 363 -14 q 579 92 538 -14 q 594 190 594 133 l 594 475 q 481 662 594 625 q 363 678 434 678 l 285 678 q 69 572 110 678 q 54 475 54 532 l 54 190 m 217 764 q 248 819 218 818 q 334 789 263 819 q 425 766 388 766 q 541 948 540 769 l 427 948 q 391 894 422 897 q 304 924 372 894 q 213 947 248 947 q 114 864 134 947 q 104 765 104 823 l 217 764 z "},"p":{"ha":658,"x_min":68,"x_max":604,"o":"m 262 -258 l 262 -3 l 400 -3 q 581 66 541 -3 q 604 180 604 107 l 604 509 q 510 667 604 639 q 427 678 475 678 l 393 678 q 259 559 275 678 q 258 552 258 555 l 243 665 l 68 665 l 68 -258 l 262 -258 m 262 503 q 281 522 264 521 l 395 522 q 414 503 412 519 l 414 175 q 395 156 411 157 l 262 156 l 262 503 z "},"¶":{"ha":785,"x_min":20,"x_max":690,"o":"m 524 0 l 690 0 l 690 861 l 271 868 q 42 757 99 871 q 20 658 20 712 l 20 609 q 111 437 20 498 q 266 392 176 393 l 266 0 l 433 0 l 433 693 l 524 693 l 524 0 z "},"(":{"ha":399,"x_min":68,"x_max":378,"o":"m 378 -231 l 378 -88 l 282 -88 q 263 -69 264 -85 l 263 761 q 282 780 266 779 l 378 780 l 378 922 l 326 922 q 72 747 103 922 q 68 692 68 720 l 68 0 q 256 -225 68 -195 q 326 -231 289 -231 l 378 -231 z "},")":{"ha":399,"x_min":20,"x_max":331,"o":"m 20 -231 l 20 -88 l 117 -88 q 136 -69 134 -85 l 136 761 q 117 780 133 779 l 20 780 l 20 922 l 73 922 q 327 747 296 922 q 331 692 331 720 l 331 0 q 142 -225 331 -195 q 73 -231 110 -231 l 20 -231 z "},"∂":{"ha":720,"x_min":45,"x_max":639,"o":"m 388 -7 q 628 138 583 -7 q 639 218 639 175 l 639 644 q 507 850 639 803 q 388 868 454 869 l 99 861 l 99 686 l 416 686 q 435 667 434 684 l 435 444 q 307 543 411 536 q 288 543 296 543 l 254 543 q 53 400 83 543 q 45 321 45 365 l 45 217 q 194 7 45 49 q 296 -7 240 -7 l 388 -7 m 267 175 q 248 194 250 178 l 248 354 q 267 373 251 372 l 416 373 q 435 354 434 370 l 435 194 q 416 175 433 176 l 267 175 z "},"%":{"ha":1096,"x_min":33,"x_max":1063,"o":"m 33 494 q 132 369 33 385 q 175 366 152 366 l 290 366 q 438 494 438 369 l 433 746 q 343 869 431 852 q 290 875 319 875 l 175 875 q 35 784 52 875 q 33 746 33 766 l 33 494 m 271 743 q 290 726 289 741 l 290 515 q 271 498 288 499 l 194 498 q 175 515 176 500 l 175 726 q 194 743 178 742 l 271 743 m 663 114 q 762 -11 663 5 q 806 -14 783 -14 l 921 -14 q 1061 79 1044 -14 q 1063 114 1063 96 l 1063 366 q 967 491 1063 475 q 921 495 945 495 l 806 495 q 666 404 682 495 q 663 366 663 387 l 663 114 m 902 363 q 921 346 920 361 l 921 136 q 902 118 918 119 l 825 118 q 806 136 807 121 l 806 346 q 825 363 808 362 l 902 363 m 723 875 l 227 -14 l 380 -14 l 875 875 l 723 875 z "},".":{"ha":244,"x_min":41,"x_max":203,"o":"m 203 0 l 203 183 l 41 183 l 41 0 l 203 0 z "},"·":{"ha":307,"x_min":65,"x_max":241,"o":"m 241 274 l 241 471 l 65 471 l 65 274 l 241 274 z "},"‰":{"ha":1572,"x_min":33,"x_max":1539,"o":"m 1139 114 q 1238 -11 1139 5 q 1282 -14 1259 -14 l 1397 -14 q 1537 79 1520 -14 q 1539 114 1539 96 l 1539 366 q 1443 491 1539 475 q 1397 495 1421 495 l 1282 495 q 1142 404 1158 495 q 1139 366 1139 387 l 1139 114 m 1378 363 q 1397 346 1396 361 l 1397 136 q 1378 118 1394 119 l 1301 118 q 1282 136 1283 121 l 1282 346 q 1301 363 1284 362 l 1378 363 m 33 494 q 132 369 33 385 q 175 366 152 366 l 290 366 q 438 494 438 369 l 433 746 q 343 869 431 852 q 290 875 319 875 l 175 875 q 35 784 52 875 q 33 746 33 766 l 33 494 m 271 743 q 290 726 289 741 l 290 515 q 271 498 288 499 l 194 498 q 175 515 176 500 l 175 726 q 194 743 178 742 l 271 743 m 663 114 q 762 -11 663 5 q 806 -14 783 -14 l 921 -14 q 1061 79 1044 -14 q 1063 114 1063 96 l 1063 366 q 967 491 1063 475 q 921 495 945 495 l 806 495 q 666 404 682 495 q 663 366 663 387 l 663 114 m 902 363 q 921 346 920 361 l 921 136 q 902 118 918 119 l 825 118 q 806 136 807 121 l 806 346 q 825 363 808 362 l 902 363 m 723 875 l 227 -14 l 380 -14 l 875 875 l 723 875 z "},"π":{"ha":719,"x_min":18,"x_max":701,"o":"m 285 0 l 285 515 l 434 515 l 434 0 l 627 0 l 627 515 l 701 515 l 701 665 l 18 665 l 18 515 l 92 515 l 92 0 l 285 0 z "},"+":{"ha":746,"x_min":68,"x_max":678,"o":"m 678 473 l 444 473 l 444 704 l 302 704 l 302 473 l 68 473 l 68 338 l 302 338 l 302 107 l 444 107 l 444 338 l 678 338 l 678 473 z "},"±":{"ha":746,"x_min":68,"x_max":678,"o":"m 678 541 l 444 541 l 444 738 l 302 738 l 302 541 l 68 541 l 68 406 l 302 406 l 302 209 l 444 209 l 444 406 l 678 406 l 678 541 m 678 134 l 68 134 l 68 -1 l 678 -1 l 678 134 z "},"∏":{"ha":848,"x_min":20,"x_max":827,"o":"m 827 861 l 20 861 l 20 686 l 115 686 l 115 0 l 316 0 l 316 686 l 532 686 l 532 0 l 732 0 l 732 686 l 827 686 l 827 861 z "},"q":{"ha":658,"x_min":54,"x_max":590,"o":"m 258 669 q 76 598 115 670 q 54 486 54 557 l 54 156 q 148 -3 54 26 q 231 -14 183 -14 l 264 -14 q 396 88 374 -12 l 396 -258 l 590 -258 l 590 665 l 258 669 m 396 161 q 377 142 393 144 l 263 142 q 244 161 245 145 l 244 487 q 263 506 247 505 l 396 506 l 396 161 z "},"?":{"ha":510,"x_min":28,"x_max":465,"o":"m 278 262 l 279 297 q 298 354 281 334 q 302 358 301 357 l 406 463 q 464 572 457 515 q 465 617 465 590 l 465 665 q 346 856 465 822 q 248 868 304 868 l 28 868 l 28 701 l 258 701 q 277 682 275 699 l 277 591 q 267 566 275 575 l 140 430 q 98 354 102 389 q 96 321 96 340 l 96 262 l 278 262 m 279 0 l 279 205 l 95 205 l 95 0 l 279 0 z "},"¿":{"ha":524,"x_min":58,"x_max":495,"o":"m 245 403 l 244 368 q 225 311 243 331 q 221 307 222 308 l 118 202 q 60 92 66 149 q 58 47 58 75 l 58 0 q 178 -191 58 -157 q 275 -203 220 -203 l 495 -203 l 495 -37 l 266 -37 q 247 -18 248 -34 l 247 73 q 256 99 248 90 l 384 235 q 426 311 422 275 q 427 343 427 323 l 427 403 l 245 403 m 244 665 l 244 460 l 429 460 l 429 665 l 244 665 z "},"\"":{"ha":431,"x_min":47,"x_max":370,"o":"m 47 598 l 47 937 l 178 937 l 178 792 l 126 598 l 47 598 m 240 598 l 240 937 l 370 937 l 370 792 l 319 598 l 240 598 z "},"„":{"ha":465,"x_min":47,"x_max":411,"o":"m 255 11 l 307 11 q 258 -113 302 -47 l 312 -157 q 411 38 411 -64 l 411 183 l 255 183 l 255 11 m 47 11 l 99 11 q 50 -113 95 -47 l 104 -157 q 203 38 203 -64 l 203 183 l 47 183 l 47 11 z "},"“":{"ha":472,"x_min":61,"x_max":425,"o":"m 217 783 l 165 783 q 214 906 170 841 l 160 951 q 61 755 62 856 l 61 610 l 217 610 l 217 783 m 425 783 l 373 783 q 422 906 377 841 l 368 951 q 269 755 270 856 l 269 610 l 425 610 l 425 783 z "},"”":{"ha":472,"x_min":47,"x_max":411,"o":"m 255 765 l 307 765 q 258 642 302 707 l 312 597 q 411 792 410 692 l 411 937 l 255 937 l 255 765 m 47 765 l 99 765 q 50 642 95 707 l 104 597 q 203 792 202 692 l 203 937 l 47 937 l 47 765 z "},"‘":{"ha":264,"x_min":61,"x_max":217,"o":"m 217 783 l 165 783 q 214 906 170 841 l 160 951 q 61 755 62 856 l 61 610 l 217 610 l 217 783 z "},"’":{"ha":255,"x_min":45,"x_max":201,"o":"m 45 765 l 96 765 q 47 642 92 707 l 102 597 q 201 792 199 692 l 201 937 l 45 937 l 45 765 z "},"‚":{"ha":264,"x_min":47,"x_max":210,"o":"m 47 3 l 102 3 q 50 -127 96 -58 l 107 -174 q 210 31 209 -75 l 210 183 l 47 183 l 47 3 z "},"'":{"ha":244,"x_min":47,"x_max":183,"o":"m 47 598 l 47 937 l 183 937 l 183 792 l 132 598 l 47 598 z "},"r":{"ha":416,"x_min":64,"x_max":422,"o":"m 388 678 q 252 559 269 675 l 239 665 l 64 665 l 66 0 l 259 0 l 256 490 q 275 509 259 507 l 422 509 l 422 678 l 388 678 z "},"ŕ":{"ha":416,"x_min":64,"x_max":422,"o":"m 388 678 q 252 559 269 675 l 239 665 l 64 665 l 66 0 l 259 0 l 256 490 q 275 509 259 507 l 422 509 l 422 678 l 388 678 m 95 747 l 183 974 l 372 972 l 233 747 l 95 747 z "},"√":{"ha":827,"x_min":20,"x_max":806,"o":"m 502 -68 l 806 929 l 633 929 l 412 186 l 260 665 l 20 665 l 20 490 l 122 490 l 312 -68 l 502 -68 z "},"ř":{"ha":420,"x_min":3,"x_max":463,"o":"m 388 678 q 252 559 269 675 l 239 665 l 64 665 l 66 0 l 259 0 l 256 490 q 275 509 259 507 l 422 509 l 422 678 l 388 678 m 133 754 l 324 754 l 463 974 l 312 974 l 231 844 l 159 974 l 3 974 l 133 754 z "},"®":{"ha":724,"x_min":75,"x_max":696,"o":"m 594 802 q 610 785 609 799 l 610 281 q 594 264 608 266 l 176 264 q 160 281 161 267 l 160 785 q 176 802 163 800 l 594 802 m 75 336 q 170 198 75 220 q 233 191 198 191 l 537 191 q 689 278 665 191 q 696 336 696 304 l 696 730 q 601 868 696 846 q 537 875 572 875 l 233 875 q 81 788 106 875 q 75 730 75 762 l 75 336 m 350 315 l 350 458 l 388 458 q 399 450 396 458 l 399 449 l 448 315 l 583 315 l 541 435 q 513 480 528 468 q 570 581 568 511 l 570 640 q 490 747 570 727 q 442 753 467 753 l 214 749 l 214 315 l 350 315 m 418 654 q 427 643 426 651 l 427 567 q 418 557 425 559 l 350 557 l 350 654 l 418 654 z "},"˚":{"ha":522,"x_min":118,"x_max":423,"o":"m 423 867 q 365 1000 423 971 q 269 1016 330 1016 q 133 958 160 1016 q 118 867 118 924 q 176 734 118 762 q 269 718 210 718 q 411 785 384 718 q 423 867 423 817 m 209 867 q 233 929 209 920 q 269 933 247 933 q 328 905 319 933 q 332 867 332 890 q 300 804 332 814 q 269 800 286 800 q 212 834 220 800 q 209 867 209 848 z "},"s":{"ha":555,"x_min":41,"x_max":528,"o":"m 351 -1 q 517 87 486 -1 q 528 168 528 121 l 528 229 q 453 391 528 354 q 324 412 408 412 l 254 412 q 235 431 236 415 l 235 496 q 254 515 237 514 l 487 514 l 487 677 l 251 678 q 60 590 99 680 q 41 481 41 547 l 41 445 q 117 282 41 319 q 244 260 163 260 l 319 260 q 338 241 336 258 l 338 174 q 319 155 335 156 l 54 155 l 56 -1 l 351 -1 z "},"ś":{"ha":555,"x_min":41,"x_max":528,"o":"m 351 -1 q 517 87 486 -1 q 528 168 528 121 l 528 229 q 453 391 528 354 q 324 412 408 412 l 254 412 q 235 431 236 415 l 235 496 q 254 515 237 514 l 487 514 l 487 677 l 251 678 q 60 590 99 680 q 41 481 41 547 l 41 445 q 117 282 41 319 q 244 260 163 260 l 319 260 q 338 241 336 258 l 338 174 q 319 155 335 156 l 54 155 l 56 -1 l 351 -1 m 205 747 l 293 974 l 481 972 l 343 747 l 205 747 z "},"š":{"ha":555,"x_min":41,"x_max":528,"o":"m 351 -1 q 517 87 486 -1 q 528 168 528 121 l 528 229 q 453 391 528 354 q 324 412 408 412 l 254 412 q 235 431 236 415 l 235 496 q 254 515 237 514 l 487 514 l 487 677 l 251 678 q 60 590 99 680 q 41 481 41 547 l 41 445 q 117 282 41 319 q 244 260 163 260 l 319 260 q 338 241 336 258 l 338 174 q 319 155 335 156 l 54 155 l 56 -1 l 351 -1 m 195 754 l 387 754 l 525 974 l 374 974 l 293 844 l 221 974 l 65 974 l 195 754 z "},"§":{"ha":637,"x_min":34,"x_max":604,"o":"m 604 33 l 604 319 q 547 469 604 427 q 476 503 521 487 l 251 583 q 232 608 233 591 l 232 669 q 251 688 235 686 l 583 688 l 583 861 l 251 868 q 39 723 66 872 q 34 666 35 696 l 34 380 q 91 229 34 271 q 161 195 117 212 l 387 115 q 406 91 404 107 l 406 30 q 387 11 403 12 l 54 11 l 54 -163 l 387 -170 q 598 -24 571 -174 q 604 33 602 3 m 255 317 q 232 359 232 330 l 232 434 l 382 381 q 406 339 406 369 l 406 266 l 255 317 z "},";":{"ha":305,"x_min":68,"x_max":231,"o":"m 68 3 l 122 3 q 71 -127 117 -58 l 127 -174 q 231 31 229 -75 l 231 183 l 68 183 l 68 3 m 231 359 l 231 543 l 68 543 l 68 359 l 231 359 z "},"අ":{"ha":735,"x_min":30,"x_max":700,"o":"m 366 582 q 419 667 366 646 q 450 674 434 674 l 700 674 l 700 568 l 651 568 q 633 555 635 567 q 658 524 633 549 q 696 437 694 483 l 696 304 q 628 232 693 233 l 534 232 l 534 145 l 693 145 l 693 0 l 534 0 l 534 -190 l 366 -190 l 366 0 l 95 0 q 33 39 41 0 q 30 69 30 52 l 30 406 q 104 481 33 480 l 203 481 l 203 511 q 175 534 190 532 l 30 534 l 30 674 l 229 674 q 324 609 309 674 q 327 585 327 597 l 327 343 l 229 343 q 199 326 202 343 q 198 309 198 320 l 198 174 q 221 145 201 146 l 366 145 l 366 582 m 533 359 l 556 359 q 579 374 578 359 q 581 388 581 381 l 581 446 q 559 510 581 467 q 552 532 552 524 q 555 543 553 540 q 533 510 534 536 l 533 359 z "},"ආ":{"ha":1059,"x_min":30,"x_max":1005,"o":"m 366 582 q 419 667 366 646 q 450 674 434 674 l 700 674 l 700 568 l 651 568 q 633 555 635 567 q 658 524 633 549 q 696 437 694 483 l 696 304 q 628 232 693 233 l 534 232 l 534 145 l 693 145 l 693 0 l 534 0 l 534 -190 l 366 -190 l 366 0 l 95 0 q 33 39 41 0 q 30 69 30 52 l 30 406 q 104 481 33 480 l 203 481 l 203 511 q 175 534 190 532 l 30 534 l 30 674 l 229 674 q 324 609 309 674 q 327 585 327 597 l 327 343 l 229 343 q 199 326 202 343 q 198 309 198 320 l 198 174 q 221 145 201 146 l 366 145 l 366 582 m 533 359 l 556 359 q 579 374 578 359 q 581 388 581 381 l 581 446 q 559 510 581 467 q 552 532 552 524 q 555 543 553 540 q 533 510 534 536 l 533 359 m 761 674 l 949 674 q 1005 617 1004 671 l 1005 52 q 949 0 1002 1 l 761 0 l 761 145 l 812 145 q 837 171 836 148 l 837 511 q 812 534 834 533 l 761 534 l 761 674 z "},"ඈ":{"ha":1085,"x_min":30,"x_max":1029,"o":"m 366 582 q 419 667 366 646 q 450 674 434 674 l 700 674 l 700 568 l 651 568 q 633 555 635 567 q 658 524 633 549 q 696 437 694 483 l 696 304 q 628 232 693 233 l 534 232 l 534 145 l 693 145 l 693 0 l 534 0 l 534 -190 l 366 -190 l 366 0 l 95 0 q 33 39 41 0 q 30 69 30 52 l 30 406 q 104 481 33 480 l 203 481 l 203 511 q 175 534 190 532 l 30 534 l 30 674 l 229 674 q 324 609 309 674 q 327 585 327 597 l 327 343 l 229 343 q 199 326 202 343 q 198 309 198 320 l 198 174 q 221 145 201 146 l 366 145 l 366 582 m 533 359 l 556 359 q 579 374 578 359 q 581 388 581 381 l 581 446 q 559 510 581 467 q 552 532 552 524 q 555 543 553 540 q 533 510 534 536 l 533 359 m 764 674 l 1029 674 l 1029 543 l 930 483 l 1029 483 l 1029 368 l 952 277 q 932 212 932 252 l 932 171 q 939 146 932 149 q 955 145 945 145 l 1029 145 l 1029 0 l 804 0 q 764 49 764 0 l 764 212 q 791 293 765 264 l 856 358 l 764 358 l 764 479 l 846 536 l 764 536 l 764 674 z "},"ඇ":{"ha":1090,"x_min":30,"x_max":1036,"o":"m 768 674 l 1036 674 l 1036 526 l 947 308 q 936 241 936 281 l 936 171 q 963 145 939 146 l 1036 145 l 1036 0 l 815 0 q 768 49 769 3 l 768 250 q 787 347 768 307 l 871 534 l 768 534 l 768 674 m 366 582 q 419 667 366 646 q 450 674 434 674 l 700 674 l 700 568 l 651 568 q 633 555 635 567 q 658 524 633 549 q 696 437 694 483 l 696 304 q 628 232 693 233 l 534 232 l 534 145 l 693 145 l 693 0 l 534 0 l 534 -190 l 366 -190 l 366 0 l 95 0 q 33 39 41 0 q 30 69 30 52 l 30 406 q 104 481 33 480 l 203 481 l 203 511 q 175 534 190 532 l 30 534 l 30 674 l 229 674 q 324 609 309 674 q 327 585 327 597 l 327 343 l 229 343 q 199 326 202 343 q 198 309 198 320 l 198 174 q 221 145 201 146 l 366 145 l 366 582 m 533 359 l 556 359 q 579 374 578 359 q 581 388 581 381 l 581 446 q 559 510 581 467 q 552 532 552 524 q 555 543 553 540 q 533 510 534 536 l 533 359 z "},"ඓ":{"ha":1236,"x_min":30,"x_max":1195,"o":"m 838 781 l 838 715 q 868 690 850 692 l 1023 690 l 1023 693 q 1001 713 1021 705 q 853 777 1000 713 l 841 781 l 838 781 m 1195 670 l 1195 69 q 1146 1 1195 9 q 1133 0 1139 0 l 628 0 q 563 60 564 3 l 563 197 q 598 266 564 245 l 517 266 l 517 389 l 762 389 l 762 418 q 743 433 760 431 l 567 433 l 567 552 l 849 552 q 930 469 929 549 l 930 258 l 784 258 q 731 216 732 256 l 731 176 q 751 146 731 149 q 764 145 758 145 l 1000 145 q 1025 172 1024 148 l 1025 597 l 751 597 q 692 633 700 597 q 689 661 689 646 l 689 783 l 620 783 l 620 901 l 787 901 q 882 883 841 901 q 902 875 891 879 l 1100 788 q 1187 716 1171 757 q 1195 670 1195 694 m 463 674 l 102 674 q 31 620 41 674 q 30 604 30 612 l 30 62 q 92 0 33 1 l 400 0 q 469 66 467 4 l 469 374 q 397 442 467 441 l 248 442 l 248 308 l 275 308 q 301 279 298 297 l 301 171 q 277 145 298 146 l 222 145 q 198 171 199 151 l 198 507 q 229 534 209 532 l 463 534 l 463 674 z "},"ඖ":{"ha":1177,"x_min":30,"x_max":1156,"o":"m 713 674 l 713 363 q 758 319 716 320 l 890 319 q 960 366 959 321 l 960 513 q 974 534 962 533 l 987 534 q 1000 515 998 532 l 1000 168 q 985 145 996 146 l 920 145 q 899 168 901 156 l 899 233 l 718 233 l 718 64 q 772 0 723 4 l 1090 0 q 1154 49 1146 0 q 1156 62 1156 56 l 1156 618 q 1119 671 1156 658 q 1099 674 1109 674 l 888 674 q 853 644 857 674 q 852 620 852 633 l 852 490 q 838 457 849 458 l 822 457 q 810 487 810 465 l 810 674 l 713 674 m 397 335 l 283 335 q 236 376 237 338 l 236 471 q 224 483 233 481 l 212 483 q 198 469 199 480 l 198 171 q 224 145 201 146 l 247 145 q 277 179 275 148 l 277 269 l 411 269 l 411 182 q 442 145 414 146 l 467 145 q 490 174 488 148 l 490 650 q 467 690 490 685 q 448 692 458 692 l 30 692 l 30 849 l 559 849 q 658 760 656 846 l 658 68 q 594 0 655 1 l 410 0 q 343 50 355 3 q 301 3 338 16 q 279 0 289 0 l 94 0 q 30 65 31 3 l 30 534 q 110 623 33 621 l 264 623 q 320 575 319 620 l 320 487 q 332 471 323 472 l 345 471 q 357 486 355 473 l 357 623 l 450 623 l 450 382 q 397 335 448 336 z "},"බ":{"ha":699,"x_min":30,"x_max":658,"o":"m 564 848 l 30 848 l 30 703 l 454 703 q 490 671 487 694 l 490 170 q 468 145 483 146 l 444 145 q 422 171 423 156 l 422 564 q 347 637 419 636 l 106 637 q 30 563 31 635 l 30 73 q 75 1 30 11 q 98 0 85 0 l 233 0 l 233 145 l 222 145 q 198 175 199 148 l 198 467 q 220 492 203 491 l 248 492 q 267 468 267 490 l 269 73 q 339 0 279 4 l 590 0 q 656 47 648 0 q 658 73 658 60 l 658 738 q 617 838 658 821 q 564 848 595 848 z "},"භ":{"ha":803,"x_min":-8,"x_max":762,"o":"m 30 69 q 65 3 30 14 q 95 0 79 0 l 411 0 q 496 39 481 0 q 502 81 502 57 l 502 347 q 472 391 500 389 l 468 391 l 488 506 q 521 529 496 528 l 570 529 q 594 505 594 529 l 594 180 q 583 148 594 152 q 564 145 576 145 l 545 145 l 545 0 l 677 0 q 755 37 742 0 q 762 87 762 56 l 762 589 q 700 673 762 662 q 671 674 686 674 l 448 674 q 350 605 362 674 l 298 293 l 317 293 q 338 266 336 290 l 338 179 q 328 146 338 151 q 311 145 320 145 l 221 145 q 198 174 199 148 l 198 309 q 213 342 198 338 q 229 343 220 343 l 267 343 l 267 585 q 197 671 267 658 q 170 674 183 674 l 30 674 l 30 534 l 115 534 q 142 521 140 534 q 144 511 144 517 l 144 481 l -8 481 l -8 350 l 61 350 q 30 294 31 334 l 30 69 z "},"ච":{"ha":731,"x_min":-8,"x_max":690,"o":"m 597 848 l 62 848 l 62 703 l 487 703 q 522 671 519 694 l 522 175 q 498 145 519 146 l 255 145 q 231 175 232 148 l 231 244 q 278 305 237 301 l 396 305 l 396 559 q 311 637 388 633 l 62 637 l 62 498 l 206 498 q 228 479 227 495 l 228 433 l -8 433 l -8 305 l 79 305 q 62 239 62 279 l 62 73 q 107 1 62 11 q 130 0 118 0 l 623 0 q 689 47 681 0 q 690 73 690 60 l 690 738 q 650 838 690 821 q 597 848 628 848 z "},"ඡ":{"ha":696,"x_min":30,"x_max":711,"o":"m 407 503 q 434 534 410 533 l 469 534 q 496 505 495 532 l 496 437 q 467 410 494 411 l 437 410 q 407 437 408 412 l 407 503 m 98 0 l 590 0 q 656 47 648 0 q 658 73 658 60 l 658 245 q 625 342 658 315 q 616 349 620 346 q 658 450 658 377 l 658 591 q 583 674 655 673 l 559 674 q 595 711 578 688 l 711 872 l 530 872 l 414 723 q 350 665 380 682 q 340 659 343 662 l 340 659 q 332 652 336 656 q 266 674 309 674 l 31 674 l 31 534 l 209 534 q 231 514 229 532 l 231 481 l 106 481 q 30 407 31 479 l 30 73 q 75 1 30 11 q 98 0 85 0 m 222 145 q 198 175 199 148 l 198 317 q 227 343 201 342 l 294 343 q 347 282 298 283 l 450 282 q 490 250 488 279 l 490 175 q 465 145 487 146 l 222 145 z "},"ද":{"ha":624,"x_min":30,"x_max":613,"o":"m 582 0 l 365 0 q 323 -41 324 -3 l 323 -62 q 351 -87 326 -85 l 613 -87 l 613 -232 l 218 -232 q 148 -171 149 -229 l 148 -76 q 174 -7 148 -22 q 187 0 180 -3 l 90 0 q 30 53 35 0 q 30 68 30 61 l 30 404 q 109 481 33 480 l 408 481 l 408 513 q 389 534 406 533 l 30 534 l 30 674 l 505 674 q 576 602 575 671 l 576 343 l 228 343 q 198 313 199 340 l 198 180 q 225 145 205 148 l 582 145 l 582 0 z "},"ඩ":{"ha":699,"x_min":-8,"x_max":658,"o":"m -8 446 l -8 315 l 56 315 q 30 259 30 296 l 30 73 q 68 3 30 12 q 95 0 80 0 l 279 0 q 338 35 321 0 q 343 50 342 43 q 410 0 357 1 l 594 0 q 658 68 656 3 l 658 760 q 559 849 655 848 l 30 849 l 30 692 l 448 692 q 488 669 483 692 q 490 650 490 661 l 490 174 q 467 145 487 146 l 442 145 q 411 182 412 148 l 411 251 l 277 251 l 277 179 q 247 145 274 146 l 224 145 q 198 176 199 148 l 198 283 q 229 307 201 305 l 358 307 l 358 564 q 286 636 358 625 q 260 637 273 637 l 31 637 l 31 498 l 171 498 q 198 477 197 496 l 198 446 l -8 446 z "},"ඪ":{"ha":699,"x_min":-8,"x_max":658,"o":"m 397 730 l 469 730 q 486 708 486 728 l 486 673 l 427 673 q 399 685 403 673 q 397 699 397 692 l 397 730 m -8 395 l -8 282 l 57 282 q 30 227 31 264 l 30 73 q 68 3 30 12 q 95 0 80 0 l 279 0 q 338 35 321 0 q 343 50 342 43 q 410 0 357 1 l 594 0 q 658 68 656 3 l 658 758 q 614 844 658 830 q 568 849 595 849 l 187 849 l 187 731 l 248 731 l 248 643 q 286 582 248 590 q 311 579 297 579 l 490 579 l 490 174 q 467 145 487 146 l 442 145 q 411 182 412 148 l 411 218 l 277 218 l 277 179 q 247 145 274 146 l 224 145 q 198 176 199 148 l 198 251 q 229 274 201 273 l 358 274 l 358 496 q 290 567 358 555 q 260 570 275 570 l 31 570 l 31 442 l 201 442 q 228 422 227 441 l 228 395 l -8 395 z "},"ධ":{"ha":699,"x_min":30,"x_max":658,"o":"m 351 491 l 212 491 q 198 479 199 488 l 198 171 q 224 145 201 146 l 247 145 q 277 179 275 148 l 277 332 l 411 332 l 411 182 q 442 145 414 146 l 467 145 q 490 174 488 148 l 490 650 q 467 690 490 685 q 448 692 458 692 l 30 692 l 30 849 l 559 849 q 658 760 656 846 l 658 68 q 594 0 655 1 l 410 0 q 343 50 355 3 q 301 3 338 16 q 279 0 289 0 l 94 0 q 30 65 31 3 l 30 549 q 110 637 33 636 l 351 637 l 351 491 z "},"එ":{"ha":724,"x_min":5,"x_max":684,"o":"m 327 781 l 327 715 q 357 690 339 692 l 511 690 l 511 693 q 490 713 510 705 q 342 777 488 713 l 330 781 l 327 781 m 684 670 l 684 69 q 635 1 684 9 q 621 0 628 0 l 117 0 q 52 60 53 3 l 52 197 q 87 266 53 245 l 5 266 l 5 389 l 251 389 l 251 418 q 232 433 248 431 l 56 433 l 56 552 l 338 552 q 419 469 418 549 l 419 258 l 273 258 q 220 216 221 256 l 220 176 q 240 146 220 149 q 252 145 247 145 l 488 145 q 514 172 513 148 l 514 597 l 240 597 q 180 633 189 597 q 178 661 178 646 l 178 783 l 109 783 l 109 901 l 275 901 q 370 883 330 901 q 391 875 380 879 l 589 788 q 675 716 659 757 q 684 670 684 694 z "},"ඒ":{"ha":724,"x_min":5,"x_max":684,"o":"m 327 781 l 330 781 q 342 777 332 781 q 490 713 490 713 q 511 693 510 703 l 511 690 l 357 690 q 328 701 332 690 q 327 715 327 708 l 327 781 m 526 960 l 526 815 l 391 875 q 275 901 323 901 l 109 901 l 109 783 l 178 783 l 178 661 q 216 600 178 608 q 240 597 227 597 l 514 597 l 514 172 q 488 145 511 146 l 252 145 q 220 176 222 155 l 220 216 q 273 258 222 256 l 419 258 l 419 469 q 338 552 416 551 l 56 552 l 56 433 l 232 433 q 251 418 250 431 l 251 389 l 5 389 l 5 266 l 87 266 q 52 197 53 243 l 52 60 q 117 0 54 1 l 621 0 q 682 53 674 0 q 684 69 684 61 l 684 960 l 526 960 z "},"ෆ":{"ha":765,"x_min":30,"x_max":724,"o":"m 416 145 l 526 145 q 555 171 553 148 l 555 502 q 529 534 552 533 l 479 534 q 450 500 452 532 l 450 227 l 300 227 l 300 499 q 273 534 298 533 l 227 534 q 198 502 199 532 l 198 171 q 231 145 209 148 l 334 145 l 334 0 l 99 0 q 30 84 34 9 l 30 598 q 72 669 30 650 q 103 674 87 674 l 301 674 q 374 636 361 674 q 377 628 376 632 q 456 674 392 673 l 651 674 q 722 627 708 674 q 724 604 724 614 l 724 83 q 673 3 724 18 q 651 0 662 0 l 416 0 l 416 145 z "},"ග":{"ha":803,"x_min":30,"x_max":762,"o":"m 267 674 l 267 534 l 229 534 q 199 517 202 534 q 198 500 198 511 l 198 174 q 221 145 201 146 l 290 145 q 316 159 315 145 q 317 179 317 165 l 317 266 q 297 293 316 292 l 278 293 l 330 605 q 427 674 342 674 l 671 674 q 760 616 749 674 q 762 589 762 604 l 762 87 q 726 7 762 20 q 677 0 707 0 l 545 0 l 545 145 l 564 145 q 593 160 590 145 q 594 180 594 167 l 594 505 q 570 529 594 529 l 500 529 q 468 506 475 528 l 448 391 l 452 391 q 481 347 480 388 l 481 81 q 437 5 481 18 q 391 0 418 0 l 100 0 q 30 83 31 3 l 30 591 q 87 671 30 658 q 110 674 99 674 l 267 674 z "},"ඝ":{"ha":765,"x_min":-8,"x_max":724,"o":"m 449 0 l 656 0 q 723 47 715 0 q 724 73 724 60 l 724 401 q 658 481 724 475 q 637 483 648 483 l 526 483 l 526 514 q 555 534 526 534 l 723 534 l 723 674 l 494 674 q 397 618 411 674 q 396 601 396 609 l 396 343 l 525 343 q 556 320 555 342 l 556 176 q 532 145 553 146 l 487 145 q 463 160 464 146 l 463 165 q 483 186 465 179 q 509 214 507 199 l 509 270 q 473 302 506 301 l 281 302 q 245 270 247 300 l 245 214 q 270 186 245 197 l 271 186 q 292 165 290 176 l 292 160 q 267 145 290 145 l 222 145 q 198 176 199 148 l 198 320 q 229 343 201 342 l 358 343 l 358 601 q 286 673 358 662 q 260 674 273 674 l 31 674 l 31 534 l 201 534 q 228 514 227 533 l 228 483 l -8 483 l -8 351 l 56 351 q 30 296 30 332 l 30 73 q 75 1 30 11 q 98 0 85 0 l 305 0 q 369 37 350 0 q 376 64 376 50 l 376 178 q 355 201 374 187 q 339 222 340 213 l 339 233 q 354 247 342 245 l 400 247 q 415 233 414 244 l 415 222 q 399 201 414 210 q 378 178 380 184 l 378 64 q 419 5 378 23 q 449 0 434 0 z "},"හ":{"ha":803,"x_min":30,"x_max":762,"o":"m 198 174 q 221 145 201 146 l 311 145 q 336 159 335 145 q 338 179 338 165 l 338 266 q 317 293 336 292 l 298 293 l 350 605 q 448 674 362 674 l 671 674 q 760 616 749 674 q 762 589 762 604 l 762 87 q 726 7 762 20 q 677 0 707 0 l 545 0 l 545 145 l 564 145 q 593 160 590 145 q 594 180 594 167 l 594 505 q 570 529 594 529 l 521 529 q 488 506 495 528 l 468 391 l 472 391 q 502 347 500 388 l 502 81 q 457 5 502 18 q 411 0 438 0 l 95 0 q 33 39 41 0 q 30 69 30 52 l 30 406 q 104 481 33 480 l 144 481 l 144 511 q 115 534 130 532 l 30 534 l 30 674 l 170 674 q 264 609 250 674 q 267 585 267 597 l 267 343 l 229 343 q 199 326 202 343 q 198 309 198 320 l 198 174 z "},"්":{"ha":3,"x_min":-216,"x_max":-47,"o":"m -216 667 l -216 880 l -47 880 l -47 578 q -56 590 -49 581 q -91 639 -79 631 q -168 667 -134 667 l -216 667 z "},"ඉ":{"ha":704,"x_min":30,"x_max":663,"o":"m 422 469 l 422 279 q 350 212 419 213 l 106 212 q 30 285 31 214 l 30 600 q 94 673 30 663 q 113 674 103 674 l 581 674 q 663 600 662 671 l 663 167 q 602 81 662 99 q 640 14 639 54 l 640 -134 q 583 -214 640 -206 q 564 -216 574 -216 l 62 -216 l 62 -68 l 439 -68 q 471 -60 469 -68 q 472 -50 472 -54 l 472 -18 q 439 0 463 -1 l 64 0 l 64 145 l 450 145 q 495 187 494 148 l 495 507 q 471 534 492 533 l 228 534 q 198 510 199 532 l 198 376 q 220 349 203 350 l 247 349 q 269 362 267 349 q 270 376 270 368 l 270 469 l 422 469 z "},"ඊ":{"ha":612,"x_min":30,"x_max":590,"o":"m 30 65 q 92 0 39 4 l 496 0 q 570 61 564 0 q 571 83 571 71 l 571 594 q 488 674 568 673 l 288 674 l 495 899 l 301 899 l 85 675 q 30 583 31 620 l 30 65 m 198 498 q 213 533 198 529 q 232 534 221 534 l 369 534 q 401 519 399 534 q 403 505 403 513 l 403 180 q 391 146 403 151 q 369 145 382 145 l 231 145 q 199 160 202 145 q 198 176 198 165 l 198 498 m 30 899 l 168 899 l 168 772 l 30 772 l 30 899 m 452 830 l 590 830 l 590 703 l 452 703 l 452 830 z "},"ජ":{"ha":696,"x_min":30,"x_max":711,"o":"m 465 145 l 222 145 q 198 175 199 148 l 198 317 q 227 343 201 342 l 326 343 l 326 601 q 254 673 326 662 q 228 674 240 674 l 31 674 l 31 534 l 174 534 q 195 515 194 532 l 195 483 l 106 483 q 30 407 31 480 l 30 73 q 75 1 30 11 q 98 0 85 0 l 590 0 q 656 47 648 0 q 658 73 658 60 l 658 407 q 582 483 655 481 l 492 483 l 492 515 q 514 534 495 533 l 656 534 l 656 674 l 605 674 q 632 711 624 690 l 711 872 l 530 872 l 449 722 q 400 662 427 680 q 362 601 363 643 l 362 343 l 461 343 q 490 317 488 340 l 490 175 q 465 145 487 146 z "},"ඣ":{"ha":1244,"x_min":16,"x_max":1203,"o":"m 16 275 l 65 275 q 30 190 30 252 l 30 68 q 90 0 33 1 l 224 0 q 275 35 266 0 q 277 39 277 38 q 327 0 289 1 l 449 0 q 521 69 518 5 l 521 404 q 449 481 518 480 l 340 481 l 374 511 q 430 532 399 532 q 435 532 431 532 q 448 530 445 530 l 575 514 l 575 503 l 575 65 q 639 0 578 1 l 825 0 q 883 35 867 0 q 888 50 887 43 q 955 0 902 1 l 1139 0 q 1203 68 1202 3 l 1203 760 q 1104 849 1200 848 l 575 849 l 575 692 l 993 692 q 1034 669 1028 692 q 1035 650 1035 661 l 1035 174 q 1012 145 1032 146 l 987 145 q 956 182 958 148 l 956 332 l 822 332 l 822 179 q 792 145 819 146 l 769 145 q 743 171 745 148 l 743 445 q 757 458 746 457 l 897 458 l 897 605 l 892 605 l 897 606 l 469 661 q 408 666 425 666 q 331 644 363 665 l 300 623 l 300 627 q 267 673 300 663 q 251 674 259 674 l 30 674 l 30 534 l 145 534 q 178 518 176 533 l 178 515 l 16 374 l 16 275 m 373 330 l 373 176 q 355 145 368 148 l 340 145 q 321 171 323 153 l 321 255 l 229 255 l 229 168 q 209 145 227 146 l 198 145 q 179 172 180 157 l 179 245 q 195 301 179 288 l 195 320 l 156 320 l 197 355 l 353 355 q 373 330 372 353 z "},"ඥ":{"ha":1371,"x_min":30,"x_max":1359,"o":"m 1328 0 l 1328 145 l 971 145 q 944 180 947 156 l 944 313 q 974 343 947 342 l 1322 343 l 1322 602 q 1251 674 1320 673 l 655 674 q 557 605 570 674 l 506 293 l 525 293 q 545 266 544 290 l 545 179 q 536 146 545 151 q 518 145 528 145 l 449 145 q 426 174 427 148 l 426 500 q 441 533 426 529 q 457 534 448 534 l 495 534 l 495 674 l 146 674 q 39 605 68 674 q 30 551 30 579 l 30 0 l 190 0 l 190 507 q 216 540 191 538 l 258 540 l 258 69 q 293 3 258 14 q 323 0 307 0 l 618 0 q 704 39 689 0 q 709 81 709 57 l 709 347 q 680 391 708 389 l 675 391 l 700 511 q 732 534 708 533 l 1135 534 q 1154 513 1153 532 l 1154 481 l 854 481 q 776 404 777 479 l 776 68 q 836 0 781 3 l 933 0 q 895 -50 899 -14 q 894 -76 894 -61 l 894 -171 q 964 -232 897 -231 l 1359 -232 l 1359 -87 l 1097 -87 q 1069 -62 1070 -84 l 1069 -41 q 1111 0 1072 -1 l 1328 0 z "},"ක":{"ha":803,"x_min":16,"x_max":762,"o":"m 373 330 q 353 355 370 354 l 197 355 l 156 320 l 195 320 l 195 301 q 179 245 179 286 l 179 172 q 198 145 187 146 l 209 145 q 229 168 228 153 l 229 255 l 321 255 l 321 171 q 340 145 326 146 l 355 145 q 373 176 372 159 l 373 330 m 300 623 l 326 646 q 411 674 359 674 l 682 674 q 760 621 747 674 q 762 602 762 612 l 762 66 q 689 0 758 3 l 545 0 l 545 145 l 574 145 q 593 168 591 148 l 593 510 q 566 534 590 533 l 425 534 q 381 517 401 533 l 340 481 l 449 481 q 521 404 518 476 l 521 69 q 449 0 514 4 l 327 0 q 277 39 288 3 q 224 0 267 1 l 90 0 q 30 68 31 3 l 30 190 q 65 275 31 255 l 16 275 l 16 374 q 178 515 18 376 l 178 518 q 145 534 175 534 l 30 534 l 30 674 l 251 674 q 300 625 296 669 l 300 623 z "},"ඛ":{"ha":700,"x_min":30,"x_max":658,"o":"m 30 551 q 87 635 30 621 q 110 637 98 637 l 347 637 q 423 563 420 632 l 423 361 l 414 259 l 458 189 q 476 168 475 168 q 483 165 480 165 q 491 189 491 168 l 490 250 l 490 650 q 431 692 487 690 l 30 692 l 30 849 l 563 849 q 654 795 636 849 q 658 768 658 781 l 658 69 q 610 1 658 11 q 595 0 602 0 l 500 0 q 415 56 445 1 l 387 109 l 366 -7 l 241 -7 l 270 395 l 270 460 q 245 487 264 486 l 225 487 q 198 457 199 477 l 198 167 q 213 145 201 146 l 224 145 l 214 0 l 88 0 q 30 65 33 5 l 30 551 z "},"ල":{"ha":755,"x_min":30,"x_max":713,"o":"m 288 65 l 288 301 l 235 301 l 235 423 l 509 423 l 509 304 l 456 304 l 456 167 q 467 146 456 148 q 480 145 472 145 l 526 145 q 545 168 544 148 l 545 503 q 511 534 536 532 l 231 534 q 198 502 199 532 l 198 -9 q 228 -62 198 -54 q 255 -65 240 -65 l 713 -65 l 713 -221 l 125 -221 q 30 -123 31 -218 l 30 589 q 76 669 30 648 q 103 674 90 674 l 631 674 q 704 623 682 674 q 713 581 713 602 l 713 83 q 643 0 711 1 l 354 0 q 289 52 297 0 q 288 65 288 60 z "},"ළ":{"ha":750,"x_min":30,"x_max":709,"o":"m 709 -206 l 709 -49 l 240 -49 q 198 -7 199 -43 l 198 110 q 273 71 217 73 l 707 71 l 707 231 l 298 231 q 262 264 264 233 l 262 336 l 709 336 l 709 604 q 631 674 708 673 l 454 674 q 406 646 422 673 q 359 674 392 673 l 171 674 q 98 598 103 665 l 98 452 q 31 378 38 444 q 30 362 30 370 l 30 -100 q 136 -206 33 -205 l 709 -206 m 540 461 l 467 461 l 467 521 q 490 547 469 545 l 517 547 q 540 521 538 544 l 540 461 m 259 461 l 259 519 q 285 547 262 545 l 312 547 q 335 522 334 544 l 335 461 l 259 461 z "},"ම":{"ha":699,"x_min":30,"x_max":658,"o":"m 564 848 l 30 848 l 30 703 l 454 703 q 490 671 487 694 l 490 175 q 465 145 487 146 l 222 145 q 198 175 199 148 l 198 203 l 359 203 q 429 264 423 203 q 430 282 430 273 l 430 568 q 350 637 427 636 l 113 637 q 33 579 45 637 q 30 559 30 570 l 30 77 q 102 0 33 1 l 582 0 q 658 80 656 3 l 658 738 q 617 838 658 821 q 564 848 595 848 m 198 475 q 222 500 201 499 l 250 500 q 271 477 270 498 l 271 358 q 251 339 269 340 l 198 339 l 198 475 z "},"ා":{"ha":313,"x_min":28,"x_max":273,"o":"m 28 674 l 217 674 q 273 617 271 671 l 273 52 q 217 0 270 1 l 28 0 l 28 145 l 80 145 q 104 171 103 148 l 104 511 q 80 534 102 533 l 28 534 l 28 674 z "},"ෑ":{"ha":336,"x_min":30,"x_max":296,"o":"m 30 674 l 296 674 l 296 543 l 197 483 l 296 483 l 296 368 l 218 277 q 198 212 198 252 l 198 171 q 205 146 198 149 q 221 145 212 145 l 296 145 l 296 0 l 71 0 q 30 49 30 0 l 30 212 q 57 293 31 264 l 122 358 l 30 358 l 30 479 l 113 536 l 30 536 l 30 674 z "},"ැ":{"ha":339,"x_min":30,"x_max":298,"o":"m 30 674 l 298 674 l 298 526 l 209 308 q 198 241 198 281 l 198 171 q 225 145 201 146 l 298 145 l 298 0 l 77 0 q 30 49 31 3 l 30 250 q 49 347 30 307 l 133 534 l 30 534 l 30 674 z "},"ෛ":{"ha":1025,"x_min":30,"x_max":985,"o":"m 463 674 l 102 674 q 31 620 41 674 q 30 604 30 612 l 30 62 q 92 0 33 1 l 400 0 q 469 66 467 4 l 469 374 q 397 442 467 441 l 248 442 l 248 308 l 275 308 q 301 279 298 297 l 301 171 q 277 145 298 146 l 222 145 q 198 171 199 151 l 198 507 q 229 534 209 532 l 463 534 l 463 674 m 978 674 l 617 674 q 547 620 556 674 q 545 604 545 612 l 545 62 q 608 0 548 1 l 916 0 q 985 66 982 4 l 985 374 q 913 442 982 441 l 764 442 l 764 308 l 791 308 q 817 279 814 297 l 817 171 q 792 145 814 146 l 738 145 q 713 171 715 151 l 713 507 q 745 534 724 532 l 978 534 l 978 674 z "},"ෞ":{"ha":1438,"x_min":30,"x_max":1332,"o":"m 463 674 l 102 674 q 31 620 41 674 q 30 604 30 612 l 30 62 q 92 0 33 1 l 400 0 q 469 66 467 4 l 469 374 q 397 442 467 441 l 248 442 l 248 308 l 275 308 q 301 279 298 297 l 301 171 q 277 145 298 146 l 222 145 q 198 171 199 151 l 198 507 q 229 534 209 532 l 463 534 l 463 674 m 890 674 l 890 363 q 935 319 892 320 l 1066 319 q 1137 366 1135 321 l 1137 513 q 1150 534 1138 533 l 1164 534 q 1176 515 1175 532 l 1176 168 q 1161 145 1172 146 l 1096 145 q 1076 168 1077 156 l 1076 233 l 894 233 l 894 64 q 948 0 899 4 l 1267 0 q 1331 49 1322 0 q 1332 62 1332 56 l 1332 618 q 1295 671 1332 658 q 1275 674 1286 674 l 1065 674 q 1029 644 1034 674 q 1028 620 1028 633 l 1028 490 q 1015 457 1025 458 l 998 457 q 986 487 986 465 l 986 674 l 890 674 z "},"ෙ":{"ha":510,"x_min":30,"x_max":469,"o":"m 463 674 l 102 674 q 31 620 41 674 q 30 604 30 612 l 30 62 q 92 0 33 1 l 400 0 q 469 66 467 4 l 469 374 q 397 442 467 441 l 248 442 l 248 308 l 275 308 q 301 279 298 297 l 301 171 q 277 145 298 146 l 222 145 q 198 171 199 151 l 198 507 q 229 534 209 532 l 463 534 l 463 674 z "},"ේ":{"ha":1252,"x_min":30,"x_max":1160,"o":"m 463 674 l 102 674 q 31 620 41 674 q 30 604 30 612 l 30 62 q 92 0 33 1 l 400 0 q 469 66 467 4 l 469 374 q 397 442 467 441 l 248 442 l 248 308 l 275 308 q 301 279 298 297 l 301 171 q 277 145 298 146 l 222 145 q 198 171 199 151 l 198 507 q 229 534 209 532 l 463 534 l 463 674 m 991 667 l 991 880 l 1160 880 l 1160 578 q 1152 590 1158 581 q 1116 639 1128 631 q 1039 667 1073 667 l 991 667 z "},"ි":{"ha":3,"x_min":-800,"x_max":-91,"o":"m -800 693 l -800 808 q -741 868 -798 867 l -146 868 q -91 810 -92 865 l -91 693 l -259 693 l -259 716 q -278 741 -267 738 l -614 741 q -632 716 -632 738 l -632 693 l -800 693 z "},"ී":{"ha":699,"x_min":-800,"x_max":-91,"o":"m -294 789 q -315 773 -315 789 l -315 762 q -293 745 -312 746 l -237 745 q -216 764 -217 747 l -216 773 q -239 789 -218 788 l -294 789 m -614 741 q -632 716 -632 738 l -632 693 l -800 693 l -800 808 q -742 868 -798 867 l -148 868 q -91 814 -92 865 l -91 734 q -132 693 -91 693 l -403 693 q -441 722 -439 694 l -441 730 q -438 741 -441 738 l -614 741 z "},"ෳ":{"ha":500,"x_min":22,"x_max":464,"o":"m 22 674 l 22 363 q 66 319 24 320 l 198 319 q 269 366 267 321 l 269 513 q 282 534 270 533 l 296 534 q 308 515 307 532 l 308 168 q 293 145 304 146 l 228 145 q 208 168 209 156 l 208 233 l 26 233 l 26 64 q 80 0 31 4 l 399 0 q 463 49 454 0 q 464 62 464 56 l 464 618 q 427 671 464 658 q 407 674 418 674 l 197 674 q 161 644 165 674 q 160 620 160 633 l 160 490 q 146 457 157 458 l 130 457 q 118 487 118 465 l 118 674 l 22 674 z "},"ෟ":{"ha":500,"x_min":22,"x_max":464,"o":"m 22 674 l 22 363 q 66 319 24 320 l 198 319 q 269 366 267 321 l 269 513 q 282 534 270 533 l 296 534 q 308 515 307 532 l 308 168 q 293 145 304 146 l 228 145 q 208 168 209 156 l 208 233 l 26 233 l 26 64 q 80 0 31 4 l 399 0 q 463 49 454 0 q 464 62 464 56 l 464 618 q 427 671 464 658 q 407 674 418 674 l 197 674 q 161 644 165 674 q 160 620 160 633 l 160 490 q 146 457 157 458 l 130 457 q 118 487 118 465 l 118 674 l 22 674 z "},"ො":{"ha":1259,"x_min":30,"x_max":1114,"o":"m 463 674 l 102 674 q 31 620 41 674 q 30 604 30 612 l 30 62 q 92 0 33 1 l 400 0 q 469 66 467 4 l 469 374 q 397 442 467 441 l 248 442 l 248 308 l 275 308 q 301 279 298 297 l 301 171 q 277 145 298 146 l 222 145 q 198 171 199 151 l 198 507 q 229 534 209 532 l 463 534 l 463 674 m 869 674 l 1058 674 q 1114 617 1112 671 l 1114 52 q 1058 0 1111 1 l 869 0 l 869 145 l 921 145 q 945 171 944 148 l 945 511 q 921 534 943 533 l 869 534 l 869 674 z "},"ෝ":{"ha":1374,"x_min":30,"x_max":1282,"o":"m 463 674 l 102 674 q 31 620 41 674 q 30 604 30 612 l 30 62 q 92 0 33 1 l 400 0 q 469 66 467 4 l 469 374 q 397 442 467 441 l 248 442 l 248 308 l 275 308 q 301 279 298 297 l 301 171 q 277 145 298 146 l 222 145 q 198 171 199 151 l 198 507 q 229 534 209 532 l 463 534 l 463 674 m 1038 674 l 1038 534 l 1089 534 q 1114 511 1112 532 l 1114 171 q 1089 145 1111 146 l 1038 145 l 1038 0 l 1226 0 q 1282 52 1280 3 l 1282 880 l 1114 880 l 1114 674 l 1038 674 z "},"ෘ":{"ha":469,"x_min":30,"x_max":429,"o":"m 30 674 l 362 674 q 429 610 427 671 l 429 0 l 289 0 l 271 54 q 206 0 247 1 l 80 0 q 30 57 31 3 l 30 380 q 76 437 30 430 q 87 438 83 438 l 260 438 l 260 505 q 251 533 260 530 q 232 534 244 534 l 30 534 l 30 674 m 260 304 l 217 304 q 198 282 199 301 l 198 167 q 218 145 203 146 l 235 145 q 260 182 258 149 l 260 304 z "},"ෲ":{"ha":929,"x_min":30,"x_max":888,"o":"m 30 674 l 362 674 q 429 610 427 671 l 429 0 l 289 0 l 271 54 q 206 0 247 1 l 80 0 q 30 57 31 3 l 30 380 q 76 437 30 430 q 87 438 83 438 l 260 438 l 260 505 q 251 533 260 530 q 232 534 244 534 l 30 534 l 30 674 m 260 304 l 217 304 q 198 282 199 301 l 198 167 q 218 145 203 146 l 235 145 q 260 182 258 149 l 260 304 m 490 674 l 822 674 q 888 610 887 671 l 888 0 l 749 0 l 731 54 q 666 0 707 1 l 540 0 q 490 57 491 3 l 490 380 q 536 437 490 430 q 547 438 543 438 l 720 438 l 720 505 q 711 533 720 530 q 692 534 704 534 l 490 534 l 490 674 m 720 304 l 677 304 q 658 282 659 301 l 658 167 q 678 145 663 146 l 694 145 q 720 182 718 149 l 720 304 z "},"ු":{"ha":3,"x_min":-682,"x_max":-57,"o":"m -57 -216 l -682 -216 l -682 -72 l -224 -72 l -224 39 l -126 39 q -57 92 -68 39 l -57 -216 z "},"ූ":{"ha":3,"x_min":-682,"x_max":-57,"o":"m -57 -216 l -216 -216 q -247 -184 -236 -193 q -290 -175 -262 -175 l -326 -175 q -372 -186 -345 -175 l -430 -209 q -500 -221 -468 -221 l -617 -221 q -682 -165 -681 -218 l -682 -39 l -524 -39 l -524 -69 q -500 -94 -521 -92 l -492 -94 q -430 -80 -468 -94 l -385 -62 q -328 -53 -359 -53 l -288 -53 q -239 -61 -251 -53 q -224 -75 -231 -68 l -224 19 l -118 19 q -57 76 -65 19 l -57 -216 z "},"ඹ":{"ha":699,"x_min":30,"x_max":658,"o":"m 198 475 q 222 500 201 499 l 250 500 q 271 477 270 498 l 271 458 q 251 439 269 441 l 198 439 l 198 475 m 30 73 q 73 1 30 9 q 91 0 81 0 l 279 0 q 336 37 319 0 q 343 64 343 50 l 343 178 q 324 201 342 189 q 309 222 311 212 l 309 233 q 323 247 311 245 l 365 247 q 378 233 377 244 l 378 222 q 363 201 377 210 q 345 178 346 183 l 345 64 q 382 5 345 22 q 408 0 396 0 l 597 0 q 656 50 650 0 q 658 73 658 61 l 658 738 q 617 838 658 821 q 564 848 595 848 l 30 848 l 30 703 l 454 703 q 490 671 487 694 l 490 176 q 468 145 488 146 l 427 145 q 406 160 407 148 l 406 165 q 423 186 407 179 q 448 214 446 199 l 448 270 q 415 302 445 301 l 273 302 q 241 270 243 300 l 241 214 q 263 186 241 197 l 264 186 q 282 165 281 176 l 282 160 q 260 145 281 146 l 220 145 q 198 176 199 148 l 198 353 l 359 353 q 429 414 423 353 q 430 431 430 422 l 430 568 q 350 637 427 636 l 113 637 q 33 583 47 637 q 30 560 30 571 l 30 73 z "},"න":{"ha":802,"x_min":30,"x_max":762,"o":"m 430 0 q 515 39 500 0 q 521 81 521 57 l 521 362 q 475 426 521 418 q 456 427 465 427 l 414 427 l 484 506 q 522 529 506 528 l 568 529 q 593 505 593 529 l 593 180 q 582 148 593 152 q 563 145 575 145 l 545 145 l 545 0 l 677 0 q 755 37 742 0 q 762 87 762 56 l 762 589 q 700 673 762 662 q 671 674 686 674 l 484 674 q 389 633 427 674 q 374 616 382 625 l 359 598 q 264 674 340 669 l 30 674 l 30 534 l 208 534 q 239 507 237 532 l 239 452 l 202 407 q 191 400 195 401 q 186 401 187 401 l 186 463 l 30 463 l 30 69 q 65 3 30 14 q 95 0 79 0 l 430 0 m 231 221 l 302 302 l 336 302 q 357 275 355 300 l 357 179 q 347 146 357 151 q 330 145 339 145 l 220 145 q 197 170 198 153 l 197 205 l 203 205 q 231 221 217 206 z "},"ඳ":{"ha":846,"x_min":30,"x_max":836,"o":"m 804 0 l 804 145 l 448 145 q 420 180 423 156 l 420 313 q 450 343 423 342 l 799 343 l 799 602 q 727 674 796 673 l 146 674 q 39 605 68 674 q 30 551 30 579 l 30 0 l 190 0 l 190 518 q 216 551 191 549 l 252 551 l 252 534 l 612 534 q 631 513 629 532 l 631 481 l 331 481 q 252 404 254 479 l 252 68 q 300 1 252 7 q 312 0 305 0 l 410 0 q 372 -50 376 -14 q 370 -76 370 -61 l 370 -171 q 441 -232 373 -231 l 836 -232 l 836 -87 l 574 -87 q 545 -62 547 -84 l 545 -41 q 587 0 548 -1 l 804 0 z "},"ඦ":{"ha":926,"x_min":30,"x_max":940,"o":"m 694 145 l 452 145 q 427 175 429 148 l 427 317 q 456 343 430 342 l 555 343 l 555 601 q 483 673 555 662 q 457 674 469 674 l 146 674 q 39 605 68 674 q 30 551 30 579 l 30 0 l 190 0 l 190 522 q 216 555 191 553 l 260 555 l 260 534 l 403 534 q 425 515 423 532 l 425 483 l 335 483 q 259 407 260 480 l 259 73 q 304 1 259 11 q 327 0 315 0 l 819 0 q 886 47 878 0 q 887 73 887 60 l 887 407 q 811 483 884 481 l 722 483 l 722 515 q 743 534 724 533 l 886 534 l 886 674 l 834 674 q 861 711 853 690 l 940 872 l 760 872 l 678 722 q 628 661 656 682 q 591 601 593 640 l 591 343 l 690 343 q 719 317 718 340 l 719 175 q 694 145 716 146 z "},"ඞ":{"ha":784,"x_min":3,"x_max":742,"o":"m 3 572 q 65 637 3 631 q 80 639 73 639 l 376 639 q 473 552 472 636 l 473 281 l 313 281 q 282 258 283 279 l 282 176 q 308 145 285 146 l 331 145 q 361 179 359 148 l 361 225 l 496 225 l 496 182 q 528 145 499 146 l 551 145 q 574 174 572 148 l 574 650 q 551 690 574 685 q 532 692 543 692 l 114 692 l 114 849 l 643 849 q 742 760 741 846 l 742 68 q 678 0 739 1 l 494 0 q 427 50 442 3 q 385 3 422 16 q 363 0 373 0 l 179 0 q 117 43 125 0 q 114 73 114 57 l 114 297 q 168 374 114 362 q 190 377 179 377 l 331 377 l 331 530 q 302 553 328 552 l 259 553 q 271 538 270 549 l 271 467 q 233 429 267 431 l 65 429 q 3 492 4 431 l 3 572 m 91 545 l 91 513 q 100 505 94 506 l 174 505 q 182 513 180 506 l 182 541 q 172 553 180 551 l 99 553 q 91 545 92 551 z "},"ණ":{"ha":1146,"x_min":30,"x_max":1104,"o":"m 209 510 q 247 540 212 538 l 283 540 l 209 434 l 209 510 m 503 0 q 601 102 600 3 l 601 506 q 632 534 604 533 l 656 534 q 688 500 686 532 l 688 245 l 836 245 l 836 505 q 864 534 838 533 l 907 534 q 935 518 932 534 q 936 503 936 511 l 936 183 q 916 146 936 151 q 902 145 909 145 l 656 145 l 656 0 l 1005 0 q 1104 88 1099 12 l 1104 595 q 1021 674 1101 673 l 845 674 q 768 629 784 673 q 720 673 753 667 q 701 674 712 674 l 659 674 q 586 633 606 673 q 545 673 571 663 l 656 836 l 492 836 l 378 674 l 137 674 q 56 601 57 671 l 56 308 q 73 241 56 267 l 30 180 l 30 18 l 77 69 q 102 52 100 68 q 130 3 102 9 q 175 0 145 0 l 503 0 m 406 145 l 248 145 q 229 150 236 145 q 222 159 222 155 q 221 170 221 163 l 221 171 q 213 183 218 182 l 229 206 l 378 206 l 378 320 l 307 320 l 433 506 l 433 505 l 433 180 q 406 145 431 146 z "},"ඬ":{"ha":949,"x_min":30,"x_max":909,"o":"m 243 446 l 243 315 l 307 315 q 281 259 281 297 l 281 73 q 319 3 281 12 q 346 0 331 0 l 530 0 q 590 37 572 0 q 594 50 593 43 q 661 0 608 1 l 845 0 q 909 68 907 3 l 909 760 q 810 849 906 848 l 281 849 l 281 692 l 699 692 q 739 669 734 692 q 741 650 741 661 l 741 174 q 718 145 738 146 l 693 145 q 662 182 663 148 l 662 251 l 528 251 l 528 179 q 498 145 525 146 l 475 145 q 449 176 450 148 l 449 283 q 480 307 452 305 l 609 307 l 609 564 q 538 635 609 624 q 511 637 525 637 l 146 637 q 39 568 68 637 q 30 514 30 543 l 30 0 l 190 0 l 190 488 q 216 521 191 519 l 282 521 l 282 498 l 420 498 q 448 477 446 496 l 448 446 l 243 446 z "},"ඟ":{"ha":1031,"x_min":30,"x_max":990,"o":"m 495 674 l 146 674 q 39 605 68 674 q 30 551 30 579 l 30 0 l 190 0 l 190 507 q 216 540 191 538 l 258 540 l 258 69 q 293 3 258 14 q 323 0 307 0 l 618 0 q 704 39 689 0 q 709 81 709 57 l 709 347 q 680 391 708 389 l 675 391 l 696 506 q 728 529 704 528 l 798 529 q 822 505 822 529 l 822 180 q 811 148 822 152 q 792 145 804 145 l 773 145 l 773 0 l 905 0 q 983 37 970 0 q 990 87 990 56 l 990 589 q 928 673 990 662 q 899 674 914 674 l 655 674 q 557 605 570 674 l 506 293 l 525 293 q 545 266 544 290 l 545 179 q 536 146 545 151 q 518 145 528 145 l 449 145 q 426 174 427 148 l 426 500 q 441 533 426 529 q 457 534 448 534 l 495 534 l 495 674 z "},"ඤ":{"ha":1377,"x_min":30,"x_max":1364,"o":"m 1333 0 l 1333 145 l 978 145 q 949 180 952 156 l 949 313 q 979 343 952 342 l 1328 343 l 1328 602 q 1256 674 1325 673 l 659 674 q 572 656 609 674 q 551 644 560 652 l 519 623 l 519 627 q 488 671 519 663 q 472 674 480 674 l 146 674 q 39 605 68 674 q 30 551 30 579 l 30 0 l 190 0 l 190 525 q 216 557 191 556 l 250 557 l 250 534 l 365 534 q 397 518 396 533 l 397 515 l 236 374 l 236 275 l 285 275 q 250 190 250 251 l 250 68 q 309 0 252 1 l 445 0 q 496 35 484 0 q 498 39 498 38 q 548 0 507 1 l 670 0 q 741 56 734 0 q 742 69 742 64 l 742 404 q 670 481 739 480 l 562 481 l 589 505 q 625 528 602 515 q 678 534 642 534 l 1141 534 q 1160 513 1158 532 l 1160 481 l 860 481 q 781 404 783 479 l 781 68 q 841 0 787 3 l 939 0 q 901 -50 905 -14 q 899 -76 899 -61 l 899 -171 q 970 -232 902 -231 l 1364 -232 l 1364 -87 l 1103 -87 q 1074 -62 1076 -84 l 1074 -41 q 1116 0 1077 -1 l 1333 0 m 594 331 l 594 178 q 576 146 591 148 l 562 146 q 543 172 544 155 l 543 256 l 450 256 l 450 170 q 430 146 448 148 l 418 146 q 399 174 400 159 l 399 247 q 415 302 399 289 l 415 321 l 377 321 l 416 357 l 574 357 q 594 331 593 354 z "},"ඕ":{"ha":699,"x_min":19,"x_max":658,"o":"m 279 0 q 338 35 321 0 q 343 50 342 43 q 410 0 357 1 l 594 0 q 658 69 656 3 l 658 647 q 617 747 658 730 q 564 757 595 757 l 267 757 q 243 780 244 760 q 279 799 245 798 l 655 799 l 655 913 l 134 913 q 68 857 69 910 l 68 804 q 127 746 71 761 l 19 746 l 19 629 l 454 629 q 490 598 487 621 l 490 174 q 467 145 487 146 l 442 145 q 411 182 412 148 l 411 245 l 277 245 l 277 179 q 247 145 274 146 l 224 145 q 198 171 199 148 l 198 425 q 212 438 201 437 l 224 438 q 236 426 235 435 l 236 349 q 283 308 239 309 l 397 308 q 450 355 449 311 l 450 578 l 357 578 l 357 441 q 345 426 354 427 l 332 426 q 320 442 320 429 l 320 530 q 264 578 317 576 l 110 578 q 30 490 31 575 l 30 65 q 94 0 33 1 l 279 0 z "},"ඔ":{"ha":699,"x_min":30,"x_max":658,"o":"m 397 335 l 283 335 q 236 376 237 338 l 236 471 q 224 483 233 481 l 212 483 q 198 469 199 480 l 198 171 q 224 145 201 146 l 247 145 q 277 179 275 148 l 277 269 l 411 269 l 411 182 q 442 145 414 146 l 467 145 q 490 174 488 148 l 490 650 q 467 690 490 685 q 448 692 458 692 l 30 692 l 30 849 l 559 849 q 658 760 656 846 l 658 68 q 594 0 655 1 l 410 0 q 343 50 355 3 q 301 3 338 16 q 279 0 289 0 l 94 0 q 30 65 31 3 l 30 534 q 110 623 33 621 l 264 623 q 320 575 319 620 l 320 487 q 332 471 323 472 l 345 471 q 357 486 355 473 l 357 623 l 450 623 l 450 382 q 397 335 448 336 z "},"ප":{"ha":696,"x_min":30,"x_max":658,"o":"m 30 73 l 30 407 q 106 483 33 481 l 195 483 l 195 515 q 174 534 193 533 l 31 534 l 31 674 l 228 674 q 324 618 311 674 q 326 601 326 609 l 326 343 l 227 343 q 198 317 199 340 l 198 175 q 222 145 201 146 l 465 145 q 490 175 488 148 l 490 317 q 461 343 487 342 l 362 343 l 362 601 q 434 673 362 662 q 460 674 448 674 l 656 674 l 656 534 l 514 534 q 492 515 494 532 l 492 483 l 582 483 q 658 407 656 480 l 658 73 q 613 1 658 11 q 590 0 602 0 l 98 0 q 31 47 39 0 q 30 73 30 58 z "},"ඵ":{"ha":699,"x_min":30,"x_max":658,"o":"m 397 730 l 469 730 q 486 708 486 728 l 486 673 l 427 673 q 399 685 403 673 q 397 699 397 692 l 397 730 m 98 0 l 590 0 q 656 47 648 0 q 658 73 658 60 l 658 758 q 614 844 658 830 q 568 849 595 849 l 187 849 l 187 731 l 248 731 l 248 643 q 286 582 248 590 q 311 579 297 579 l 490 579 l 490 175 q 465 145 487 146 l 222 145 q 198 175 199 148 l 198 232 q 227 258 201 256 l 363 258 l 363 484 q 278 563 361 562 l 30 563 l 30 434 l 174 434 q 195 415 194 431 l 195 369 l 106 369 q 30 294 31 366 l 30 73 q 75 1 30 11 q 98 0 85 0 z "},"ර":{"ha":632,"x_min":30,"x_max":594,"o":"m 30 575 q 85 675 31 635 l 353 871 l 594 871 l 326 674 l 506 674 q 589 613 578 674 q 590 594 590 604 l 590 65 q 547 3 590 14 q 529 0 537 0 l 91 0 q 30 65 34 8 l 30 575 m 198 496 l 198 187 q 231 145 199 146 l 385 145 q 422 187 418 157 l 422 499 q 388 534 416 532 l 236 534 q 199 510 202 534 q 198 496 198 503 z "},"ස":{"ha":765,"x_min":-8,"x_max":724,"o":"m 30 296 l 30 73 q 75 1 30 11 q 98 0 85 0 l 305 0 q 370 37 350 0 q 377 62 377 50 q 419 5 377 23 q 449 0 434 0 l 656 0 q 723 47 715 0 q 724 73 724 60 l 724 401 q 658 481 724 475 q 637 483 648 483 l 526 483 l 526 514 q 555 534 526 534 l 723 534 l 723 674 l 494 674 q 397 618 411 674 q 396 601 396 609 l 396 343 l 525 343 q 556 320 555 342 l 556 176 q 532 145 553 146 l 490 145 q 453 180 454 148 l 453 258 l 301 258 l 301 180 q 266 145 298 146 l 222 145 q 198 176 199 148 l 198 320 q 229 343 201 342 l 358 343 l 358 601 q 286 673 358 662 q 260 674 273 674 l 31 674 l 31 534 l 201 534 q 228 514 227 533 l 228 483 l -8 483 l -8 351 l 56 351 q 30 296 30 332 z "},"ශ":{"ha":803,"x_min":30,"x_max":762,"o":"m 556 130 l 486 130 l 486 0 l 677 0 q 755 37 742 0 q 762 87 762 56 l 762 589 q 700 673 762 662 q 671 674 686 674 l 399 674 q 301 605 313 674 l 250 293 l 269 293 q 289 266 288 290 l 289 179 q 279 146 289 151 q 262 145 271 145 l 221 145 q 198 174 199 148 l 198 500 q 213 533 198 529 q 229 534 220 534 l 256 534 l 256 674 l 110 674 q 33 614 45 674 q 30 591 30 602 l 30 83 q 100 0 33 1 l 362 0 q 448 39 433 0 q 453 81 453 57 l 453 347 q 423 391 452 389 l 419 391 l 439 506 q 472 529 448 528 l 574 529 q 598 505 598 529 l 598 426 l 547 426 q 487 372 488 423 l 487 232 q 556 130 488 151 m 609 320 l 609 174 q 568 217 574 187 q 566 240 566 228 l 566 308 q 575 320 568 319 l 609 320 z "},"ෂ":{"ha":696,"x_min":30,"x_max":658,"o":"m 30 73 q 75 1 30 11 q 98 0 85 0 l 590 0 q 656 47 648 0 q 658 73 658 60 l 658 397 q 627 464 656 445 l 642 480 q 658 532 658 502 l 658 610 q 593 674 648 669 l 442 674 q 347 621 362 674 q 345 601 345 610 l 345 343 l 373 343 l 293 277 q 266 216 266 255 l 266 180 l 420 180 l 420 208 q 442 258 420 233 l 444 259 l 490 307 l 490 175 q 465 145 487 146 l 222 145 q 198 175 199 148 l 198 317 q 227 343 201 342 l 313 343 l 313 601 q 241 673 313 662 q 216 674 228 674 l 31 674 l 31 534 l 161 534 q 183 515 182 532 l 183 483 l 106 483 q 30 407 31 480 l 30 73 m 475 473 l 475 515 q 496 534 477 533 l 532 534 q 544 524 543 532 q 526 494 543 509 l 505 473 l 475 473 z "},"ත":{"ha":803,"x_min":16,"x_max":762,"o":"m 358 330 q 338 355 355 354 l 197 355 l 156 320 l 212 320 l 212 301 q 195 245 195 286 l 195 172 q 214 145 203 146 l 340 145 q 358 176 357 153 l 358 330 m 300 623 l 326 646 q 411 674 359 674 l 682 674 q 760 621 747 674 q 762 602 762 612 l 762 66 q 689 0 758 3 l 545 0 l 545 145 l 574 145 q 593 168 591 148 l 593 510 q 566 534 590 533 l 425 534 q 381 517 401 533 l 340 481 l 449 481 q 521 404 518 476 l 521 69 q 449 0 514 4 l 90 0 q 30 68 31 3 l 30 190 q 65 275 31 255 l 16 275 l 16 374 q 178 515 18 376 l 178 518 q 145 534 175 534 l 30 534 l 30 674 l 251 674 q 300 625 296 669 l 300 623 z "},"ථ":{"ha":699,"x_min":30,"x_max":658,"o":"m 397 730 l 469 730 q 486 708 486 728 l 486 673 l 427 673 q 399 685 403 673 q 397 699 397 692 l 397 730 m 345 389 l 345 534 l 106 534 q 30 460 31 532 l 30 73 q 75 1 30 11 q 98 0 85 0 l 590 0 q 656 47 648 0 q 658 73 658 60 l 658 758 q 614 844 658 830 q 568 849 595 849 l 187 849 l 187 731 l 248 731 l 248 643 q 286 582 248 590 q 311 579 297 579 l 488 579 l 488 175 q 464 145 486 146 l 222 145 q 198 175 199 148 l 198 363 q 227 389 201 388 l 345 389 z "},"ට":{"ha":699,"x_min":30,"x_max":658,"o":"m 345 492 l 345 637 l 106 637 q 30 563 31 635 l 30 73 q 75 1 30 11 q 98 0 85 0 l 590 0 q 656 47 648 0 q 658 73 658 60 l 658 738 q 617 838 658 821 q 564 848 595 848 l 30 848 l 30 703 l 454 703 q 490 671 487 694 l 490 175 q 465 145 487 146 l 222 145 q 198 175 199 148 l 198 467 q 227 492 201 491 l 345 492 z "},"ඨ":{"ha":699,"x_min":30,"x_max":658,"o":"m 397 730 l 471 730 q 487 708 487 728 l 487 673 l 427 673 q 399 685 403 673 q 397 699 397 692 l 397 730 m 279 0 q 338 35 321 0 q 343 50 342 43 q 410 0 357 1 l 594 0 q 658 68 656 3 l 658 758 q 614 844 658 830 q 568 849 595 849 l 187 849 l 187 731 l 248 731 l 248 643 q 286 582 248 590 q 311 579 297 579 l 490 579 l 490 172 q 465 145 487 146 l 441 145 q 411 182 412 148 l 411 301 l 277 301 l 277 179 q 247 145 274 146 l 224 145 q 198 171 199 148 l 198 374 q 212 388 201 387 l 351 388 l 351 534 l 110 534 q 30 446 35 522 l 30 65 q 94 0 33 1 l 279 0 z "},"උ":{"ha":707,"x_min":30,"x_max":670,"o":"m 126 674 l 578 674 q 666 594 665 671 l 666 343 l 240 343 q 201 330 206 343 q 198 301 198 321 l 198 -27 q 212 -57 198 -53 q 228 -58 218 -58 l 476 -58 q 502 -31 500 -52 l 502 133 l 670 133 l 670 -125 q 612 -206 670 -198 q 590 -208 601 -208 l 103 -208 q 30 -117 31 -205 l 30 384 q 130 481 33 480 l 498 481 l 498 514 q 477 534 495 533 l 126 534 l 126 674 z "},"ඌ":{"ha":1206,"x_min":30,"x_max":1183,"o":"m 126 674 l 578 674 q 666 594 665 671 l 666 343 l 240 343 q 201 330 206 343 q 198 301 198 321 l 198 -27 q 212 -57 198 -53 q 228 -58 218 -58 l 476 -58 q 502 -31 500 -52 l 502 133 l 670 133 l 670 -125 q 612 -206 670 -198 q 590 -208 601 -208 l 103 -208 q 30 -117 31 -205 l 30 384 q 130 481 33 480 l 498 481 l 498 514 q 477 534 495 533 l 126 534 l 126 674 m 741 674 l 741 363 q 785 319 743 320 l 917 319 q 987 366 986 321 l 987 513 q 1001 534 989 533 l 1015 534 q 1027 515 1025 532 l 1027 168 q 1012 145 1023 146 l 947 145 q 926 168 928 156 l 926 233 l 745 233 l 745 64 q 799 0 750 4 l 1118 0 q 1181 49 1173 0 q 1183 62 1183 56 l 1183 618 q 1146 671 1183 658 q 1126 674 1137 674 l 916 674 q 880 644 884 674 q 879 620 879 633 l 879 490 q 865 457 876 458 l 849 457 q 837 487 837 465 l 837 674 l 741 674 z "},"ව":{"ha":699,"x_min":30,"x_max":658,"o":"m 564 848 l 30 848 l 30 703 l 454 703 q 490 671 487 694 l 490 175 q 465 145 487 146 l 222 145 q 198 175 199 148 l 198 296 q 227 321 201 320 l 363 321 l 363 559 q 278 637 355 633 l 30 637 l 30 498 l 174 498 q 195 479 194 495 l 195 449 l 106 449 q 30 374 31 446 l 30 73 q 75 1 30 11 q 98 0 85 0 l 590 0 q 656 47 648 0 q 658 73 658 60 l 658 738 q 617 838 658 821 q 564 848 595 848 z "},"ය":{"ha":765,"x_min":30,"x_max":724,"o":"m 319 674 l 319 534 l 225 534 q 198 499 199 532 l 198 176 q 222 145 201 146 l 266 145 q 301 180 300 148 l 301 258 l 453 258 l 453 180 q 490 145 456 146 l 532 145 q 556 176 555 148 l 556 320 q 525 343 553 342 l 368 343 l 368 591 q 465 674 378 669 l 723 674 l 723 534 l 549 534 q 521 514 521 534 l 521 483 l 637 483 q 723 422 715 483 q 724 401 724 411 l 724 73 q 680 1 724 11 q 656 0 669 0 l 449 0 q 384 37 404 0 q 377 62 377 50 q 335 5 377 23 q 305 0 320 0 l 98 0 q 31 47 39 0 q 30 73 30 58 l 30 594 q 106 674 33 673 l 319 674 z "},"෴":{"ha":2493,"x_min":54,"x_max":2432,"o":"m 220 300 l 301 163 l 266 144 l 274 133 q 296 138 279 129 l 457 225 q 543 229 507 254 q 555 220 544 228 l 674 361 q 716 369 696 385 q 726 355 722 362 l 743 315 l 895 453 q 940 456 917 472 q 952 437 949 448 l 966 376 l 1119 506 q 1165 509 1142 528 q 1176 490 1173 500 l 1196 396 l 1360 533 q 1404 537 1386 553 q 1413 518 1412 529 l 1423 372 l 1600 479 q 1657 476 1641 506 q 1663 445 1664 463 l 1648 319 l 1793 384 q 1846 376 1831 401 q 1849 349 1851 363 l 1830 263 l 1941 317 q 1990 313 1973 334 q 1992 283 1998 300 l 1971 222 q 1998 227 1992 227 q 2036 216 2017 225 l 2190 132 q 2212 129 2207 123 l 2219 141 l 2186 159 l 2266 294 l 2399 214 q 2410 155 2431 197 q 2406 148 2409 151 l 2325 9 q 2250 -14 2296 -22 q 2230 -7 2239 -12 l 2021 106 q 1963 114 1990 125 l 1797 43 l 1826 144 l 1636 57 l 1664 191 l 1470 102 l 1484 247 l 1282 118 l 1267 301 l 1086 155 l 1055 293 l 872 138 l 848 247 l 686 103 l 665 161 l 583 73 l 519 119 q 465 113 503 130 l 256 0 q 176 1 213 -23 q 161 16 167 8 l 80 153 q 81 217 54 195 q 87 221 84 220 l 220 300 z "},"ඐ":{"ha":1670,"x_min":30,"x_max":1610,"o":"m 1009 174 l 1009 138 q 996 130 1006 132 l 941 130 q 929 140 930 133 l 929 174 q 941 183 932 182 l 997 183 q 1009 174 1008 180 m 1006 282 q 997 286 1001 286 l 922 286 q 898 283 911 286 l 898 407 q 822 483 895 481 l 732 483 l 732 515 q 754 534 735 533 l 897 534 l 897 674 l 852 674 l 852 690 q 878 705 854 704 l 971 705 q 1006 673 1005 703 l 1006 282 m 830 0 q 890 28 876 1 q 932 19 910 19 l 1065 19 q 1138 106 1135 24 l 1138 715 q 1078 807 1138 784 q 1031 815 1057 815 l 818 815 q 730 765 742 815 q 727 730 727 750 l 727 674 l 700 674 q 604 618 617 674 q 602 601 602 609 l 602 343 l 701 343 q 730 317 728 340 l 730 175 q 705 145 727 146 l 463 145 q 438 175 439 148 l 438 317 q 467 343 441 342 l 566 343 l 566 601 q 494 673 566 662 q 468 674 480 674 l 441 674 l 441 730 q 399 808 441 795 q 350 815 378 815 l 137 815 q 34 747 54 815 q 30 715 30 731 l 30 106 q 103 19 33 20 l 236 19 q 278 28 259 19 q 338 0 293 0 l 830 0 m 159 174 q 171 183 161 182 l 227 183 q 239 174 237 180 l 239 140 q 227 130 236 132 l 172 130 q 159 138 160 132 l 159 174 m 161 283 l 161 673 q 197 705 164 704 l 290 705 q 316 690 315 704 l 316 674 l 271 674 l 271 534 l 414 534 q 435 515 434 532 l 435 483 l 346 483 q 270 407 271 480 l 270 283 q 245 286 256 286 l 170 286 q 161 283 164 286 m 1195 674 l 1195 363 q 1240 319 1198 320 l 1339 319 q 1396 366 1394 321 l 1396 513 q 1409 534 1397 533 l 1428 534 q 1440 515 1439 532 l 1440 168 q 1426 145 1436 146 l 1383 145 q 1363 168 1364 156 l 1363 233 l 1195 233 l 1195 64 q 1249 0 1200 4 l 1545 0 q 1609 49 1600 0 q 1610 62 1610 56 l 1610 618 q 1573 671 1610 658 q 1553 674 1564 674 l 1388 674 q 1337 620 1339 671 l 1337 490 q 1324 457 1335 458 l 1303 457 q 1291 487 1291 465 l 1291 674 l 1195 674 z "},"ඍ":{"ha":1233,"x_min":30,"x_max":1192,"o":"m 793 674 l 793 534 l 996 534 q 1023 524 1020 534 q 1024 505 1024 517 l 1024 438 l 850 438 q 795 393 802 438 q 793 380 793 387 l 793 57 q 844 0 796 1 l 970 0 q 1035 54 1012 1 l 1053 0 l 1192 0 l 1192 610 q 1126 674 1190 673 l 793 674 m 1024 304 l 1024 182 q 998 145 1020 149 l 982 145 q 962 167 963 153 l 962 282 q 981 304 964 302 l 1024 304 m 377 62 q 419 5 377 23 q 449 0 434 0 l 656 0 q 723 47 715 0 q 724 73 724 60 l 724 401 q 658 481 724 475 q 637 483 648 483 l 526 483 l 526 514 q 555 534 526 534 l 723 534 l 723 674 l 494 674 q 397 618 411 674 q 396 601 396 609 l 396 343 l 525 343 q 556 320 555 342 l 556 176 q 532 145 553 146 l 490 145 q 453 180 454 148 l 453 258 l 301 258 l 301 180 q 264 145 298 146 l 222 145 q 198 176 199 148 l 198 320 q 229 343 201 342 l 358 343 l 358 601 q 286 673 358 662 q 260 674 273 674 l 31 674 l 31 534 l 199 534 q 228 514 228 534 l 228 483 l 117 483 q 31 422 39 483 q 30 401 30 412 l 30 73 q 75 1 30 11 q 98 0 85 0 l 305 0 q 370 37 350 0 q 377 62 377 50 z "},"ඎ":{"ha":1686,"x_min":30,"x_max":1645,"o":"m 1246 674 l 1246 534 l 1449 534 q 1476 524 1473 534 q 1477 505 1477 517 l 1477 438 l 1303 438 q 1246 380 1252 427 l 1246 57 q 1297 0 1249 1 l 1421 0 q 1487 54 1466 1 l 1506 0 l 1645 0 l 1645 610 q 1579 674 1643 673 l 1246 674 m 1477 304 l 1477 182 q 1451 145 1472 151 l 1435 145 q 1415 167 1416 153 l 1415 282 q 1432 304 1417 302 l 1477 304 m 787 674 l 787 534 l 989 534 q 1016 524 1013 534 q 1017 505 1017 517 l 1017 438 l 844 438 q 787 380 792 427 l 787 57 q 837 0 789 1 l 962 0 q 1027 54 1006 1 l 1046 0 l 1185 0 l 1185 610 q 1119 674 1183 673 l 787 674 m 1017 304 l 1017 182 q 991 145 1012 151 l 975 145 q 955 167 956 153 l 955 282 q 972 304 958 302 l 1017 304 m 377 62 q 419 5 377 23 q 449 0 434 0 l 656 0 q 723 47 715 0 q 724 73 724 60 l 724 401 q 658 481 724 475 q 637 483 648 483 l 526 483 l 526 514 q 555 534 526 534 l 723 534 l 723 674 l 494 674 q 397 618 411 674 q 396 601 396 609 l 396 343 l 525 343 q 556 320 555 342 l 556 176 q 532 145 553 146 l 490 145 q 453 180 454 148 l 453 258 l 301 258 l 301 180 q 264 145 298 146 l 222 145 q 198 176 199 148 l 198 320 q 229 343 201 342 l 358 343 l 358 601 q 286 673 358 662 q 260 674 273 674 l 31 674 l 31 534 l 199 534 q 228 514 228 534 l 228 483 l 117 483 q 31 422 39 483 q 30 401 30 412 l 30 73 q 75 1 30 11 q 98 0 85 0 l 305 0 q 370 37 350 0 q 377 62 377 50 z "},"/":{"ha":624,"x_min":14,"x_max":617,"o":"m 431 916 l 14 -130 l 202 -130 l 617 916 l 431 916 z "}," ":{"ha":271,"x_min":0,"x_max":0,"o":""},"£":{"ha":602,"x_min":47,"x_max":568,"o":"m 568 0 l 568 175 l 279 175 q 323 262 323 197 l 323 350 l 509 350 l 509 492 l 323 492 l 323 621 q 342 640 326 639 l 555 640 l 555 821 l 366 821 q 122 604 123 818 l 122 492 l 47 492 l 47 350 l 122 350 l 122 195 q 102 175 122 175 l 47 175 l 47 0 l 568 0 z "},"∑":{"ha":591,"x_min":20,"x_max":560,"o":"m 20 0 l 560 0 l 560 175 l 255 175 l 430 445 l 277 686 l 560 686 l 560 861 l 33 861 l 33 715 l 216 439 l 20 146 l 20 0 z "},"t":{"ha":452,"x_min":30,"x_max":439,"o":"m 439 665 l 290 665 l 290 834 l 98 834 l 98 665 l 30 665 l 30 515 l 98 515 l 98 203 q 210 16 98 53 q 328 0 259 0 l 439 0 l 439 163 l 309 163 q 290 182 292 165 l 290 515 l 439 515 l 439 665 z "},"ť":{"ha":484,"x_min":30,"x_max":471,"o":"m 439 665 l 290 665 l 290 834 l 98 834 l 98 665 l 30 665 l 30 515 l 98 515 l 98 203 q 210 16 98 53 q 328 0 259 0 l 439 0 l 439 163 l 309 163 q 290 182 292 165 l 290 515 l 439 515 l 439 665 m 331 850 l 377 850 q 334 738 373 798 l 382 699 q 471 875 469 784 l 471 1004 l 331 1004 l 331 850 z "},"þ":{"ha":665,"x_min":75,"x_max":610,"o":"m 269 -258 l 269 -3 l 407 -3 q 587 66 548 -3 q 610 180 610 107 l 610 509 q 517 667 610 639 q 434 678 481 678 l 400 678 q 269 575 292 677 l 267 916 l 75 916 l 75 -258 l 269 -258 m 269 503 q 288 522 271 521 l 401 522 q 420 503 419 519 l 420 175 q 401 156 418 157 l 269 156 l 269 503 z "},"¾":{"ha":1202,"x_min":34,"x_max":1175,"o":"m 434 471 l 434 503 q 370 605 433 576 q 431 700 430 633 l 431 730 q 331 861 431 838 q 278 867 307 867 l 37 863 l 37 734 l 256 734 q 269 722 269 734 l 269 680 q 256 667 266 669 l 87 667 l 87 544 l 260 544 q 273 532 273 544 l 273 479 q 260 467 273 467 l 34 467 l 34 338 l 282 335 q 433 444 416 334 q 434 471 434 457 m 760 875 l 263 -14 l 416 -14 l 911 875 l 760 875 m 1086 0 l 1086 103 l 1175 103 l 1175 232 l 1086 232 l 1086 528 l 924 532 q 830 492 861 533 q 800 445 818 476 l 666 205 l 666 103 l 929 103 l 929 0 l 1086 0 m 913 389 q 928 399 920 399 l 929 399 l 929 232 l 821 232 l 913 389 z "},"³":{"ha":502,"x_min":34,"x_max":434,"o":"m 434 471 l 434 503 q 370 605 433 576 q 431 700 430 633 l 431 730 q 331 861 431 838 q 278 867 307 867 l 37 863 l 37 734 l 256 734 q 269 722 269 734 l 269 680 q 256 667 266 669 l 87 667 l 87 544 l 260 544 q 273 532 273 544 l 273 479 q 260 467 273 467 l 34 467 l 34 338 l 282 335 q 433 444 416 334 q 434 471 434 457 z "},"˜":{"ha":620,"x_min":87,"x_max":524,"o":"m 199 764 q 231 819 201 818 q 316 789 245 819 q 407 766 370 766 q 524 948 522 769 l 410 948 q 373 894 404 897 q 286 924 354 894 q 195 947 231 947 q 96 864 117 947 q 87 765 87 823 l 199 764 z "},"™":{"ha":960,"x_min":14,"x_max":906,"o":"m 823 875 l 783 875 l 658 644 l 551 840 q 515 872 534 868 q 490 875 505 875 l 411 875 l 411 336 l 545 336 l 545 609 l 612 486 l 685 486 l 761 625 l 761 336 l 906 336 l 906 803 q 823 875 903 873 m 270 336 l 270 754 l 374 754 l 374 875 l 14 875 l 14 754 l 118 754 l 118 336 l 270 336 z "},"²":{"ha":483,"x_min":45,"x_max":445,"o":"m 45 502 l 45 338 l 439 338 l 439 467 l 208 467 l 208 479 q 222 505 209 498 l 359 570 q 441 648 430 604 q 445 678 445 663 l 445 738 q 336 865 445 857 q 313 867 326 867 l 58 863 l 58 734 l 270 734 q 282 722 281 731 l 282 707 q 270 690 281 697 l 122 618 q 54 559 68 591 q 45 502 45 536 z "},"u":{"ha":658,"x_min":54,"x_max":590,"o":"m 266 -14 q 401 106 385 -11 l 415 0 l 590 0 l 587 665 l 395 665 l 397 142 l 266 142 q 247 161 248 145 l 247 665 l 54 665 l 54 156 q 148 -3 54 26 q 231 -14 183 -14 l 266 -14 z "},"ú":{"ha":658,"x_min":54,"x_max":590,"o":"m 266 -14 q 401 106 385 -11 l 415 0 l 590 0 l 587 665 l 395 665 l 397 142 l 266 142 q 247 161 248 145 l 247 665 l 54 665 l 54 156 q 148 -3 54 26 q 231 -14 183 -14 l 266 -14 m 241 747 l 330 974 l 518 972 l 380 747 l 241 747 z "},"û":{"ha":658,"x_min":54,"x_max":590,"o":"m 266 -14 q 401 106 385 -11 l 415 0 l 590 0 l 587 665 l 395 665 l 397 142 l 266 142 q 247 161 248 145 l 247 665 l 54 665 l 54 156 q 148 -3 54 26 q 231 -14 183 -14 l 266 -14 m 414 967 l 222 967 l 84 747 l 235 747 l 316 878 l 388 747 l 544 747 l 414 967 z "},"ü":{"ha":658,"x_min":54,"x_max":590,"o":"m 266 -14 q 401 106 385 -11 l 415 0 l 590 0 l 587 665 l 395 665 l 397 142 l 266 142 q 247 161 248 145 l 247 665 l 54 665 l 54 156 q 148 -3 54 26 q 231 -14 183 -14 l 266 -14 m 267 768 l 267 929 l 111 929 l 111 768 l 267 768 m 525 768 l 525 929 l 369 929 l 369 768 l 525 768 z "},"ù":{"ha":658,"x_min":54,"x_max":590,"o":"m 266 -14 q 401 106 385 -11 l 415 0 l 590 0 l 587 665 l 395 665 l 397 142 l 266 142 q 247 161 248 145 l 247 665 l 54 665 l 54 156 q 148 -3 54 26 q 231 -14 183 -14 l 266 -14 m 118 972 l 304 974 l 391 747 l 262 747 l 118 972 z "},"ű":{"ha":658,"x_min":54,"x_max":636,"o":"m 266 -14 q 401 106 385 -11 l 415 0 l 590 0 l 587 665 l 395 665 l 397 142 l 266 142 q 247 161 248 145 l 247 665 l 54 665 l 54 156 q 148 -3 54 26 q 231 -14 183 -14 l 266 -14 m 129 747 l 212 974 l 391 972 l 262 747 l 129 747 m 363 747 l 453 974 l 636 972 l 496 747 l 363 747 z "},"ū":{"ha":658,"x_min":54,"x_max":590,"o":"m 266 -14 q 401 106 385 -11 l 415 0 l 590 0 l 587 665 l 395 665 l 397 142 l 266 142 q 247 161 248 145 l 247 665 l 54 665 l 54 156 q 148 -3 54 26 q 231 -14 183 -14 l 266 -14 m 503 906 l 121 906 l 121 770 l 503 770 l 503 906 z "},"_":{"ha":620,"x_min":27,"x_max":593,"o":"m 593 -50 l 27 -50 l 27 -165 l 593 -165 l 593 -50 z "}," ":{"ha":237,"x_min":0,"x_max":0,"o":""},"­":{"ha":444,"x_min":34,"x_max":410,"o":"m 410 473 l 34 473 l 34 317 l 410 317 l 410 473 z "},"µ":{"ha":658,"x_min":54,"x_max":590,"o":"m 243 -258 l 228 15 q 292 -14 248 -14 l 308 -14 q 400 87 382 -14 q 403 104 401 96 l 415 0 l 590 0 l 587 665 l 395 665 l 397 142 l 266 142 q 247 161 248 145 l 247 665 l 54 665 l 54 -258 l 243 -258 z "},"Ģ":{"ha":753,"x_min":75,"x_max":692,"o":"m 448 -14 q 692 203 690 -11 l 692 486 l 407 486 l 407 319 l 502 319 l 502 186 q 483 167 499 168 l 297 167 q 278 186 279 170 l 278 675 q 297 694 281 693 l 674 694 l 674 875 l 319 875 q 75 658 76 872 l 75 203 q 319 -14 77 -12 l 448 -14 m 315 -240 l 366 -240 q 317 -363 362 -298 l 372 -408 q 471 -213 469 -313 l 471 -68 l 315 -68 l 315 -240 z "},"ģ":{"ha":650,"x_min":54,"x_max":590,"o":"m 256 841 l 309 841 q 274 742 307 798 l 328 699 q 414 871 414 777 l 414 1012 l 256 1012 l 256 841 m 396 161 q 377 142 393 144 l 263 142 q 244 161 245 145 l 244 487 q 263 506 247 505 l 396 506 l 396 161 m 377 -111 l 85 -111 l 85 -271 l 359 -271 q 575 -165 534 -271 q 590 -68 590 -125 l 590 665 l 258 669 q 76 598 115 670 q 54 486 54 557 l 54 156 q 148 -3 54 26 q 231 -14 183 -14 l 264 -14 q 396 88 374 -12 l 396 -92 q 377 -111 393 -110 z "},"Ķ":{"ha":799,"x_min":95,"x_max":799,"o":"m 422 346 q 441 332 434 346 q 442 327 441 330 l 587 0 l 799 0 l 661 304 q 586 419 618 395 q 559 434 572 429 q 631 526 598 453 q 646 562 637 541 l 769 861 l 570 861 l 441 540 q 420 521 429 522 l 296 521 l 296 861 l 95 861 l 95 0 l 296 0 l 296 346 l 422 346 m 335 -240 l 387 -240 q 338 -363 382 -298 l 392 -408 q 491 -213 490 -313 l 491 -68 l 335 -68 l 335 -240 z "},"ķ":{"ha":659,"x_min":68,"x_max":656,"o":"m 368 267 q 388 248 382 264 l 458 0 l 656 0 l 591 220 q 525 343 562 317 q 499 357 513 351 q 556 477 532 384 l 606 665 l 414 665 l 359 449 q 339 430 353 431 l 258 430 l 258 916 l 68 916 l 68 0 l 258 0 l 258 267 l 368 267 m 259 -240 l 311 -240 q 262 -363 307 -298 l 316 -408 q 415 -213 414 -313 l 415 -68 l 259 -68 l 259 -240 z "},"Ļ":{"ha":589,"x_min":88,"x_max":582,"o":"m 582 175 l 289 175 l 289 861 l 88 861 l 88 0 l 582 0 l 582 175 m 251 -240 l 302 -240 q 254 -363 298 -298 l 308 -408 q 407 -213 406 -313 l 407 -68 l 251 -68 l 251 -240 z "},"ļ":{"ha":342,"x_min":75,"x_max":267,"o":"m 267 0 l 267 916 l 75 916 l 75 0 l 267 0 m 92 -240 l 144 -240 q 95 -363 140 -298 l 149 -408 q 248 -213 247 -313 l 248 -68 l 92 -68 l 92 -240 z "},"Ņ":{"ha":814,"x_min":75,"x_max":739,"o":"m 597 0 l 739 0 l 739 861 l 567 861 l 567 345 l 216 861 l 75 861 l 75 0 l 247 0 l 247 517 l 597 0 m 327 -240 l 378 -240 q 330 -363 374 -298 l 384 -408 q 483 -213 481 -313 l 483 -68 l 327 -68 l 327 -240 z "},"ņ":{"ha":658,"x_min":68,"x_max":604,"o":"m 392 678 q 256 559 273 675 l 243 665 l 68 665 l 71 0 l 263 0 l 260 503 q 279 522 263 521 l 392 522 q 411 503 410 519 l 411 0 l 604 0 l 604 509 q 510 667 604 639 q 427 678 475 678 l 392 678 m 256 -240 l 308 -240 q 259 -363 304 -298 l 313 -408 q 412 -213 411 -313 l 412 -68 l 256 -68 l 256 -240 z "},"Ŗ":{"ha":774,"x_min":95,"x_max":747,"o":"m 296 0 l 296 308 l 430 308 q 450 293 445 308 q 453 286 452 290 l 547 0 l 747 0 l 663 239 q 591 336 636 309 q 711 517 701 391 q 712 540 712 529 l 712 644 q 576 852 712 804 q 461 868 525 869 l 95 861 l 95 0 l 296 0 m 490 693 q 509 674 507 690 l 509 500 q 490 481 506 483 l 296 481 l 296 693 l 490 693 m 335 -240 l 387 -240 q 338 -363 382 -298 l 392 -408 q 491 -213 490 -313 l 491 -68 l 335 -68 l 335 -240 z "},"ŗ":{"ha":416,"x_min":64,"x_max":422,"o":"m 388 678 q 252 559 269 675 l 239 665 l 64 665 l 66 0 l 259 0 l 256 490 q 275 509 259 507 l 422 509 l 422 678 l 388 678 m 88 -240 l 140 -240 q 91 -363 136 -298 l 145 -408 q 244 -213 243 -313 l 244 -68 l 88 -68 l 88 -240 z "},"Ş":{"ha":665,"x_min":37,"x_max":631,"o":"m 259 524 q 240 543 241 526 l 240 667 q 259 686 243 685 l 598 686 l 598 861 l 288 868 q 54 743 107 872 q 37 644 37 699 l 37 570 q 174 359 37 408 q 288 342 224 342 l 408 342 q 427 323 426 339 l 427 194 q 408 175 425 176 l 58 175 l 58 0 l 251 -4 l 222 -140 l 332 -140 q 342 -149 340 -142 l 342 -190 q 332 -199 339 -198 l 209 -199 l 209 -298 l 328 -298 q 449 -190 448 -296 l 449 -138 q 365 -53 449 -61 q 340 -52 353 -52 l 331 -52 l 339 -5 l 380 -7 q 613 118 560 -11 q 631 217 631 163 l 631 296 q 494 506 631 457 q 380 524 444 524 l 259 524 z "},"ş":{"ha":555,"x_min":41,"x_max":528,"o":"m 351 -1 q 517 87 486 -1 q 528 168 528 121 l 528 229 q 453 391 528 354 q 324 412 408 412 l 254 412 q 235 431 236 415 l 235 496 q 254 515 237 514 l 487 514 l 487 677 l 251 678 q 60 590 99 680 q 41 481 41 547 l 41 445 q 117 282 41 319 q 244 260 163 260 l 319 260 q 338 241 336 258 l 338 174 q 319 155 335 156 l 54 155 l 56 -1 l 216 -1 l 187 -140 l 297 -140 q 307 -149 305 -142 l 307 -190 q 297 -199 304 -198 l 174 -199 l 174 -298 l 293 -298 q 414 -190 412 -296 l 414 -138 q 330 -53 414 -61 q 305 -52 317 -52 l 296 -52 l 305 -1 l 351 -1 z "},"Ţ":{"ha":605,"x_min":7,"x_max":598,"o":"m 403 0 l 403 686 l 598 686 l 598 861 l 7 861 l 7 686 l 202 686 l 202 0 l 231 0 l 201 -140 l 311 -140 q 320 -149 319 -142 l 320 -190 q 311 -199 317 -198 l 187 -199 l 187 -298 l 307 -298 q 427 -190 426 -296 l 427 -138 q 343 -53 427 -61 q 319 -52 331 -52 l 309 -52 l 319 0 l 403 0 z "},"ţ":{"ha":452,"x_min":30,"x_max":439,"o":"m 439 665 l 290 665 l 290 834 l 98 834 l 98 665 l 30 665 l 30 515 l 98 515 l 98 203 q 199 20 99 60 l 165 -140 l 275 -140 q 285 -149 283 -142 l 285 -190 q 275 -199 282 -198 l 152 -199 l 152 -298 l 271 -298 q 392 -190 391 -296 l 392 -138 q 308 -53 392 -61 q 283 -52 296 -52 l 274 -52 l 283 1 q 328 0 300 0 l 439 0 l 439 163 l 309 163 q 290 182 292 165 l 290 515 l 439 515 l 439 665 z "},"Ș":{"ha":665,"x_min":37,"x_max":631,"o":"m 259 524 q 240 543 241 526 l 240 667 q 259 686 243 685 l 598 686 l 598 861 l 288 868 q 54 743 107 872 q 37 644 37 699 l 37 570 q 174 359 37 408 q 288 342 224 342 l 408 342 q 427 323 426 339 l 427 194 q 408 175 425 176 l 58 175 l 58 0 l 380 -7 q 613 118 560 -11 q 631 217 631 163 l 631 296 q 494 506 631 457 q 380 524 444 524 l 259 524 m 243 -240 l 294 -240 q 245 -363 290 -298 l 300 -408 q 399 -213 397 -313 l 399 -68 l 243 -68 l 243 -240 z "},"ș":{"ha":555,"x_min":41,"x_max":528,"o":"m 351 -1 q 517 87 486 -1 q 528 168 528 121 l 528 229 q 453 391 528 354 q 324 412 408 412 l 254 412 q 235 431 236 415 l 235 496 q 254 515 237 514 l 487 514 l 487 677 l 251 678 q 60 590 99 680 q 41 481 41 547 l 41 445 q 117 282 41 319 q 244 260 163 260 l 319 260 q 338 241 336 258 l 338 174 q 319 155 335 156 l 54 155 l 56 -1 l 351 -1 m 208 -240 l 259 -240 q 210 -363 255 -298 l 264 -408 q 363 -213 362 -313 l 363 -68 l 208 -68 l 208 -240 z "},"Ț":{"ha":605,"x_min":7,"x_max":598,"o":"m 403 0 l 403 686 l 598 686 l 598 861 l 7 861 l 7 686 l 202 686 l 202 0 l 403 0 m 222 -240 l 274 -240 q 225 -363 270 -298 l 279 -408 q 378 -213 377 -313 l 378 -68 l 222 -68 l 222 -240 z "},"ț":{"ha":452,"x_min":30,"x_max":439,"o":"m 439 665 l 290 665 l 290 834 l 98 834 l 98 665 l 30 665 l 30 515 l 98 515 l 98 203 q 210 16 98 53 q 328 0 259 0 l 439 0 l 439 163 l 309 163 q 290 182 292 165 l 290 515 l 439 515 l 439 665 m 187 -240 l 239 -240 q 190 -363 235 -298 l 244 -408 q 343 -213 342 -313 l 343 -68 l 187 -68 l 187 -240 z "},"ˉ":{"ha":491,"x_min":54,"x_max":437,"o":"m 437 906 l 54 906 l 54 770 l 437 770 l 437 906 z "},"₺":{"ha":747,"x_min":41,"x_max":701,"o":"m 457 -14 q 701 203 700 -11 l 701 349 l 498 349 l 498 186 q 479 167 495 168 l 313 167 l 313 334 l 465 388 l 465 491 l 313 437 l 313 496 l 465 551 l 465 654 l 313 600 l 313 814 l 113 814 l 113 525 l 41 499 l 41 396 l 113 422 l 113 362 l 41 336 l 41 233 l 113 259 l 113 -14 l 457 -14 z "},"₽":{"ha":736,"x_min":20,"x_max":696,"o":"m 296 0 l 296 126 l 469 126 l 469 262 l 296 262 l 296 316 l 458 316 q 696 547 694 319 l 696 597 q 560 804 696 757 q 445 821 509 822 l 95 814 l 95 452 l 20 452 l 20 316 l 95 316 l 95 262 l 20 262 l 20 126 l 95 126 l 95 0 l 296 0 m 473 646 q 492 627 491 643 l 492 471 q 473 452 490 453 l 296 452 l 296 646 l 473 646 z "},"ℓ":{"ha":674,"x_min":7,"x_max":654,"o":"m 650 -14 l 650 167 l 363 167 q 345 186 346 170 l 345 285 l 515 385 q 632 480 608 439 q 654 563 654 515 l 654 712 q 483 925 654 897 q 423 929 454 929 l 372 929 q 145 764 172 929 q 141 712 141 739 l 141 365 l 7 285 l 87 134 l 142 167 q 385 -14 165 -12 l 650 -14 m 345 730 q 363 749 347 747 l 431 749 q 450 730 449 746 l 450 562 q 431 536 448 547 l 345 484 l 345 730 z "},"Ω":{"ha":789,"x_min":41,"x_max":749,"o":"m 334 0 l 334 170 l 289 182 q 270 202 271 189 l 270 675 q 289 694 273 693 l 495 694 q 514 675 513 692 l 514 202 q 495 182 511 186 l 450 170 l 450 0 l 749 0 l 749 175 l 656 175 q 718 336 718 231 l 718 658 q 473 875 715 873 l 311 875 q 66 658 68 872 l 66 336 q 127 175 68 229 l 41 175 l 41 0 l 334 0 z "},"∆":{"ha":774,"x_min":7,"x_max":768,"o":"m 768 0 l 492 861 l 289 861 l 7 0 l 768 0 m 526 175 l 244 175 l 388 635 l 526 175 z "},"∕":{"ha":654,"x_min":3,"x_max":651,"o":"m 499 875 l 3 -14 l 156 -14 l 651 875 l 499 875 z "},"∙":{"ha":401,"x_min":75,"x_max":327,"o":"m 75 315 q 163 217 75 225 q 187 216 175 216 l 214 216 q 326 296 317 216 q 327 315 327 305 l 327 433 q 248 529 327 518 q 214 532 233 532 l 187 532 q 76 458 88 532 q 75 433 75 446 l 75 315 z "},"ų":{"ha":658,"x_min":54,"x_max":610,"o":"m 266 -14 q 401 106 385 -11 l 415 0 l 468 0 l 388 -73 q 353 -163 353 -106 l 353 -197 q 446 -296 353 -283 q 490 -298 467 -298 l 610 -298 l 610 -176 l 505 -176 q 495 -167 496 -174 l 495 -132 q 506 -109 496 -119 l 590 0 l 587 665 l 395 665 l 397 142 l 266 142 q 247 161 248 145 l 247 665 l 54 665 l 54 156 q 148 -3 54 26 q 231 -14 183 -14 l 266 -14 z "},"ů":{"ha":658,"x_min":54,"x_max":590,"o":"m 266 -14 q 401 106 385 -11 l 415 0 l 590 0 l 587 665 l 395 665 l 397 142 l 266 142 q 247 161 248 145 l 247 665 l 54 665 l 54 156 q 148 -3 54 26 q 231 -14 183 -14 l 266 -14 m 473 867 q 415 1000 473 971 q 319 1016 380 1016 q 183 958 210 1016 q 168 867 168 924 q 227 734 168 762 q 319 718 260 718 q 461 785 434 718 q 473 867 473 817 m 259 867 q 283 929 259 920 q 319 933 297 933 q 378 905 369 933 q 382 867 382 890 q 350 804 382 814 q 319 800 336 800 q 262 834 270 800 q 259 867 259 848 z "},"v":{"ha":608,"x_min":7,"x_max":608,"o":"m 510 156 l 608 665 l 420 665 l 336 161 q 317 142 330 144 l 289 142 l 199 665 l 7 665 l 130 0 l 334 -8 q 473 43 437 -12 q 510 156 495 80 z "},"ඃ":{"ha":374,"x_min":43,"x_max":326,"o":"m 43 277 l 43 18 q 64 0 46 1 l 307 0 q 326 16 324 3 l 326 277 q 304 296 323 294 l 65 296 q 43 277 45 294 m 152 193 l 213 193 q 222 184 221 190 l 222 119 q 213 110 220 110 l 152 110 q 142 119 142 113 l 142 184 q 152 193 145 193 m 43 656 l 43 397 q 64 380 46 381 l 307 380 q 326 396 324 382 l 326 656 q 304 675 323 674 l 65 675 q 43 656 45 674 m 152 572 l 213 572 q 222 564 221 570 l 222 499 q 213 490 220 490 l 152 490 q 142 499 142 492 l 142 564 q 152 572 145 572 z "},"w":{"ha":971,"x_min":61,"x_max":910,"o":"m 311 -14 q 479 83 450 -14 q 484 113 481 98 q 608 -11 499 5 q 658 -14 631 -14 l 734 -14 q 899 75 868 -14 q 910 156 910 109 l 907 665 l 715 665 l 718 161 q 699 142 715 144 l 597 142 q 578 161 579 145 l 578 665 l 391 665 l 391 161 q 372 142 388 144 l 273 142 q 254 161 255 145 l 254 665 l 61 665 l 61 156 q 155 -3 61 26 q 237 -14 190 -14 l 311 -14 z "},"x":{"ha":644,"x_min":5,"x_max":643,"o":"m 202 0 l 282 237 q 301 252 290 252 l 343 252 q 362 236 357 250 l 442 0 l 643 0 l 566 205 q 490 326 530 300 q 468 336 479 332 q 543 445 510 359 q 549 463 547 454 l 623 665 l 433 665 l 354 430 q 332 415 347 415 l 316 415 q 296 431 301 418 l 220 665 l 26 665 l 99 463 q 174 340 133 366 q 179 338 176 339 q 102 252 133 320 q 83 205 94 232 l 5 0 l 202 0 z "},"y":{"ha":654,"x_min":54,"x_max":590,"o":"m 378 -111 l 85 -111 l 85 -271 l 359 -271 q 575 -165 534 -271 q 590 -68 590 -125 l 587 665 l 395 665 l 397 142 l 266 142 q 247 161 248 145 l 247 665 l 54 665 l 54 156 q 148 -3 54 26 q 231 -14 183 -14 l 266 -14 q 397 83 373 -12 l 397 -92 q 378 -111 395 -110 z "},"ý":{"ha":654,"x_min":54,"x_max":590,"o":"m 378 -111 l 85 -111 l 85 -271 l 359 -271 q 575 -165 534 -271 q 590 -68 590 -125 l 587 665 l 395 665 l 397 142 l 266 142 q 247 161 248 145 l 247 665 l 54 665 l 54 156 q 148 -3 54 26 q 231 -14 183 -14 l 266 -14 q 397 83 373 -12 l 397 -92 q 378 -111 395 -110 m 241 747 l 330 974 l 518 972 l 380 747 l 241 747 z "},"ÿ":{"ha":654,"x_min":54,"x_max":590,"o":"m 378 -111 l 85 -111 l 85 -271 l 359 -271 q 575 -165 534 -271 q 590 -68 590 -125 l 587 665 l 395 665 l 397 142 l 266 142 q 247 161 248 145 l 247 665 l 54 665 l 54 156 q 148 -3 54 26 q 231 -14 183 -14 l 266 -14 q 397 83 373 -12 l 397 -92 q 378 -111 395 -110 m 267 768 l 267 929 l 111 929 l 111 768 l 267 768 m 525 768 l 525 929 l 369 929 l 369 768 l 525 768 z "},"¥":{"ha":753,"x_min":23,"x_max":730,"o":"m 652 148 l 652 256 l 472 256 l 472 311 l 652 311 l 652 419 l 562 419 l 566 427 l 730 814 l 533 814 l 408 472 q 387 454 399 454 l 372 454 q 350 472 355 457 l 231 814 l 23 814 l 179 429 l 183 419 l 92 419 l 92 311 l 271 311 l 271 256 l 92 256 l 92 148 l 271 148 l 271 0 l 472 0 l 472 148 l 652 148 z "},"z":{"ha":511,"x_min":5,"x_max":502,"o":"m 488 149 l 258 149 q 243 165 241 149 q 248 176 245 171 l 502 515 q 358 665 499 663 l 35 665 l 35 515 l 254 515 q 270 499 271 515 q 266 490 269 494 l 5 136 q 134 0 8 1 l 487 0 l 488 149 z "},"ź":{"ha":511,"x_min":5,"x_max":502,"o":"m 488 149 l 258 149 q 243 165 241 149 q 248 176 245 171 l 502 515 q 358 665 499 663 l 35 665 l 35 515 l 254 515 q 270 499 271 515 q 266 490 269 494 l 5 136 q 134 0 8 1 l 487 0 l 488 149 m 186 747 l 274 974 l 463 972 l 324 747 l 186 747 z "},"ž":{"ha":511,"x_min":5,"x_max":502,"o":"m 488 149 l 258 149 q 243 165 241 149 q 248 176 245 171 l 502 515 q 358 665 499 663 l 35 665 l 35 515 l 254 515 q 270 499 271 515 q 266 490 269 494 l 5 136 q 134 0 8 1 l 487 0 l 488 149 m 165 754 l 357 754 l 495 974 l 345 974 l 263 844 l 191 974 l 35 974 l 165 754 z "},"ż":{"ha":511,"x_min":5,"x_max":502,"o":"m 488 149 l 258 149 q 243 165 241 149 q 248 176 245 171 l 502 515 q 358 665 499 663 l 35 665 l 35 515 l 254 515 q 270 499 271 515 q 266 490 269 494 l 5 136 q 134 0 8 1 l 487 0 l 488 149 m 338 762 l 338 937 l 175 937 l 175 762 l 338 762 z "},"‍":{"ha":0,"x_min":-244,"x_max":244,"o":"m 75 888 l 244 722 l 168 647 l 54 761 l 54 -15 l -54 -15 l -54 761 l -168 647 l -244 722 l -75 888 l -244 1053 l -168 1128 l 0 960 l 168 1128 l 244 1053 l 75 888 z "},"‌":{"ha":0,"x_min":-54,"x_max":54,"o":"m -54 -15 l -54 1059 l 54 1059 l 54 -15 l -54 -15 z "}}}
